{
.appVersion = "1349";
DisplayStrings = (
"/heavyMultiplicationX"
);
classes = (
{
automatic = 1;

glyphs = (
{
color = 4;
glyphname = A;
lastChange = "2020-01-07 07:10:03 +0000";
layers = (
{
anchors = (
{
name = bottom;
position = "{300, -3}";
},
{
name = ogonek;
position = "{525, 0}";
},
{
name = top;
position = "{300, 803}";
}
);
layerId = "7C079D0C-96CD-4BD8-8800-0621C7635A78";
paths = (
{
closed = 1;
nodes = (
"102 0 LINE",
"300 725 LINE",
"498 0 LINE",
"550 0 LINE",
"328 800 LINE",
"272 800 LINE",
"50 0 LINE"
);
},
{
closed = 1;
nodes = (
"460 216 LINE",
"448 262 LINE",
"152 262 LINE",
"140 216 LINE"
);
}
);
width = 600;
},
{
anchors = (
{
name = bottom;
position = "{300, -3}";
},
{
name = ogonek;
position = "{518, 0}";
},
{
name = top;
position = "{300, 803}";
}
);
layerId = "291433DC-531A-45CC-B814-57D397372F12";
paths = (
{
closed = 1;
nodes = (
"127 0 LINE",
"300 631 LINE",
"473 0 LINE",
"576 0 LINE",
"353 800 LINE",
"247 800 LINE",
"24 0 LINE"
);
},
{
closed = 1;
nodes = (
"472 193 LINE",
"448 285 LINE",
"152 285 LINE",
"128 193 LINE"
);
}
);
width = 600;
}
);
unicode = 0041;
},
{
color = 4;
glyphname = AE;
lastChange = "2020-01-07 07:10:03 +0000";
layers = (
{
anchors = (
{
name = bottom;
position = "{300, 0}";
},
{
name = top;
position = "{300, 800}";
}
);
layerId = "7C079D0C-96CD-4BD8-8800-0621C7635A78";
paths = (
{
closed = 1;
nodes = (
"59 0 LINE",
"262 754 LINE",
"310 754 LINE",
"310 0 LINE",
"587 0 LINE",
"587 46 LINE",
"360 46 LINE",
"360 354 LINE",
"507 354 LINE",
"507 400 LINE",
"360 400 LINE",
"360 754 LINE",
"587 754 LINE",
"587 800 LINE",
"223 800 LINE",
"7 0 LINE"
);
},
{
closed = 1;
nodes = (
"338 262 LINE",
"338 308 LINE",
"119 308 LINE",
"107 262 LINE"
);
}
);
width = 600;
},
{
anchors = (
{
name = bottom;
position = "{300, 0}";
},
{
name = top;
position = "{300, 800}";
}
);
layerId = "291433DC-531A-45CC-B814-57D397372F12";
paths = (
{
closed = 1;
nodes = (
"104 0 LINE",
"282 708 LINE",
"285 708 LINE",
"285 0 LINE",
"592 0 LINE",
"592 92 LINE",
"385 92 LINE",
"385 331 LINE",
"522 331 LINE",
"522 423 LINE",
"385 423 LINE",
"385 708 LINE",
"592 708 LINE",
"592 800 LINE",
"203 800 LINE",
"3 0 LINE"
);
},
{
closed = 1;
nodes = (
"363 239 LINE",
"363 331 LINE",
"124 331 LINE",
"100 239 LINE"
);
}
);
width = 600;
}
);
unicode = 00C6;
},
{
color = 4;
glyphname = B;
lastChange = "2020-01-07 07:10:03 +0000";
layers = (
{
anchors = (
{
name = bottom;
position = "{300, 0}";
},
{
name = top;
position = "{300, 800}";
}
);
layerId = "7C079D0C-96CD-4BD8-8800-0621C7635A78";
paths = (
{
closed = 1;
nodes = (
"309 0 LINE SMOOTH",
"472 0 OFFCURVE",
"524 54 OFFCURVE",
"524 224 CURVE SMOOTH",
"524 352 OFFCURVE",
"494 401 OFFCURVE",
"397 428 CURVE",
"475 457 OFFCURVE",
"499 499 OFFCURVE",
"499 602 CURVE SMOOTH",
"499 752 OFFCURVE",
"447 800 OFFCURVE",
"284 800 CURVE SMOOTH",
"94 800 LINE",
"94 0 LINE"
);
},
{
closed = 1;
nodes = (
"144 400 LINE",
"309 400 LINE SMOOTH",
"434 400 OFFCURVE",
"474 358 OFFCURVE",
"474 224 CURVE SMOOTH",
"474 89 OFFCURVE",
"434 46 OFFCURVE",
"309 46 CURVE SMOOTH",
"144 46 LINE"
);
},
{
closed = 1;
nodes = (
"144 754 LINE",
"284 754 LINE SMOOTH",
"409 754 OFFCURVE",
"449 718 OFFCURVE",
"449 602 CURVE SMOOTH",
"449 483 OFFCURVE",
"409 446 OFFCURVE",
"284 446 CURVE SMOOTH",
"144 446 LINE"
);
}
);
width = 600;
},
{
anchors = (
{
name = bottom;
position = "{300, 0}";
},
{
name = top;
position = "{300, 800}";
}
);
layerId = "291433DC-531A-45CC-B814-57D397372F12";
paths = (
{
closed = 1;
nodes = (
"309 0 LINE SMOOTH",
"487 0 OFFCURVE",
"549 64 OFFCURVE",
"549 235 CURVE SMOOTH",
"549 348 OFFCURVE",
"524 397 OFFCURVE",
"456 431 CURVE",
"506 464 OFFCURVE",
"524 503 OFFCURVE",
"524 591 CURVE SMOOTH",
"524 742 OFFCURVE",
"461 800 OFFCURVE",
"284 800 CURVE SMOOTH",
"69 800 LINE",
"69 0 LINE"
);
},
{
closed = 1;
nodes = (
"169 377 LINE",
"309 377 LINE SMOOTH",
"419 377 OFFCURVE",
"449 357 OFFCURVE",
"449 235 CURVE SMOOTH",
"449 124 OFFCURVE",
"419 92 OFFCURVE",
"309 92 CURVE SMOOTH",
"169 92 LINE"
);
},
{
closed = 1;
nodes = (
"169 708 LINE",
"284 708 LINE SMOOTH",
"396 708 OFFCURVE",
"424 681 OFFCURVE",
"424 591 CURVE SMOOTH",
"424 485 OFFCURVE",
"395 469 OFFCURVE",
"284 469 CURVE SMOOTH",
"169 469 LINE"
);
}
);
width = 600;
}
);
unicode = 0042;
},
{
color = 4;
glyphname = C;
lastChange = "2020-01-07 07:10:03 +0000";
layers = (
{
anchors = (
{
name = bottom;
position = "{300, 0}";
},
{
name = top;
position = "{300, 800}";
}
);
layerId = "7C079D0C-96CD-4BD8-8800-0621C7635A78";
paths = (
{
closed = 1;
nodes = (
"436 -14 OFFCURVE",
"486 24 OFFCURVE",
"525 146 CURVE",
"477 162 LINE",
"444 63 OFFCURVE",
"406 32 OFFCURVE",
"315 32 CURVE SMOOTH",
"170 32 OFFCURVE",
"124 121 OFFCURVE",
"124 401 CURVE SMOOTH",
"124 680 OFFCURVE",
"170 768 OFFCURVE",
"315 768 CURVE SMOOTH",
"406 768 OFFCURVE",
"444 736 OFFCURVE",
"477 635 CURVE",
"525 652 LINE",
"486 775 OFFCURVE",
"435 814 OFFCURVE",
"315 814 CURVE SMOOTH",
"132 814 OFFCURVE",
"74 715 OFFCURVE",
"74 401 CURVE SMOOTH",
"74 86 OFFCURVE",
"132 -14 OFFCURVE",
"315 -14 CURVE SMOOTH"
);
}
);
width = 600;
},
{
anchors = (
{
name = bottom;
position = "{300, 0}";
},
{
name = top;
position = "{300, 800}";
}
);
layerId = "291433DC-531A-45CC-B814-57D397372F12";
paths = (
{
closed = 1;
nodes = (
"454 -14 OFFCURVE",
"513 36 OFFCURVE",
"555 183 CURVE",
"460 215 LINE",
"427 105 OFFCURVE",
"400 78 OFFCURVE",
"315 78 CURVE SMOOTH",
"189 78 OFFCURVE",
"149 155 OFFCURVE",
"149 401 CURVE SMOOTH",
"149 646 OFFCURVE",
"189 722 OFFCURVE",
"315 722 CURVE SMOOTH",
"400 722 OFFCURVE",
"427 694 OFFCURVE",
"460 582 CURVE",
"555 615 LINE",
"513 763 OFFCURVE",
"453 814 OFFCURVE",
"315 814 CURVE SMOOTH",
"115 814 OFFCURVE",
"49 703 OFFCURVE",
"49 401 CURVE SMOOTH",
"49 98 OFFCURVE",
"115 -14 OFFCURVE",
"315 -14 CURVE SMOOTH"
);
}
);
width = 600;
}
);
unicode = 0043;
},
{
color = 4;
glyphname = D;
lastChange = "2020-01-07 07:10:03 +0000";
layers = (
{
anchors = (
{
name = bottom;
position = "{300, 0}";
},
{
name = center;
position = "{300, 400}";
},
{
name = top;
position = "{300, 800}";
}
);
layerId = "7C079D0C-96CD-4BD8-8800-0621C7635A78";
paths = (
{
closed = 1;
nodes = (
"313 0 LINE SMOOTH",
"486 0 OFFCURVE",
"541 96 OFFCURVE",
"541 400 CURVE SMOOTH",
"541 704 OFFCURVE",
"486 800 OFFCURVE",
"313 800 CURVE SMOOTH",
"85 800 LINE",
"85 0 LINE"
);
},
{
closed = 1;
nodes = (
"135 786 LINE",
"102 754 LINE",
"313 754 LINE SMOOTH",
"448 754 OFFCURVE",
"491 669 OFFCURVE",
"491 400 CURVE SMOOTH",
"491 131 OFFCURVE",
"448 46 OFFCURVE",
"313 46 CURVE SMOOTH",
"102 46 LINE",
"135 14 LINE"
);
}
);
width = 600;
},
{
anchors = (
{
name = bottom;
position = "{300, 0}";
},
{
name = center;
position = "{300, 400}";
},
{
name = top;
position = "{300, 800}";
}
);
layerId = "291433DC-531A-45CC-B814-57D397372F12";
paths = (
{
closed = 1;
nodes = (
"313 0 LINE SMOOTH",
"503 0 OFFCURVE",
"566 108 OFFCURVE",
"566 400 CURVE SMOOTH",
"566 692 OFFCURVE",
"503 800 OFFCURVE",
"313 800 CURVE SMOOTH",
"60 800 LINE",
"60 0 LINE"
);
},
{
closed = 1;
nodes = (
"160 779 LINE",
"82 708 LINE",
"313 708 LINE SMOOTH",
"429 708 OFFCURVE",
"466 635 OFFCURVE",
"466 400 CURVE SMOOTH",
"466 165 OFFCURVE",
"429 92 OFFCURVE",
"313 92 CURVE SMOOTH",
"82 92 LINE",
"160 21 LINE"
);
}
);
width = 600;
}
);
unicode = 0044;
},
{
color = 4;
glyphname = Eth;
lastChange = "2020-01-07 07:10:03 +0000";
layers = (
{
layerId = "7C079D0C-96CD-4BD8-8800-0621C7635A78";
paths = (
{
closed = 1;
nodes = (
"316 0 LINE SMOOTH",
"489 0 OFFCURVE",
"544 96 OFFCURVE",
"544 400 CURVE SMOOTH",
"544 704 OFFCURVE",
"489 800 OFFCURVE",
"316 800 CURVE SMOOTH",
"88 800 LINE",
"88 0 LINE"
);
},
{
closed = 1;
nodes = (
"283 400 LINE",
"282 446 LINE",
"36 446 LINE",
"36 400 LINE"
);
},
{
closed = 1;
nodes = (
"138 786 LINE",
"105 754 LINE",
"316 754 LINE SMOOTH",
"451 754 OFFCURVE",
"494 669 OFFCURVE",
"494 400 CURVE SMOOTH",
"494 131 OFFCURVE",
"451 46 OFFCURVE",
"316 46 CURVE SMOOTH",
"105 46 LINE",
"138 14 LINE"
);
}
);
width = 600;
},
{
layerId = "291433DC-531A-45CC-B814-57D397372F12";
paths = (
{
closed = 1;
nodes = (
"316 0 LINE SMOOTH",
"506 0 OFFCURVE",
"569 108 OFFCURVE",
"569 400 CURVE SMOOTH",
"569 692 OFFCURVE",
"506 800 OFFCURVE",
"316 800 CURVE SMOOTH",
"63 800 LINE",
"63 0 LINE"
);
},
{
closed = 1;
nodes = (
"309 377 LINE",
"307 469 LINE",
"11 469 LINE",
"11 377 LINE"
);
},
{
closed = 1;
nodes = (
"163 779 LINE",
"85 708 LINE",
"316 708 LINE SMOOTH",
"432 708 OFFCURVE",
"469 635 OFFCURVE",
"469 400 CURVE SMOOTH",
"469 165 OFFCURVE",
"432 92 OFFCURVE",
"316 92 CURVE SMOOTH",
"85 92 LINE",
"163 21 LINE"
);
}
);
width = 600;
}
);
unicode = 00D0;
},
{
color = 4;
glyphname = E;
lastChange = "2020-01-07 07:10:03 +0000";
layers = (
{
anchors = (
{
name = bottom;
position = "{314, -3}";
},
{
name = ogonek;
position = "{500, 0}";
},
{
name = top;
position = "{314, 803}";
},
{
name = topleft;
position = "{9, 803}";
}
);
layerId = "7C079D0C-96CD-4BD8-8800-0621C7635A78";
paths = (
{
closed = 1;
nodes = (
"526 0 LINE",
"526 46 LINE",
"131 46 LINE",
"152 25 LINE",
"152 421 LINE",
"121 400 LINE",
"392 400 LINE",
"392 446 LINE",
"121 446 LINE",
"152 425 LINE",
"152 785 LINE",
"121 754 LINE",
"526 754 LINE",
"526 800 LINE",
"102 800 LINE",
"102 0 LINE"
);
}
);
width = 600;
},
{
anchors = (
{
name = bottom;
position = "{314, -3}";
},
{
name = ogonek;
position = "{493, 0}";
},
{
name = top;
position = "{314, 803}";
},
{
name = topleft;
position = "{9, 803}";
}
);
layerId = "291433DC-531A-45CC-B814-57D397372F12";
paths = (
{
closed = 1;
nodes = (
"551 0 LINE",
"551 92 LINE",
"104 92 LINE",
"177 19 LINE",
"177 450 LINE",
"104 377 LINE",
"417 377 LINE",
"417 469 LINE",
"104 469 LINE",
"177 396 LINE",
"177 781 LINE",
"104 708 LINE",
"551 708 LINE",
"551 800 LINE",
"77 800 LINE",
"77 0 LINE"
);
}
);
width = 600;
}
);
unicode = 0045;
},
{
color = 4;
glyphname = F;
lastChange = "2020-01-07 07:10:03 +0000";
layers = (
{
anchors = (
{
name = bottom;
position = "{300, 0}";
},
{
name = top;
position = "{300, 800}";
}
);
layerId = "7C079D0C-96CD-4BD8-8800-0621C7635A78";
paths = (
{
closed = 1;
nodes = (
"153 0 LINE",
"153 385 LINE",
"122 354 LINE",
"393 354 LINE",
"393 400 LINE",
"122 400 LINE",
"153 369 LINE",
"153 785 LINE",
"122 754 LINE",
"527 754 LINE",
"527 800 LINE",
"103 800 LINE",
"103 0 LINE"
);
}
);
width = 600;
},
{
anchors = (
{
name = bottom;
position = "{300, 0}";
},
{
name = top;
position = "{300, 800}";
}
);
layerId = "291433DC-531A-45CC-B814-57D397372F12";
paths = (
{
closed = 1;
nodes = (
"178 0 LINE",
"178 404 LINE",
"105 331 LINE",
"418 331 LINE",
"418 423 LINE",
"105 423 LINE",
"178 350 LINE",
"178 781 LINE",
"105 708 LINE",
"552 708 LINE",
"552 800 LINE",
"78 800 LINE",
"78 0 LINE"
);
}
);
width = 600;
}
);
unicode = 0046;
},
{
color = 4;
glyphname = G;
lastChange = "2020-01-07 07:10:03 +0000";
layers = (
{
anchors = (
{
name = bottom;
position = "{300, 0}";
},
{
name = top;
position = "{300, 800}";
}
);
layerId = "7C079D0C-96CD-4BD8-8800-0621C7635A78";
paths = (
{
closed = 1;
nodes = (
"441 -14 OFFCURVE",
"493 25 OFFCURVE",
"533 148 CURVE",
"533 400 LINE",
"309 400 LINE",
"309 354 LINE",
"483 354 LINE",
"483 155 LINE",
"450 62 OFFCURVE",
"410 32 OFFCURVE",
"319 32 CURVE SMOOTH",
"167 32 OFFCURVE",
"119 120 OFFCURVE",
"119 400 CURVE SMOOTH",
"119 680 OFFCURVE",
"167 768 OFFCURVE",
"319 768 CURVE SMOOTH",
"420 768 OFFCURVE",
"462 733 OFFCURVE",
"492 623 CURVE",
"540 635 LINE",
"502 771 OFFCURVE",
"449 814 OFFCURVE",
"319 814 CURVE SMOOTH",
"129 814 OFFCURVE",
"69 715 OFFCURVE",
"69 400 CURVE SMOOTH",
"69 85 OFFCURVE",
"129 -14 OFFCURVE",
"319 -14 CURVE SMOOTH"
);
}
);
width = 600;
},
{
anchors = (
{
name = bottom;
position = "{300, 0}";
},
{
name = top;
position = "{300, 800}";
}
);
layerId = "291433DC-531A-45CC-B814-57D397372F12";
paths = (
{
closed = 1;
nodes = (
"456 -14 OFFCURVE",
"513 31 OFFCURVE",
"558 172 CURVE",
"558 423 LINE",
"284 423 LINE",
"284 331 LINE",
"458 331 LINE",
"458 186 LINE",
"429 104 OFFCURVE",
"396 78 OFFCURVE",
"319 78 CURVE SMOOTH",
"186 78 OFFCURVE",
"144 155 OFFCURVE",
"144 400 CURVE SMOOTH",
"144 645 OFFCURVE",
"186 722 OFFCURVE",
"319 722 CURVE SMOOTH",
"408 722 OFFCURVE",
"445 685 OFFCURVE",
"474 568 CURVE",
"570 592 LINE",
"528 761 OFFCURVE",
"468 814 OFFCURVE",
"319 814 CURVE SMOOTH",
"110 814 OFFCURVE",
"44 715 OFFCURVE",
"44 400 CURVE SMOOTH",
"44 85 OFFCURVE",
"110 -14 OFFCURVE",
"319 -14 CURVE SMOOTH"
);
}
);
width = 600;
}
);
unicode = 0047;
},
{
color = 4;
glyphname = H;
lastChange = "2020-01-07 07:10:03 +0000";
layers = (
{
anchors = (
{
name = bottom;
position = "{300, 0}";
},
{
name = center;
position = "{300, 400}";
},
{
name = top;
position = "{300, 800}";
},
{
name = topleft;
position = "{20, 800}";
}
);
background = {
paths = (
{
closed = 0;
nodes = (
"501 0 LINE",
"501 806 LINE"
);
},
{
closed = 0;
nodes = (
"150 0 LINE",
"150 806 LINE"
);
},
{
closed = 0;
nodes = (
"501 431 LINE",
"150 431 LINE"
);
}
);
};
layerId = "7C079D0C-96CD-4BD8-8800-0621C7635A78";
paths = (
{
closed = 1;
nodes = (
"516 0 LINE",
"516 800 LINE",
"466 800 LINE",
"466 0 LINE"
);
},
{
closed = 1;
nodes = (
"134 0 LINE",
"134 800 LINE",
"84 800 LINE",
"84 0 LINE"
);
},
{
closed = 1;
nodes = (
"487 400 LINE",
"487 446 LINE",
"113 446 LINE",
"113 400 LINE"
);
}
);
width = 600;
},
{
anchors = (
{
name = bottom;
position = "{300, 0}";
},
{
name = center;
position = "{300, 400}";
},
{
name = top;
position = "{300, 800}";
},
{
name = topleft;
position = "{20, 800}";
}
);
background = {
paths = (
{
closed = 0;
nodes = (
"501 0 LINE",
"501 806 LINE"
);
},
{
closed = 0;
nodes = (
"150 0 LINE",
"150 806 LINE"
);
},
{
closed = 0;
nodes = (
"501 431 LINE",
"150 431 LINE"
);
}
);
};
layerId = "291433DC-531A-45CC-B814-57D397372F12";
paths = (
{
closed = 1;
nodes = (
"541 0 LINE",
"541 800 LINE",
"441 800 LINE",
"441 0 LINE"
);
},
{
closed = 1;
nodes = (
"159 0 LINE",
"159 800 LINE",
"59 800 LINE",
"59 0 LINE"
);
},
{
closed = 1;
nodes = (
"512 377 LINE",
"512 469 LINE",
"88 469 LINE",
"88 377 LINE"
);
}
);
width = 600;
}
);
unicode = 0048;
},
{
color = 4;
glyphname = Hbar;
lastChange = "2020-01-07 07:10:03 +0000";
layers = (
{
components = (
{
name = H;
}
);
layerId = "7C079D0C-96CD-4BD8-8800-0621C7635A78";
paths = (
{
closed = 1;
nodes = (
"570 552 LINE",
"570 598 LINE",
"30 598 LINE",
"30 552 LINE"
);
}
);
width = 600;
},
{
components = (
{
name = H;
}
);
layerId = "291433DC-531A-45CC-B814-57D397372F12";
paths = (
{
closed = 1;
nodes = (
"585 552 LINE",
"585 644 LINE",
"15 644 LINE",
"15 552 LINE"
);
}
);
width = 600;
}
);
unicode = 0126;
},
{
color = 4;
glyphname = I;
lastChange = "2020-01-07 07:10:03 +0000";
layers = (
{
anchors = (
{
name = bottom;
position = "{300, -3}";
},
{
name = ogonek;
position = "{350, 0}";
},
{
name = top;
position = "{300, 803}";
},
{
name = topleft;
position = "{-5, 803}";
}
);
layerId = "7C079D0C-96CD-4BD8-8800-0621C7635A78";
paths = (
{
closed = 1;
nodes = (
"325 0 LINE",
"325 800 LINE",
"275 800 LINE",
"275 0 LINE"
);
},
{
closed = 1;
nodes = (
"487 0 LINE",
"487 46 LINE",
"113 46 LINE",
"113 0 LINE"
);
},
{
closed = 1;
nodes = (
"487 754 LINE",
"487 800 LINE",
"113 800 LINE",
"113 754 LINE"
);
}
);
width = 600;
},
{
anchors = (
{
name = bottom;
position = "{300, -3}";
},
{
name = ogonek;
position = "{340, 0}";
},
{
name = top;
position = "{300, 803}";
},
{
name = topleft;
position = "{-5, 803}";
}
);
layerId = "291433DC-531A-45CC-B814-57D397372F12";
paths = (
{
closed = 1;
nodes = (
"350 0 LINE",
"350 800 LINE",
"250 800 LINE",
"250 0 LINE"
);
},
{
closed = 1;
nodes = (
"512 0 LINE",
"512 92 LINE",
"88 92 LINE",
"88 0 LINE"
);
},
{
closed = 1;
nodes = (
"512 708 LINE",
"512 800 LINE",
"88 800 LINE",
"88 708 LINE"
);
}
);
width = 600;
}
);
unicode = 0049;
},
{
color = 4;
glyphname = J;
lastChange = "2020-01-07 07:10:03 +0000";
layers = (
{
anchors = (
{
name = bottom;
position = "{300, 0}";
},
{
name = top;
position = "{416, 800}";
}
);
layerId = "7C079D0C-96CD-4BD8-8800-0621C7635A78";
paths = (
{
closed = 1;
nodes = (
"446 -14 OFFCURVE",
"504 73 OFFCURVE",
"504 348 CURVE SMOOTH",
"504 800 LINE",
"323 800 LINE",
"323 754 LINE",
"454 754 LINE",
"454 348 LINE SMOOTH",
"454 108 OFFCURVE",
"408 32 OFFCURVE",
"264 32 CURVE SMOOTH",
"171 32 OFFCURVE",
"132 62 OFFCURVE",
"102 158 CURVE",
"55 145 LINE",
"93 24 OFFCURVE",
"143 -14 OFFCURVE",
"264 -14 CURVE SMOOTH"
);
}
);
width = 600;
},
{
anchors = (
{
name = bottom;
position = "{300, 0}";
},
{
name = top;
position = "{421, 800}";
}
);
layerId = "291433DC-531A-45CC-B814-57D397372F12";
paths = (
{
closed = 1;
nodes = (
"463 -14 OFFCURVE",
"529 85 OFFCURVE",
"529 371 CURVE SMOOTH",
"529 800 LINE",
"298 800 LINE",
"298 708 LINE",
"429 708 LINE",
"429 371 LINE SMOOTH",
"429 142 OFFCURVE",
"390 78 OFFCURVE",
"264 78 CURVE SMOOTH",
"176 78 OFFCURVE",
"149 105 OFFCURVE",
"119 210 CURVE",
"25 184 LINE",
"66 36 OFFCURVE",
"124 -14 OFFCURVE",
"264 -14 CURVE SMOOTH"
);
}
);
width = 600;
}
);
unicode = 004A;
},
{
color = 4;
glyphname = K;
lastChange = "2020-01-07 07:10:03 +0000";
layers = (
{
anchors = (
{
name = bottom;
position = "{300, 0}";
},
{
name = top;
position = "{300, 800}";
}
);
layerId = "7C079D0C-96CD-4BD8-8800-0621C7635A78";
paths = (
{
closed = 1;
nodes = (
"226 400 LINE",
"553 800 LINE",
"491 800 LINE",
"202 446 LINE",
"112 446 LINE",
"112 400 LINE"
);
},
{
closed = 1;
nodes = (
"140 0 LINE",
"140 800 LINE",
"90 800 LINE",
"90 0 LINE"
);
},
{
closed = 1;
nodes = (
"558 0 LINE",
"237 458 LINE",
"204 420 LINE",
"498 0 LINE"
);
}
);
width = 600;
},
{
anchors = (
{
name = bottom;
position = "{300, 0}";
},
{
name = top;
position = "{300, 800}";
}
);
layerId = "291433DC-531A-45CC-B814-57D397372F12";
paths = (
{
closed = 1;
nodes = (
"238 377 LINE",
"600 800 LINE",
"476 800 LINE",
"192 469 LINE",
"94 469 LINE",
"94 377 LINE"
);
},
{
closed = 1;
nodes = (
"165 0 LINE",
"165 800 LINE",
"65 800 LINE",
"65 0 LINE"
);
},
{
closed = 1;
nodes = (
"598 0 LINE",
"277 500 LINE",
"210 424 LINE",
"483 0 LINE"
);
}
);
width = 600;
}
);
unicode = 004B;
},
{
color = 4;
glyphname = L;
lastChange = "2020-01-07 07:10:03 +0000";
layers = (
{
anchors = (
{
name = bottom;
position = "{300, 0}";
},
{
name = center;
position = "{300, 400}";
},
{
name = top;
position = "{163, 800}";
},
{
name = topright;
position = "{580, 800}";
}
);
layerId = "7C079D0C-96CD-4BD8-8800-0621C7635A78";
paths = (
{
closed = 1;
nodes = (
"506 0 LINE",
"506 46 LINE",
"171 46 LINE",
"171 800 LINE",
"121 800 LINE",
"121 0 LINE"
);
}
);
width = 600;
},
{
anchors = (
{
name = bottom;
position = "{300, 0}";
},
{
name = center;
position = "{300, 400}";
},
{
name = top;
position = "{170, 800}";
},
{
name = topright;
position = "{580, 800}";
}
);
layerId = "291433DC-531A-45CC-B814-57D397372F12";
paths = (
{
closed = 1;
nodes = (
"531 0 LINE",
"531 92 LINE",
"196 92 LINE",
"196 800 LINE",
"96 800 LINE",
"96 0 LINE"
);
}
);
width = 600;
}
);
unicode = 004C;
},
{
color = 4;
glyphname = Lslash;
lastChange = "2020-01-07 07:10:03 +0000";
layers = (
{
layerId = "7C079D0C-96CD-4BD8-8800-0621C7635A78";
paths = (
{
closed = 1;
nodes = (
"536 0 LINE",
"536 46 LINE",
"201 46 LINE",
"201 800 LINE",
"151 800 LINE",
"151 0 LINE"
);
},
{
closed = 1;
nodes = (
"335 518 LINE",
"335 565 LINE",
"53 450 LINE",
"53 403 LINE"
);
}
);
width = 600;
},
{
layerId = "291433DC-531A-45CC-B814-57D397372F12";
paths = (
{
closed = 1;
nodes = (
"561 0 LINE",
"561 92 LINE",
"226 92 LINE",
"226 800 LINE",
"126 800 LINE",
"126 0 LINE"
);
},
{
closed = 1;
nodes = (
"360 503 LINE",
"360 600 LINE",
"28 465 LINE",
"28 368 LINE"
);
}
);
width = 600;
}
);
unicode = 0141;
},
{
color = 4;
glyphname = M;
lastChange = "2020-01-07 07:10:03 +0000";
layers = (
{
anchors = (
{
name = bottom;
position = "{300, 0}";
},
{
name = top;
position = "{300, 800}";
}
);
layerId = "7C079D0C-96CD-4BD8-8800-0621C7635A78";
paths = (
{
closed = 1;
nodes = (
"110 0 LINE",
"122 674 LINE",
"275 262 LINE",
"325 262 LINE",
"478 674 LINE",
"490 0 LINE",
"540 0 LINE",
"526 800 LINE",
"475 800 LINE",
"300 334 LINE",
"125 800 LINE",
"74 800 LINE",
"60 0 LINE"
);
}
);
width = 600;
},
{
anchors = (
{
name = bottom;
position = "{300, 0}";
},
{
name = top;
position = "{300, 800}";
}
);
layerId = "291433DC-531A-45CC-B814-57D397372F12";
paths = (
{
closed = 1;
nodes = (
"135 0 LINE",
"145 542 LINE",
"257 239 LINE",
"343 239 LINE",
"455 542 LINE",
"465 0 LINE",
"565 0 LINE",
"551 800 LINE",
"457 800 LINE",
"300 404 LINE",
"143 800 LINE",
"49 800 LINE",
"35 0 LINE"
);
}
);
width = 600;
}
);
unicode = 004D;
},
{
color = 4;
glyphname = N;
lastChange = "2020-01-07 07:10:03 +0000";
layers = (
{
anchors = (
{
name = bottom;
position = "{300, -3}";
},
{
name = top;
position = "{300, 803}";
}
);
layerId = "7C079D0C-96CD-4BD8-8800-0621C7635A78";
paths = (
{
closed = 1;
nodes = (
"136 0 LINE",
"136 800 LINE",
"86 800 LINE",
"460 0 LINE",
"514 0 LINE",
"514 800 LINE",
"464 800 LINE",
"464 0 LINE",
"514 0 LINE",
"140 800 LINE",
"86 800 LINE",
"86 0 LINE"
);
}
);
width = 600;
},
{
anchors = (
{
name = bottom;
position = "{300, -3}";
},
{
name = top;
position = "{300, 803}";
}
);
layerId = "291433DC-531A-45CC-B814-57D397372F12";
paths = (
{
closed = 1;
nodes = (
"161 0 LINE",
"161 800 LINE",
"61 800 LINE",
"432 0 LINE",
"539 0 LINE",
"539 800 LINE",
"439 800 LINE",
"439 0 LINE",
"539 0 LINE",
"168 800 LINE",
"61 800 LINE",
"61 0 LINE"
);
}
);
width = 600;
}
);
unicode = 004E;
},
{
color = 4;
glyphname = Eng;
lastChange = "2020-01-07 07:10:03 +0000";
layers = (
{
components = (
{
name = N;
}
);
layerId = "7C079D0C-96CD-4BD8-8800-0621C7635A78";
paths = (
{
closed = 1;
nodes = (
"480 -155 OFFCURVE",
"514 -118 OFFCURVE",
"514 0 CURVE",
"460 0 LINE",
"480 -83 OFFCURVE",
"442 -109 OFFCURVE",
"372 -109 CURVE",
"372 -155 LINE"
);
}
);
width = 600;
},
{
components = (
{
name = N;
}
);
layerId = "291433DC-531A-45CC-B814-57D397372F12";
paths = (
{
closed = 1;
nodes = (
"496 -177 OFFCURVE",
"539 -157 OFFCURVE",
"539 0 CURVE",
"432 0 LINE",
"472 -85 OFFCURVE",
"425 -85 OFFCURVE",
"347 -85 CURVE",
"347 -177 LINE"
);
}
);
width = 600;
}
);
unicode = 014A;
},
{
color = 4;
glyphname = O;
lastChange = "2020-01-07 07:10:03 +0000";
layers = (
{
anchors = (
{
name = bottom;
position = "{300, -3}";
},
{
name = center;
position = "{300, 400}";
},
{
name = ogonek;
position = "{560, 7}";
},
{
name = top;
position = "{300, 803}";
},
{
name = topleft;
position = "{-5, 803}";
},
{
name = topright;
position = "{605, 803}";
}
);
layerId = "7C079D0C-96CD-4BD8-8800-0621C7635A78";
paths = (
{
closed = 1;
nodes = (
"477 -14 OFFCURVE",
"533 76 OFFCURVE",
"533 360 CURVE SMOOTH",
"533 440 LINE SMOOTH",
"533 724 OFFCURVE",
"477 814 OFFCURVE",
"300 814 CURVE SMOOTH",
"123 814 OFFCURVE",
"67 724 OFFCURVE",
"67 440 CURVE SMOOTH",
"67 360 LINE SMOOTH",
"67 76 OFFCURVE",
"123 -14 OFFCURVE",
"300 -14 CURVE SMOOTH"
);
},
{
closed = 1;
nodes = (
"162 32 OFFCURVE",
"118 111 OFFCURVE",
"117 360 CURVE SMOOTH",
"117 440 LINE SMOOTH",
"116 689 OFFCURVE",
"160 768 OFFCURVE",
"300 768 CURVE SMOOTH",
"439 768 OFFCURVE",
"483 689 OFFCURVE",
"483 440 CURVE SMOOTH",
"483 360 LINE SMOOTH",
"483 111 OFFCURVE",
"439 32 OFFCURVE",
"300 32 CURVE SMOOTH"
);
}
);
width = 600;
},
{
anchors = (
{
name = bottom;
position = "{300, -3}";
},
{
name = center;
position = "{300, 400}";
},
{
name = ogonek;
position = "{560, 7}";
},
{
name = top;
position = "{300, 803}";
},
{
name = topleft;
position = "{-5, 803}";
},
{
name = topright;
position = "{605, 803}";
}
);
layerId = "291433DC-531A-45CC-B814-57D397372F12";
paths = (
{
closed = 1;
nodes = (
"494 -14 OFFCURVE",
"558 88 OFFCURVE",
"558 360 CURVE SMOOTH",
"558 440 LINE SMOOTH",
"558 712 OFFCURVE",
"494 814 OFFCURVE",
"300 814 CURVE SMOOTH",
"106 814 OFFCURVE",
"42 712 OFFCURVE",
"42 440 CURVE SMOOTH",
"42 360 LINE SMOOTH",
"42 88 OFFCURVE",
"106 -14 OFFCURVE",
"300 -14 CURVE SMOOTH"
);
},
{
closed = 1;
nodes = (
"180 78 OFFCURVE",
"142 145 OFFCURVE",
"142 360 CURVE SMOOTH",
"142 440 LINE SMOOTH",
"142 655 OFFCURVE",
"178 722 OFFCURVE",
"300 722 CURVE SMOOTH",
"421 722 OFFCURVE",
"458 655 OFFCURVE",
"458 440 CURVE SMOOTH",
"458 360 LINE SMOOTH",
"458 145 OFFCURVE",
"421 78 OFFCURVE",
"300 78 CURVE SMOOTH"
);
}
);
width = 600;
}
);
unicode = 004F;
},
{
color = 4;
glyphname = Oslash;
lastChange = "2020-01-07 07:10:03 +0000";
layers = (
{
anchors = (
{
name = bottom;
position = "{300, 0}";
},
{
name = top;
position = "{300, 800}";
}
);
layerId = "7C079D0C-96CD-4BD8-8800-0621C7635A78";
paths = (
{
closed = 1;
nodes = (
"120 -50 LINE",
"535 850 LINE",
"480 850 LINE",
"65 -50 LINE"
);
},
{
closed = 1;
nodes = (
"477 -14 OFFCURVE",
"533 76 OFFCURVE",
"533 360 CURVE SMOOTH",
"533 440 LINE SMOOTH",
"533 724 OFFCURVE",
"477 814 OFFCURVE",
"300 814 CURVE SMOOTH",
"123 814 OFFCURVE",
"67 724 OFFCURVE",
"67 440 CURVE SMOOTH",
"67 360 LINE SMOOTH",
"67 76 OFFCURVE",
"123 -14 OFFCURVE",
"300 -14 CURVE SMOOTH"
);
},
{
closed = 1;
nodes = (
"161 32 OFFCURVE",
"117 111 OFFCURVE",
"117 360 CURVE SMOOTH",
"117 440 LINE SMOOTH",
"117 689 OFFCURVE",
"161 768 OFFCURVE",
"300 768 CURVE SMOOTH",
"439 768 OFFCURVE",
"483 689 OFFCURVE",
"483 440 CURVE SMOOTH",
"483 360 LINE SMOOTH",
"483 111 OFFCURVE",
"439 32 OFFCURVE",
"300 32 CURVE SMOOTH"
);
}
);
width = 600;
},
{
anchors = (
{
name = bottom;
position = "{300, 0}";
},
{
name = top;
position = "{300, 800}";
}
);
layerId = "291433DC-531A-45CC-B814-57D397372F12";
paths = (
{
closed = 1;
nodes = (
"137 -50 LINE",
"573 850 LINE",
"463 850 LINE",
"27 -50 LINE"
);
},
{
closed = 1;
nodes = (
"494 -14 OFFCURVE",
"558 88 OFFCURVE",
"558 360 CURVE SMOOTH",
"558 440 LINE SMOOTH",
"558 712 OFFCURVE",
"494 814 OFFCURVE",
"300 814 CURVE SMOOTH",
"106 814 OFFCURVE",
"42 712 OFFCURVE",
"42 440 CURVE SMOOTH",
"42 360 LINE SMOOTH",
"42 88 OFFCURVE",
"106 -14 OFFCURVE",
"300 -14 CURVE SMOOTH"
);
},
{
closed = 1;
nodes = (
"179 78 OFFCURVE",
"142 145 OFFCURVE",
"142 360 CURVE SMOOTH",
"142 440 LINE SMOOTH",
"142 655 OFFCURVE",
"179 722 OFFCURVE",
"300 722 CURVE SMOOTH",
"421 722 OFFCURVE",
"458 655 OFFCURVE",
"458 440 CURVE SMOOTH",
"458 360 LINE SMOOTH",
"458 145 OFFCURVE",
"421 78 OFFCURVE",
"300 78 CURVE SMOOTH"
);
}
);
width = 600;
}
);
unicode = 00D8;
},
{
color = 4;
glyphname = OE;
lastChange = "2020-01-07 07:10:03 +0000";
layers = (
{
anchors = (
{
name = bottom;
position = "{300, 0}";
},
{
name = top;
position = "{300, 800}";
}
);
layerId = "7C079D0C-96CD-4BD8-8800-0621C7635A78";
paths = (
{
closed = 1;
nodes = (
"324 -14 OFFCURVE",
"368 84 OFFCURVE",
"368 396 CURVE SMOOTH",
"368 714 OFFCURVE",
"324 814 OFFCURVE",
"185 814 CURVE SMOOTH",
"46 814 OFFCURVE",
"2 714 OFFCURVE",
"2 399 CURVE SMOOTH",
"2 85 OFFCURVE",
"46 -14 OFFCURVE",
"185 -14 CURVE SMOOTH"
);
},
{
closed = 1;
nodes = (
"84 32 OFFCURVE",
"52 120 OFFCURVE",
"52 399 CURVE SMOOTH",
"52 679 OFFCURVE",
"84 768 OFFCURVE",
"185 768 CURVE SMOOTH",
"286 768 OFFCURVE",
"318 679 OFFCURVE",
"318 399 CURVE SMOOTH",
"318 120 OFFCURVE",
"286 32 OFFCURVE",
"185 32 CURVE SMOOTH"
);
},
{
closed = 1;
nodes = (
"598 0 LINE",
"598 46 LINE",
"340 46 LINE",
"368 16 LINE",
"368 430 LINE",
"340 400 LINE",
"507 400 LINE",
"507 446 LINE",
"340 446 LINE",
"368 416 LINE",
"368 784 LINE",
"340 754 LINE",
"598 754 LINE",
"598 800 LINE",
"318 800 LINE",
"318 0 LINE"
);
}
);
width = 600;
},
{
anchors = (
{
name = bottom;
position = "{300, 0}";
},
{
name = top;
position = "{300, 800}";
}
);
layerId = "291433DC-531A-45CC-B814-57D397372F12";
paths = (
{
closed = 1;
nodes = (
"355 -14 OFFCURVE",
"393 96 OFFCURVE",
"393 396 CURVE SMOOTH",
"393 702 OFFCURVE",
"355 814 OFFCURVE",
"197 814 CURVE SMOOTH",
"51 814 OFFCURVE",
"1 703 OFFCURVE",
"1 399 CURVE SMOOTH",
"1 96 OFFCURVE",
"51 -14 OFFCURVE",
"197 -14 CURVE SMOOTH"
);
},
{
closed = 1;
nodes = (
"129 78 OFFCURVE",
"101 156 OFFCURVE",
"101 399 CURVE SMOOTH",
"101 643 OFFCURVE",
"129 722 OFFCURVE",
"197 722 CURVE SMOOTH",
"277 722 OFFCURVE",
"293 643 OFFCURVE",
"293 399 CURVE SMOOTH",
"293 156 OFFCURVE",
"277 78 OFFCURVE",
"197 78 CURVE SMOOTH"
);
},
{
closed = 1;
nodes = (
"599 0 LINE",
"599 92 LINE",
"331 92 LINE",
"393 29 LINE",
"393 440 LINE",
"331 377 LINE",
"520 377 LINE",
"520 469 LINE",
"331 469 LINE",
"393 406 LINE",
"393 771 LINE",
"331 708 LINE",
"599 708 LINE",
"599 800 LINE",
"293 800 LINE",
"293 0 LINE"
);
}
);
width = 600;
}
);
unicode = 0152;
},
{
color = 4;
glyphname = P;
lastChange = "2020-01-07 07:10:03 +0000";
layers = (
{
anchors = (
{
name = bottom;
position = "{300, 0}";
},
{
name = top;
position = "{300, 800}";
}
);
layerId = "7C079D0C-96CD-4BD8-8800-0621C7635A78";
paths = (
{
closed = 1;
nodes = (
"156 0 LINE",
"156 785 LINE",
"125 754 LINE",
"320 754 LINE SMOOTH",
"445 754 OFFCURVE",
"485 712 OFFCURVE",
"485 577 CURVE SMOOTH",
"485 442 OFFCURVE",
"445 400 OFFCURVE",
"320 400 CURVE SMOOTH",
"134 400 LINE",
"134 354 LINE",
"320 354 LINE SMOOTH",
"483 354 OFFCURVE",
"535 408 OFFCURVE",
"535 577 CURVE SMOOTH",
"535 746 OFFCURVE",
"483 800 OFFCURVE",
"320 800 CURVE SMOOTH",
"106 800 LINE",
"106 0 LINE"
);
}
);
width = 600;
},
{
anchors = (
{
name = bottom;
position = "{300, 0}";
},
{
name = top;
position = "{300, 800}";
}
);
layerId = "291433DC-531A-45CC-B814-57D397372F12";
paths = (
{
closed = 1;
nodes = (
"181 0 LINE",
"181 801 LINE",
"88 708 LINE",
"320 708 LINE SMOOTH",
"430 708 OFFCURVE",
"460 676 OFFCURVE",
"460 564 CURVE SMOOTH",
"460 442 OFFCURVE",
"430 420 OFFCURVE",
"320 420 CURVE SMOOTH",
"109 420 LINE",
"109 328 LINE",
"320 328 LINE SMOOTH",
"497 328 OFFCURVE",
"560 382 OFFCURVE",
"560 564 CURVE SMOOTH",
"560 736 OFFCURVE",
"497 800 OFFCURVE",
"320 800 CURVE SMOOTH",
"81 800 LINE",
"81 0 LINE"
);
}
);
width = 600;
}
);
unicode = 0050;
},
{
color = 4;
glyphname = Thorn;
lastChange = "2020-01-07 07:10:03 +0000";
layers = (
{
anchors = (
{
name = bottom;
position = "{300, 0}";
},
{
name = top;
position = "{300, 800}";
}
);
layerId = "7C079D0C-96CD-4BD8-8800-0621C7635A78";
paths = (
{
closed = 1;
nodes = (
"300 196 LINE SMOOTH",
"463 196 OFFCURVE",
"515 245 OFFCURVE",
"515 400 CURVE SMOOTH",
"515 555 OFFCURVE",
"463 604 OFFCURVE",
"300 604 CURVE SMOOTH",
"135 604 LINE",
"135 558 LINE",
"300 558 LINE SMOOTH",
"425 558 OFFCURVE",
"465 520 OFFCURVE",
"465 400 CURVE SMOOTH",
"465 280 OFFCURVE",
"425 242 OFFCURVE",
"300 242 CURVE SMOOTH",
"135 242 LINE",
"135 196 LINE"
);
},
{
closed = 1;
nodes = (
"156 0 LINE",
"156 800 LINE",
"106 800 LINE",
"106 0 LINE"
);
}
);
width = 600;
},
{
anchors = (
{
name = bottom;
position = "{300, 0}";
},
{
name = top;
position = "{300, 800}";
}
);
layerId = "291433DC-531A-45CC-B814-57D397372F12";
paths = (
{
closed = 1;
nodes = (
"300 173 LINE SMOOTH",
"477 173 OFFCURVE",
"540 232 OFFCURVE",
"540 400 CURVE SMOOTH",
"540 568 OFFCURVE",
"477 627 OFFCURVE",
"300 627 CURVE SMOOTH",
"110 627 LINE",
"110 535 LINE",
"300 535 LINE SMOOTH",
"411 535 OFFCURVE",
"440 507 OFFCURVE",
"440 400 CURVE SMOOTH",
"440 293 OFFCURVE",
"411 265 OFFCURVE",
"300 265 CURVE SMOOTH",
"110 265 LINE",
"110 173 LINE"
);
},
{
closed = 1;
nodes = (
"181 0 LINE",
"181 800 LINE",
"81 800 LINE",
"81 0 LINE"
);
}
);
width = 600;
}
);
unicode = 00DE;
},
{
color = 4;
glyphname = Q;
lastChange = "2020-01-07 07:10:03 +0000";
layers = (
{
anchors = (
{
name = bottom;
position = "{300, 0}";
},
{
name = top;
position = "{300, 800}";
}
);
layerId = "7C079D0C-96CD-4BD8-8800-0621C7635A78";
paths = (
{
closed = 1;
nodes = (
"477 -14 OFFCURVE",
"533 76 OFFCURVE",
"533 360 CURVE SMOOTH",
"533 440 LINE SMOOTH",
"533 724 OFFCURVE",
"477 814 OFFCURVE",
"300 814 CURVE SMOOTH",
"123 814 OFFCURVE",
"67 724 OFFCURVE",
"67 440 CURVE SMOOTH",
"67 360 LINE SMOOTH",
"67 76 OFFCURVE",
"123 -14 OFFCURVE",
"300 -14 CURVE SMOOTH"
);
},
{
closed = 1;
nodes = (
"493 -168 OFFCURVE",
"531 -139 OFFCURVE",
"595 -139 CURVE",
"595 -93 LINE",
"538 -93 OFFCURVE",
"477 -122 OFFCURVE",
"420 -122 CURVE SMOOTH",
"371 -122 OFFCURVE",
"318 -80 OFFCURVE",
"287 -74 CURVE",
"309 -61 OFFCURVE",
"332 -21 OFFCURVE",
"334 9 CURVE",
"284 6 LINE",
"265 -30 OFFCURVE",
"233 -63 OFFCURVE",
"179 -63 CURVE",
"179 -109 LINE",
"207 -109 LINE SMOOTH",
"308 -109 OFFCURVE",
"330 -168 OFFCURVE",
"420 -168 CURVE SMOOTH"
);
},
{
closed = 1;
nodes = (
"162 32 OFFCURVE",
"118 111 OFFCURVE",
"117 360 CURVE SMOOTH",
"117 440 LINE SMOOTH",
"116 689 OFFCURVE",
"160 768 OFFCURVE",
"300 768 CURVE SMOOTH",
"439 768 OFFCURVE",
"483 689 OFFCURVE",
"483 440 CURVE SMOOTH",
"483 360 LINE SMOOTH",
"483 111 OFFCURVE",
"439 32 OFFCURVE",
"300 32 CURVE SMOOTH"
);
}
);
width = 600;
},
{
anchors = (
{
name = bottom;
position = "{300, 0}";
},
{
name = top;
position = "{300, 800}";
}
);
layerId = "291433DC-531A-45CC-B814-57D397372F12";
paths = (
{
closed = 1;
nodes = (
"494 -14 OFFCURVE",
"558 88 OFFCURVE",
"558 360 CURVE SMOOTH",
"558 440 LINE SMOOTH",
"558 712 OFFCURVE",
"494 814 OFFCURVE",
"300 814 CURVE SMOOTH",
"106 814 OFFCURVE",
"42 712 OFFCURVE",
"42 440 CURVE SMOOTH",
"42 360 LINE SMOOTH",
"42 88 OFFCURVE",
"106 -14 OFFCURVE",
"300 -14 CURVE SMOOTH"
);
},
{
closed = 1;
nodes = (
"514 -168 OFFCURVE",
"547 -130 OFFCURVE",
"620 -141 CURVE",
"620 -49 LINE",
"549 -39 OFFCURVE",
"478 -76 OFFCURVE",
"420 -76 CURVE SMOOTH",
"393 -76 OFFCURVE",
"361 -57 OFFCURVE",
"331 -43 CURVE",
"354 -15 OFFCURVE",
"367 22 OFFCURVE",
"356 48 CURVE",
"268 43 LINE",
"247 -6 OFFCURVE",
"213 -23 OFFCURVE",
"154 -15 CURVE",
"154 -109 LINE",
"207 -109 LINE SMOOTH",
"293 -109 OFFCURVE",
"310 -168 OFFCURVE",
"420 -168 CURVE SMOOTH"
);
},
{
closed = 1;
nodes = (
"180 78 OFFCURVE",
"142 145 OFFCURVE",
"142 360 CURVE SMOOTH",
"142 440 LINE SMOOTH",
"142 655 OFFCURVE",
"178 722 OFFCURVE",
"300 722 CURVE SMOOTH",
"421 722 OFFCURVE",
"458 655 OFFCURVE",
"458 440 CURVE SMOOTH",
"458 360 LINE SMOOTH",
"458 145 OFFCURVE",
"421 78 OFFCURVE",
"300 78 CURVE SMOOTH"
);
}
);
width = 600;
}
);
unicode = 0051;
},
{
color = 4;
glyphname = R;
lastChange = "2020-01-07 07:10:03 +0000";
layers = (
{
anchors = (
{
name = bottom;
position = "{300, 0}";
},
{
name = top;
position = "{300, 800}";
}
);
layerId = "7C079D0C-96CD-4BD8-8800-0621C7635A78";
paths = (
{
closed = 1;
nodes = (
"148 0 LINE",
"148 754 LINE",
"312 754 LINE SMOOTH",
"437 754 OFFCURVE",
"477 712 OFFCURVE",
"477 577 CURVE SMOOTH",
"477 442 OFFCURVE",
"437 400 OFFCURVE",
"312 400 CURVE SMOOTH",
"116 400 LINE",
"116 354 LINE",
"312 354 LINE SMOOTH",
"475 354 OFFCURVE",
"527 408 OFFCURVE",
"527 577 CURVE SMOOTH",
"527 746 OFFCURVE",
"475 800 OFFCURVE",
"312 800 CURVE SMOOTH",
"98 800 LINE",
"98 0 LINE"
);
},
{
closed = 1;
nodes = (
"546 0 LINE",
"301 378 LINE",
"242 378 LINE",
"488 0 LINE"
);
}
);
width = 600;
},
{
anchors = (
{
name = bottom;
position = "{300, 0}";
},
{
name = top;
position = "{300, 800}";
}
);
layerId = "291433DC-531A-45CC-B814-57D397372F12";
paths = (
{
closed = 1;
nodes = (
"173 0 LINE",
"173 708 LINE",
"312 708 LINE SMOOTH",
"422 708 OFFCURVE",
"452 676 OFFCURVE",
"452 564 CURVE SMOOTH",
"452 442 OFFCURVE",
"422 420 OFFCURVE",
"312 420 CURVE SMOOTH",
"101 420 LINE",
"101 328 LINE",
"312 328 LINE SMOOTH",
"489 328 OFFCURVE",
"552 382 OFFCURVE",
"552 564 CURVE SMOOTH",
"552 736 OFFCURVE",
"489 800 OFFCURVE",
"312 800 CURVE SMOOTH",
"73 800 LINE",
"73 0 LINE"
);
},
{
closed = 1;
nodes = (
"590 0 LINE",
"319 394 LINE",
"202 394 LINE",
"474 0 LINE"
);
}
);
width = 600;
}
);
unicode = 0052;
},
{
color = 4;
glyphname = S;
lastChange = "2020-01-07 07:10:03 +0000";
layers = (
{
anchors = (
{
name = bottom;
position = "{300, 0}";
},
{
name = top;
position = "{300, 803}";
}
);
layerId = "7C079D0C-96CD-4BD8-8800-0621C7635A78";
paths = (
{
closed = 1;
nodes = (
"470 -14 OFFCURVE",
"524 41 OFFCURVE",
"524 215 CURVE SMOOTH",
"524 339 OFFCURVE",
"470 395 OFFCURVE",
"300 448 CURVE SMOOTH",
"178 486 OFFCURVE",
"140 524 OFFCURVE",
"140 608 CURVE SMOOTH",
"140 730 OFFCURVE",
"178 768 OFFCURVE",
"300 768 CURVE SMOOTH",
"401 768 OFFCURVE",
"444 748 OFFCURVE",
"478 683 CURVE",
"512 720 LINE",
"469 791 OFFCURVE",
"418 814 OFFCURVE",
"300 814 CURVE SMOOTH",
"140 814 OFFCURVE",
"90 765 OFFCURVE",
"90 608 CURVE SMOOTH",
"90 501 OFFCURVE",
"140 451 OFFCURVE",
"300 398 CURVE SMOOTH",
"432 354 OFFCURVE",
"474 311 OFFCURVE",
"474 215 CURVE SMOOTH",
"474 76 OFFCURVE",
"432 32 OFFCURVE",
"300 32 CURVE SMOOTH",
"188 32 OFFCURVE",
"142 56 OFFCURVE",
"108 130 CURVE",
"71 95 LINE",
"116 12 OFFCURVE",
"171 -14 OFFCURVE",
"300 -14 CURVE SMOOTH"
);
}
);
width = 600;
},
{
anchors = (
{
name = bottom;
position = "{300, 0}";
},
{
name = top;
position = "{300, 803}";
}
);
layerId = "291433DC-531A-45CC-B814-57D397372F12";
paths = (
{
closed = 1;
nodes = (
"485 -14 OFFCURVE",
"549 51 OFFCURVE",
"549 227 CURVE SMOOTH",
"549 362 OFFCURVE",
"488 414 OFFCURVE",
"307 470 CURVE SMOOTH",
"195 505 OFFCURVE",
"165 523 OFFCURVE",
"165 596 CURVE SMOOTH",
"165 694 OFFCURVE",
"192 722 OFFCURVE",
"300 722 CURVE SMOOTH",
"409 722 OFFCURVE",
"436 700 OFFCURVE",
"471 617 CURVE",
"542 694 LINE",
"493 784 OFFCURVE",
"433 814 OFFCURVE",
"300 814 CURVE SMOOTH",
"126 814 OFFCURVE",
"65 755 OFFCURVE",
"65 596 CURVE SMOOTH",
"65 478 OFFCURVE",
"122 432 OFFCURVE",
"292 376 CURVE SMOOTH",
"415 335 OFFCURVE",
"449 312 OFFCURVE",
"449 227 CURVE SMOOTH",
"449 112 OFFCURVE",
"417 78 OFFCURVE",
"300 78 CURVE SMOOTH",
"182 78 OFFCURVE",
"152 103 OFFCURVE",
"118 195 CURVE",
"41 123 LINE",
"91 20 OFFCURVE",
"155 -14 OFFCURVE",
"300 -14 CURVE SMOOTH"
);
}
);
width = 600;
}
);
unicode = 0053;
},
{
color = 4;
glyphname = Germandbls;
lastChange = "2020-01-07 07:10:03 +0000";
layers = (
{
anchors = (
{
name = bottom;
position = "{300, 0}";
},
{
name = top;
position = "{300, 800}";
}
);
layerId = "7C079D0C-96CD-4BD8-8800-0621C7635A78";
paths = (
{
closed = 1;
nodes = (
"86 0 LINE",
"86 567 LINE SMOOTH",
"86 679 OFFCURVE",
"158 754 OFFCURVE",
"267 754 CURVE SMOOTH",
"496 754 LINE",
"294 426 LINE",
"351 426 LINE",
"580 800 LINE",
"273 800 LINE SMOOTH",
"126 800 OFFCURVE",
"36 712 OFFCURVE",
"36 567 CURVE SMOOTH",
"36 0 LINE"
);
},
{
closed = 1;
nodes = (
"530 -14 OFFCURVE",
"580 37 OFFCURVE",
"580 229 CURVE SMOOTH",
"580 411 OFFCURVE",
"530 472 OFFCURVE",
"371 472 CURVE SMOOTH",
"337 472 LINE",
"337 426 LINE",
"371 426 LINE SMOOTH",
"492 426 OFFCURVE",
"530 376 OFFCURVE",
"530 229 CURVE SMOOTH",
"530 72 OFFCURVE",
"492 32 OFFCURVE",
"371 32 CURVE SMOOTH",
"265 32 OFFCURVE",
"232 56 OFFCURVE",
"232 132 CURVE",
"182 132 LINE",
"182 21 OFFCURVE",
"227 -14 OFFCURVE",
"371 -14 CURVE SMOOTH"
);
}
);
width = 600;
},
{
anchors = (
{
name = bottom;
position = "{300, 0}";
},
{
name = top;
position = "{300, 800}";
}
);
layerId = "291433DC-531A-45CC-B814-57D397372F12";
paths = (
{
closed = 1;
nodes = (
"101 0 LINE",
"101 554 LINE SMOOTH",
"101 646 OFFCURVE",
"172 708 OFFCURVE",
"278 708 CURVE SMOOTH",
"427 708 LINE",
"218 382 LINE",
"334 382 LINE",
"599 800 LINE",
"284 800 LINE SMOOTH",
"109 800 OFFCURVE",
"1 707 OFFCURVE",
"1 554 CURVE SMOOTH",
"1 0 LINE"
);
},
{
closed = 1;
nodes = (
"520 -14 OFFCURVE",
"576 37 OFFCURVE",
"576 230 CURVE SMOOTH",
"576 413 OFFCURVE",
"520 474 OFFCURVE",
"342 474 CURVE SMOOTH",
"303 474 LINE",
"303 382 LINE",
"342 382 LINE SMOOTH",
"444 382 OFFCURVE",
"476 343 OFFCURVE",
"476 230 CURVE SMOOTH",
"476 107 OFFCURVE",
"444 78 OFFCURVE",
"342 78 CURVE SMOOTH",
"287 78 OFFCURVE",
"269 100 OFFCURVE",
"269 168 CURVE",
"169 168 LINE",
"169 30 OFFCURVE",
"211 -14 OFFCURVE",
"342 -14 CURVE SMOOTH"
);
}
);
width = 600;
}
);
unicode = 1E9E;
},
{
color = 4;
glyphname = T;
lastChange = "2020-01-07 07:10:03 +0000";
layers = (
{
anchors = (
{
name = bottom;
position = "{300, 0}";
},
{
name = center;
position = "{300, 400}";
},
{
name = top;
position = "{300, 800}";
}
);
layerId = "7C079D0C-96CD-4BD8-8800-0621C7635A78";
paths = (
{
closed = 1;
nodes = (
"325 0 LINE",
"325 800 LINE",
"275 800 LINE",
"275 0 LINE"
);
},
{
closed = 1;
nodes = (
"568 754 LINE",
"568 800 LINE",
"32 800 LINE",
"32 754 LINE"
);
}
);
width = 600;
},
{
anchors = (
{
name = bottom;
position = "{300, 0}";
},
{
name = center;
position = "{300, 400}";
},
{
name = top;
position = "{300, 800}";
}
);
layerId = "291433DC-531A-45CC-B814-57D397372F12";
paths = (
{
closed = 1;
nodes = (
"350 0 LINE",
"350 800 LINE",
"250 800 LINE",
"250 0 LINE"
);
},
{
closed = 1;
nodes = (
"593 708 LINE",
"593 800 LINE",
"7 800 LINE",
"7 708 LINE"
);
}
);
width = 600;
}
);
unicode = 0054;
},
{
color = 4;
glyphname = Tbar;
lastChange = "2020-01-07 07:10:03 +0000";
layers = (
{
components = (
{
name = T;
}
);
layerId = "7C079D0C-96CD-4BD8-8800-0621C7635A78";
paths = (
{
closed = 1;
nodes = (
"490 400 LINE",
"490 446 LINE",
"110 446 LINE",
"110 400 LINE"
);
}
);
width = 600;
},
{
components = (
{
name = T;
}
);
layerId = "291433DC-531A-45CC-B814-57D397372F12";
paths = (
{
closed = 1;
nodes = (
"485 377 LINE",
"485 469 LINE",
"115 469 LINE",
"115 377 LINE"
);
}
);
width = 600;
}
);
unicode = 0166;
},
{
color = 4;
glyphname = U;
lastChange = "2020-06-27 20:12:17 +0000";
layers = (
{
anchors = (
{
name = bottom;
position = "{300, -3}";
},
{
name = ogonek;
position = "{350, -1}";
},
{
name = top;
position = "{300, 803}";
},
{
name = topright;
position = "{605, 803}";
}
);
layerId = "7C079D0C-96CD-4BD8-8800-0621C7635A78";
paths = (
{
closed = 1;
nodes = (
"461 -14 OFFCURVE",
"512 60 OFFCURVE",
"512 293 CURVE SMOOTH",
"512 800 LINE",
"462 800 LINE",
"462 293 LINE SMOOTH",
"462 95 OFFCURVE",
"423 32 OFFCURVE",
"300 32 CURVE SMOOTH",
"177 32 OFFCURVE",
"138 95 OFFCURVE",
"138 293 CURVE SMOOTH",
"138 800 LINE",
"88 800 LINE",
"88 293 LINE SMOOTH",
"88 60 OFFCURVE",
"139 -14 OFFCURVE",
"300 -14 CURVE SMOOTH"
);
}
);
width = 600;
},
{
anchors = (
{
name = bottom;
position = "{300, -3}";
},
{
name = ogonek;
position = "{350, 0}";
},
{
name = top;
position = "{300, 803}";
},
{
name = topright;
position = "{605, 803}";
}
);
layerId = "291433DC-531A-45CC-B814-57D397372F12";
paths = (
{
closed = 1;
nodes = (
"477 -14 OFFCURVE",
"537 72 OFFCURVE",
"537 306 CURVE SMOOTH",
"537 800 LINE",
"437 800 LINE",
"437 306 LINE SMOOTH",
"437 129 OFFCURVE",
"405 78 OFFCURVE",
"300 78 CURVE SMOOTH",
"195 78 OFFCURVE",
"163 129 OFFCURVE",
"163 306 CURVE SMOOTH",
"163 800 LINE",
"63 800 LINE",
"63 306 LINE SMOOTH",
"63 72 OFFCURVE",
"123 -14 OFFCURVE",
"300 -14 CURVE SMOOTH"
);
}
);
width = 600;
}
);
unicode = 0055;
},
{
color = 4;
glyphname = V;
lastChange = "2020-01-07 07:10:03 +0000";
layers = (
{
anchors = (
{
name = bottom;
position = "{300, 0}";
},
{
name = top;
position = "{300, 800}";
}
);
layerId = "7C079D0C-96CD-4BD8-8800-0621C7635A78";
paths = (
{
closed = 1;
nodes = (
"328 0 LINE",
"546 800 LINE",
"492 800 LINE",
"300 90 LINE",
"108 800 LINE",
"54 800 LINE",
"272 0 LINE"
);
}
);
width = 600;
},
{
anchors = (
{
name = bottom;
position = "{300, 0}";
},
{
name = top;
position = "{300, 800}";
}
);
layerId = "291433DC-531A-45CC-B814-57D397372F12";
paths = (
{
closed = 1;
nodes = (
"348 0 LINE",
"578 800 LINE",
"472 800 LINE",
"300 185 LINE",
"128 800 LINE",
"22 800 LINE",
"252 0 LINE"
);
}
);
width = 600;
}
);
unicode = 0056;
},
{
color = 4;
glyphname = W;
lastChange = "2020-01-07 07:10:03 +0000";
layers = (
{
anchors = (
{
name = bottom;
position = "{300, -3}";
},
{
name = top;
position = "{300, 803}";
}
);
layerId = "7C079D0C-96CD-4BD8-8800-0621C7635A78";
paths = (
{
closed = 1;
nodes = (
"193 0 LINE",
"300 445 LINE",
"407 0 LINE",
"458 0 LINE",
"565 800 LINE",
"514 800 LINE",
"425 115 LINE",
"325 536 LINE",
"275 536 LINE",
"175 115 LINE",
"86 800 LINE",
"35 800 LINE",
"142 0 LINE"
);
}
);
width = 600;
},
{
anchors = (
{
name = bottom;
position = "{300, -3}";
},
{
name = top;
position = "{300, 803}";
}
);
layerId = "291433DC-531A-45CC-B814-57D397372F12";
paths = (
{
closed = 1;
nodes = (
"218 0 LINE",
"300 339 LINE",
"387 0 LINE",
"480 0 LINE",
"593 800 LINE",
"492 800 LINE",
"418 253 LINE",
"345 559 LINE",
"255 559 LINE",
"182 253 LINE",
"108 800 LINE",
"7 800 LINE",
"120 0 LINE"
);
}
);
width = 600;
}
);
unicode = 0057;
},
{
color = 4;
glyphname = X;
lastChange = "2020-01-07 07:10:03 +0000";
layers = (
{
anchors = (
{
name = bottom;
position = "{300, 0}";
},
{
name = top;
position = "{300, 800}";
}
);
layerId = "7C079D0C-96CD-4BD8-8800-0621C7635A78";
paths = (
{
closed = 1;
nodes = (
"61 800 LINE",
"116 800 LINE",
"539 0 LINE",
"484 0 LINE"
);
},
{
closed = 1;
nodes = (
"484 800 LINE",
"539 800 LINE",
"116 0 LINE",
"61 0 LINE"
);
}
);
width = 600;
},
{
anchors = (
{
name = bottom;
position = "{300, 0}";
},
{
name = top;
position = "{300, 800}";
}
);
layerId = "291433DC-531A-45CC-B814-57D397372F12";
paths = (
{
closed = 1;
nodes = (
"21 800 LINE",
"132 800 LINE",
"579 0 LINE",
"468 0 LINE"
);
},
{
closed = 1;
nodes = (
"468 800 LINE",
"579 800 LINE",
"132 0 LINE",
"21 0 LINE"
);
}
);
width = 600;
}
);
unicode = 0058;
},
{
color = 4;
glyphname = Y;
lastChange = "2020-01-07 07:10:03 +0000";
layers = (
{
anchors = (
{
name = bottom;
position = "{300, -3}";
},
{
name = top;
position = "{300, 803}";
},
{
name = topleft;
position = "{-5, 803}";
}
);
layerId = "7C079D0C-96CD-4BD8-8800-0621C7635A78";
paths = (
{
closed = 1;
nodes = (
"325 0 LINE",
"325 308 LINE",
"558 800 LINE",
"503 800 LINE",
"300 370 LINE",
"97 800 LINE",
"42 800 LINE",
"275 308 LINE",
"275 0 LINE"
);
}
);
width = 600;
},
{
anchors = (
{
name = bottom;
position = "{300, -3}";
},
{
name = top;
position = "{300, 803}";
},
{
name = topleft;
position = "{-5, 803}";
}
);
layerId = "291433DC-531A-45CC-B814-57D397372F12";
paths = (
{
closed = 1;
nodes = (
"350 0 LINE",
"350 293 LINE",
"596 800 LINE",
"487 800 LINE",
"300 418 LINE",
"113 800 LINE",
"4 800 LINE",
"250 293 LINE",
"250 0 LINE"
);
}
);
width = 600;
}
);
unicode = 0059;
},
{
color = 4;
glyphname = Z;
lastChange = "2020-01-07 07:10:03 +0000";
layers = (
{
anchors = (
{
name = bottom;
position = "{300, 0}";
},
{
name = center;
position = "{300, 400}";
},
{
name = top;
position = "{300, 800}";
}
);
layerId = "7C079D0C-96CD-4BD8-8800-0621C7635A78";
paths = (
{
closed = 1;
nodes = (
"539 0 LINE",
"539 46 LINE",
"118 46 LINE",
"541 758 LINE",
"541 800 LINE",
"61 800 LINE",
"61 754 LINE",
"482 754 LINE",
"59 41 LINE",
"59 0 LINE"
);
}
);
width = 600;
},
{
anchors = (
{
name = bottom;
position = "{300, 0}";
},
{
name = center;
position = "{300, 400}";
},
{
name = top;
position = "{300, 800}";
}
);
layerId = "291433DC-531A-45CC-B814-57D397372F12";
paths = (
{
closed = 1;
nodes = (
"564 0 LINE",
"564 92 LINE",
"160 92 LINE",
"566 729 LINE",
"566 800 LINE",
"36 800 LINE",
"36 708 LINE",
"440 708 LINE",
"34 70 LINE",
"34 0 LINE"
);
}
);
width = 600;
}
);
unicode = 005A;
},
{
color = 4;
glyphname = a;
lastChange = "2020-01-07 07:10:03 +0000";
layers = (
{
anchors = (
{
name = bottom;
position = "{300, 0}";
},
{
name = ogonek;
position = "{535, 0}";
},
{
name = top;
position = "{300, 618}";
}
);
layerId = "7C079D0C-96CD-4BD8-8800-0621C7635A78";
paths = (
{
closed = 1;
nodes = (
"370 -14 OFFCURVE",
"412 10 OFFCURVE",
"448 85 CURVE",
"460 20 OFFCURVE",
"487 0 OFFCURVE",
"560 0 CURVE",
"560 46 LINE",
"501 46 OFFCURVE",
"482 72 OFFCURVE",
"482 156 CURVE SMOOTH",
"482 419 LINE SMOOTH",
"482 581 OFFCURVE",
"432 632 OFFCURVE",
"274 632 CURVE SMOOTH",
"159 632 OFFCURVE",
"113 600 OFFCURVE",
"82 498 CURVE",
"130 486 LINE",
"153 562 OFFCURVE",
"188 586 OFFCURVE",
"274 586 CURVE SMOOTH",
"394 586 OFFCURVE",
"432 546 OFFCURVE",
"432 419 CURVE SMOOTH",
"432 354 LINE",
"274 354 LINE SMOOTH",
"116 354 OFFCURVE",
"66 309 OFFCURVE",
"66 166 CURVE SMOOTH",
"66 29 OFFCURVE",
"116 -14 OFFCURVE",
"274 -14 CURVE SMOOTH"
);
},
{
closed = 1;
nodes = (
"154 32 OFFCURVE",
"116 64 OFFCURVE",
"116 166 CURVE SMOOTH",
"116 274 OFFCURVE",
"154 308 OFFCURVE",
"274 308 CURVE SMOOTH",
"432 308 LINE",
"432 216 LINE SMOOTH",
"432 76 OFFCURVE",
"394 32 OFFCURVE",
"274 32 CURVE SMOOTH"
);
}
);
width = 600;
},
{
anchors = (
{
name = bottom;
position = "{300, 0}";
},
{
name = ogonek;
position = "{527, 1}";
},
{
name = top;
position = "{300, 618}";
}
);
layerId = "291433DC-531A-45CC-B814-57D397372F12";
paths = (
{
closed = 1;
nodes = (
"356 -14 OFFCURVE",
"405 3 OFFCURVE",
"442 50 CURVE",
"465 10 OFFCURVE",
"509 -3 OFFCURVE",
"585 1 CURVE",
"585 93 LINE",
"521 89 OFFCURVE",
"507 94 OFFCURVE",
"507 168 CURVE SMOOTH",
"507 409 LINE SMOOTH",
"507 561 OFFCURVE",
"447 632 OFFCURVE",
"274 632 CURVE SMOOTH",
"140 632 OFFCURVE",
"85 578 OFFCURVE",
"52 449 CURVE",
"148 425 LINE",
"169 509 OFFCURVE",
"191 530 OFFCURVE",
"274 530 CURVE SMOOTH",
"379 530 OFFCURVE",
"407 501 OFFCURVE",
"407 409 CURVE SMOOTH",
"407 377 LINE",
"274 377 LINE SMOOTH",
"102 377 OFFCURVE",
"41 334 OFFCURVE",
"41 178 CURVE SMOOTH",
"41 39 OFFCURVE",
"102 -14 OFFCURVE",
"274 -14 CURVE SMOOTH"
);
},
{
closed = 1;
nodes = (
"167 78 OFFCURVE",
"141 101 OFFCURVE",
"141 178 CURVE SMOOTH",
"141 273 OFFCURVE",
"168 285 OFFCURVE",
"274 285 CURVE SMOOTH",
"407 285 LINE",
"407 226 LINE SMOOTH",
"407 111 OFFCURVE",
"379 78 OFFCURVE",
"274 78 CURVE SMOOTH"
);
}
);
width = 600;
}
);
unicode = 0061;
},
{
color = 4;
glyphname = ae;
lastChange = "2020-06-28 16:46:13 +0000";
layers = (
{
anchors = (
{
name = bottom;
position = "{300, 0}";
},
{
name = top;
position = "{300, 618}";
}
);
background = {
paths = (
{
closed = 1;
nodes = (
"387 638 OFFCURVE",
"347 602 OFFCURVE",
"332 525 CURVE",
"307 602 OFFCURVE",
"262 638 OFFCURVE",
"192 638 CURVE SMOOTH",
"119 638 OFFCURVE",
"72 594 OFFCURVE",
"45 499 CURVE",
"101 485 LINE",
"121 554 OFFCURVE",
"150 586 OFFCURVE",
"192 586 CURVE SMOOTH",
"263 586 OFFCURVE",
"296 534 OFFCURVE",
"296 422 CURVE SMOOTH",
"296 351 LINE",
"192 351 LINE SMOOTH",
"82 351 OFFCURVE",
"30 293 OFFCURVE",
"30 169 CURVE SMOOTH",
"30 45 OFFCURVE",
"82 -14 OFFCURVE",
"192 -14 CURVE SMOOTH",
"258 -14 OFFCURVE",
"303 24 OFFCURVE",
"332 104 CURVE",
"346 24 OFFCURVE",
"386 -14 OFFCURVE",
"456 -14 CURVE SMOOTH",
"503 -14 OFFCURVE",
"549 19 OFFCURVE",
"600 90 CURVE",
"554 121 LINE",
"511 65 OFFCURVE",
"479 38 OFFCURVE",
"456 38 CURVE SMOOTH",
"390 38 OFFCURVE",
"357 122 OFFCURVE",
"354 299 CURVE",
"620 299 LINE",
"621 530 OFFCURVE",
"569 638 OFFCURVE",
"456 638 CURVE SMOOTH"
);
},
{
closed = 1;
nodes = (
"364 511 OFFCURVE",
"396 586 OFFCURVE",
"456 586 CURVE SMOOTH",
"518 586 OFFCURVE",
"552 511 OFFCURVE",
"561 351 CURVE",
"355 351 LINE"
);
},
{
closed = 1;
nodes = (
"296 96 OFFCURVE",
"263 38 OFFCURVE",
"192 38 CURVE SMOOTH",
"121 38 OFFCURVE",
"88 80 OFFCURVE",
"88 169 CURVE SMOOTH",
"88 257 OFFCURVE",
"121 299 OFFCURVE",
"192 299 CURVE SMOOTH",
"296 299 LINE",
"296 219 LINE SMOOTH"
);
}
);
};
layerId = "7C079D0C-96CD-4BD8-8800-0621C7635A78";
paths = (
{
closed = 1;
nodes = (
"241 -14 OFFCURVE",
"286 14 OFFCURVE",
"303 99 CURVE",
"329 14 OFFCURVE",
"371 -14 OFFCURVE",
"439 -14 CURVE SMOOTH",
"512 -14 OFFCURVE",
"553 10 OFFCURVE",
"580 86 CURVE",
"539 113 LINE",
"515 51 OFFCURVE",
"484 32 OFFCURVE",
"439 32 CURVE SMOOTH",
"352 32 OFFCURVE",
"324 98 OFFCURVE",
"324 308 CURVE",
"584 308 LINE",
"584 554 OFFCURVE",
"549 632 OFFCURVE",
"439 632 CURVE SMOOTH",
"357 632 OFFCURVE",
"325 603 OFFCURVE",
"303 519 CURVE",
"285 603 OFFCURVE",
"240 632 OFFCURVE",
"160 632 CURVE SMOOTH",
"79 632 OFFCURVE",
"47 600 OFFCURVE",
"26 498 CURVE",
"76 486 LINE",
"91 562 OFFCURVE",
"111 586 OFFCURVE",
"160 586 CURVE SMOOTH",
"247 586 OFFCURVE",
"274 546 OFFCURVE",
"274 419 CURVE SMOOTH",
"274 354 LINE",
"190 354 LINE SMOOTH",
"58 354 OFFCURVE",
"16 309 OFFCURVE",
"16 166 CURVE SMOOTH",
"16 29 OFFCURVE",
"51 -14 OFFCURVE",
"160 -14 CURVE SMOOTH"
);
},
{
closed = 1;
nodes = (
"89 32 OFFCURVE",
"66 64 OFFCURVE",
"66 166 CURVE SMOOTH",
"66 274 OFFCURVE",
"96 308 OFFCURVE",
"190 308 CURVE SMOOTH",
"274 308 LINE",
"274 216 LINE SMOOTH",
"274 76 OFFCURVE",
"247 32 OFFCURVE",
"160 32 CURVE SMOOTH"
);
},
{
closed = 1;
nodes = (
"324 530 OFFCURVE",
"352 586 OFFCURVE",
"439 586 CURVE SMOOTH",
"511 586 OFFCURVE",
"534 530 OFFCURVE",
"534 354 CURVE",
"324 354 LINE"
);
}
);
width = 600;
},
{
anchors = (
{
name = bottom;
position = "{300, 0}";
},
{
name = top;
position = "{300, 618}";
}
);
background = {
paths = (
{
closed = 1;
nodes = (
"387 638 OFFCURVE",
"347 602 OFFCURVE",
"332 525 CURVE",
"307 602 OFFCURVE",
"262 638 OFFCURVE",
"192 638 CURVE SMOOTH",
"119 638 OFFCURVE",
"72 594 OFFCURVE",
"45 499 CURVE",
"101 485 LINE",
"121 554 OFFCURVE",
"150 586 OFFCURVE",
"192 586 CURVE SMOOTH",
"263 586 OFFCURVE",
"296 534 OFFCURVE",
"296 422 CURVE SMOOTH",
"296 351 LINE",
"192 351 LINE SMOOTH",
"82 351 OFFCURVE",
"30 293 OFFCURVE",
"30 169 CURVE SMOOTH",
"30 45 OFFCURVE",
"82 -14 OFFCURVE",
"192 -14 CURVE SMOOTH",
"258 -14 OFFCURVE",
"303 24 OFFCURVE",
"332 104 CURVE",
"346 24 OFFCURVE",
"386 -14 OFFCURVE",
"456 -14 CURVE SMOOTH",
"503 -14 OFFCURVE",
"549 19 OFFCURVE",
"600 90 CURVE",
"554 121 LINE",
"511 65 OFFCURVE",
"479 38 OFFCURVE",
"456 38 CURVE SMOOTH",
"390 38 OFFCURVE",
"357 122 OFFCURVE",
"354 299 CURVE",
"620 299 LINE",
"621 530 OFFCURVE",
"569 638 OFFCURVE",
"456 638 CURVE SMOOTH"
);
},
{
closed = 1;
nodes = (
"364 511 OFFCURVE",
"396 586 OFFCURVE",
"456 586 CURVE SMOOTH",
"518 586 OFFCURVE",
"552 511 OFFCURVE",
"561 351 CURVE",
"355 351 LINE"
);
},
{
closed = 1;
nodes = (
"296 96 OFFCURVE",
"263 38 OFFCURVE",
"192 38 CURVE SMOOTH",
"121 38 OFFCURVE",
"88 80 OFFCURVE",
"88 169 CURVE SMOOTH",
"88 257 OFFCURVE",
"121 299 OFFCURVE",
"192 299 CURVE SMOOTH",
"296 299 LINE",
"296 219 LINE SMOOTH"
);
}
);
};
layerId = "291433DC-531A-45CC-B814-57D397372F12";
paths = (
{
closed = 1;
nodes = (
"236 -14 OFFCURVE",
"275 7 OFFCURVE",
"304 61 CURVE",
"337 7 OFFCURVE",
"372 -14 OFFCURVE",
"434 -14 CURVE SMOOTH",
"518 -14 OFFCURVE",
"568 20 OFFCURVE",
"602 117 CURVE",
"521 170 LINE",
"491 95 OFFCURVE",
"466 78 OFFCURVE",
"434 78 CURVE SMOOTH",
"370 78 OFFCURVE",
"351 129 OFFCURVE",
"349 285 CURVE",
"600 285 LINE",
"602 537 OFFCURVE",
"562 632 OFFCURVE",
"434 632 CURVE SMOOTH",
"364 632 OFFCURVE",
"327 613 OFFCURVE",
"300 564 CURVE",
"271 613 OFFCURVE",
"233 632 OFFCURVE",
"164 632 CURVE SMOOTH",
"69 632 OFFCURVE",
"29 587 OFFCURVE",
"6 458 CURVE",
"105 434 LINE",
"120 523 OFFCURVE",
"132 540 OFFCURVE",
"164 540 CURVE SMOOTH",
"234 540 OFFCURVE",
"249 512 OFFCURVE",
"249 416 CURVE SMOOTH",
"249 377 LINE",
"194 377 LINE SMOOTH",
"52 377 OFFCURVE",
"0 332 OFFCURVE",
"0 177 CURVE SMOOTH",
"0 40 OFFCURVE",
"44 -14 OFFCURVE",
"164 -14 CURVE SMOOTH"
);
},
{
closed = 1;
nodes = (
"115 78 OFFCURVE",
"100 98 OFFCURVE",
"100 177 CURVE SMOOTH",
"100 273 OFFCURVE",
"120 285 OFFCURVE",
"194 285 CURVE SMOOTH",
"249 285 LINE",
"249 227 LINE SMOOTH",
"249 109 OFFCURVE",
"233 78 OFFCURVE",
"164 78 CURVE SMOOTH"
);
},
{
closed = 1;
nodes = (
"351 500 OFFCURVE",
"369 540 OFFCURVE",
"434 540 CURVE SMOOTH",
"479 540 OFFCURVE",
"498 500 OFFCURVE",
"500 377 CURVE",
"349 377 LINE"
);
}
);
width = 600;
}
);
unicode = 00E6;
},
{
color = 4;
glyphname = b;
lastChange = "2020-01-07 07:10:03 +0000";
layers = (
{
anchors = (
{
name = bottom;
position = "{300, 0}";
},
{
name = top;
position = "{300, 1000}";
}
);
layerId = "7C079D0C-96CD-4BD8-8800-0621C7635A78";
paths = (
{
closed = 1;
nodes = (
"470 -14 OFFCURVE",
"520 63 OFFCURVE",
"520 308 CURVE SMOOTH",
"520 554 OFFCURVE",
"470 632 OFFCURVE",
"312 632 CURVE SMOOTH",
"239 632 OFFCURVE",
"181 611 OFFCURVE",
"153 546 CURVE",
"153 800 LINE",
"103 800 LINE",
"103 72 LINE",
"157 7 OFFCURVE",
"207 -14 OFFCURVE",
"312 -14 CURVE SMOOTH"
);
},
{
closed = 1;
nodes = (
"233 32 OFFCURVE",
"195 45 OFFCURVE",
"153 87 CURVE",
"153 414 LINE SMOOTH",
"153 545 OFFCURVE",
"191 586 OFFCURVE",
"312 586 CURVE SMOOTH",
"432 586 OFFCURVE",
"470 519 OFFCURVE",
"470 308 CURVE SMOOTH",
"470 98 OFFCURVE",
"432 32 OFFCURVE",
"312 32 CURVE SMOOTH"
);
}
);
width = 600;
},
{
anchors = (
{
name = bottom;
position = "{300, 0}";
},
{
name = top;
position = "{300, 1000}";
}
);
layerId = "291433DC-531A-45CC-B814-57D397372F12";
paths = (
{
closed = 1;
nodes = (
"487 -14 OFFCURVE",
"545 75 OFFCURVE",
"545 308 CURVE SMOOTH",
"545 542 OFFCURVE",
"487 632 OFFCURVE",
"312 632 CURVE SMOOTH",
"255 632 OFFCURVE",
"211 620 OFFCURVE",
"178 595 CURVE",
"178 800 LINE",
"78 800 LINE",
"78 87 LINE",
"138 12 OFFCURVE",
"197 -14 OFFCURVE",
"312 -14 CURVE SMOOTH"
);
},
{
closed = 1;
nodes = (
"243 78 OFFCURVE",
"213 87 OFFCURVE",
"178 119 CURVE",
"178 391 LINE SMOOTH",
"178 510 OFFCURVE",
"206 540 OFFCURVE",
"312 540 CURVE SMOOTH",
"414 540 OFFCURVE",
"445 485 OFFCURVE",
"445 308 CURVE SMOOTH",
"445 132 OFFCURVE",
"414 78 OFFCURVE",
"312 78 CURVE SMOOTH"
);
}
);
width = 600;
}
);
unicode = 0062;
},
{
color = 4;
glyphname = c;
lastChange = "2020-01-07 07:10:03 +0000";
layers = (
{
anchors = (
{
name = bottom;
position = "{300, 0}";
},
{
name = top;
position = "{300, 618}";
}
);
layerId = "7C079D0C-96CD-4BD8-8800-0621C7635A78";
paths = (
{
closed = 1;
nodes = (
"415 -14 OFFCURVE",
"463 11 OFFCURVE",
"517 89 CURVE",
"475 114 LINE",
"430 52 OFFCURVE",
"392 32 OFFCURVE",
"318 32 CURVE SMOOTH",
"177 32 OFFCURVE",
"133 98 OFFCURVE",
"133 309 CURVE SMOOTH",
"133 520 OFFCURVE",
"178 586 OFFCURVE",
"322 586 CURVE SMOOTH",
"396 586 OFFCURVE",
"432 567 OFFCURVE",
"475 505 CURVE",
"517 530 LINE",
"464 608 OFFCURVE",
"418 632 OFFCURVE",
"322 632 CURVE SMOOTH",
"140 632 OFFCURVE",
"83 554 OFFCURVE",
"83 309 CURVE SMOOTH",
"83 64 OFFCURVE",
"139 -14 OFFCURVE",
"318 -14 CURVE SMOOTH"
);
}
);
width = 600;
},
{
anchors = (
{
name = bottom;
position = "{300, 0}";
},
{
name = top;
position = "{300, 618}";
}
);
layerId = "291433DC-531A-45CC-B814-57D397372F12";
paths = (
{
closed = 1;
nodes = (
"431 -14 OFFCURVE",
"488 20 OFFCURVE",
"551 119 CURVE",
"468 169 LINE",
"419 97 OFFCURVE",
"390 78 OFFCURVE",
"318 78 CURVE SMOOTH",
"194 78 OFFCURVE",
"158 132 OFFCURVE",
"158 309 CURVE SMOOTH",
"158 486 OFFCURVE",
"195 540 OFFCURVE",
"322 540 CURVE SMOOTH",
"395 540 OFFCURVE",
"421 522 OFFCURVE",
"467 450 CURVE",
"551 500 LINE",
"489 599 OFFCURVE",
"434 632 OFFCURVE",
"322 632 CURVE SMOOTH",
"124 632 OFFCURVE",
"58 543 OFFCURVE",
"58 309 CURVE SMOOTH",
"58 75 OFFCURVE",
"123 -14 OFFCURVE",
"318 -14 CURVE SMOOTH"
);
}
);
width = 600;
}
);
unicode = 0063;
},
{
color = 4;
glyphname = d;
lastChange = "2020-01-07 07:10:03 +0000";
layers = (
{
anchors = (
{
name = bottom;
position = "{300, 0}";
},
{
name = center;
position = "{300, 309}";
},
{
name = top;
position = "{300, 1000}";
},
{
name = topright;
position = "{580, 618}";
}
);
layerId = "7C079D0C-96CD-4BD8-8800-0621C7635A78";
paths = (
{
closed = 1;
nodes = (
"372 -14 OFFCURVE",
"432 2 OFFCURVE",
"461 52 CURVE",
"461 0 LINE",
"511 0 LINE",
"511 800 LINE",
"461 800 LINE",
"461 542 LINE",
"434 610 OFFCURVE",
"374 632 OFFCURVE",
"295 632 CURVE SMOOTH",
"132 632 OFFCURVE",
"80 554 OFFCURVE",
"80 308 CURVE SMOOTH",
"80 63 OFFCURVE",
"132 -14 OFFCURVE",
"295 -14 CURVE SMOOTH"
);
},
{
closed = 1;
nodes = (
"170 32 OFFCURVE",
"130 98 OFFCURVE",
"130 308 CURVE SMOOTH",
"130 519 OFFCURVE",
"170 586 OFFCURVE",
"295 586 CURVE SMOOTH",
"393 586 OFFCURVE",
"461 542 OFFCURVE",
"461 416 CURVE SMOOTH",
"461 120 LINE SMOOTH",
"461 52 OFFCURVE",
"382 32 OFFCURVE",
"295 32 CURVE SMOOTH"
);
}
);
width = 600;
},
{
anchors = (
{
name = bottom;
position = "{300, 0}";
},
{
name = center;
position = "{300, 309}";
},
{
name = top;
position = "{300, 1000}";
},
{
name = topright;
position = "{580, 618}";
}
);
layerId = "291433DC-531A-45CC-B814-57D397372F12";
paths = (
{
closed = 1;
nodes = (
"355 -14 OFFCURVE",
"402 -4 OFFCURVE",
"436 17 CURVE",
"436 0 LINE",
"536 0 LINE",
"536 800 LINE",
"436 800 LINE",
"436 593 LINE",
"402 619 OFFCURVE",
"355 632 OFFCURVE",
"295 632 CURVE SMOOTH",
"115 632 OFFCURVE",
"55 542 OFFCURVE",
"55 308 CURVE SMOOTH",
"55 75 OFFCURVE",
"115 -14 OFFCURVE",
"295 -14 CURVE SMOOTH"
);
},
{
closed = 1;
nodes = (
"188 78 OFFCURVE",
"155 132 OFFCURVE",
"155 308 CURVE SMOOTH",
"155 485 OFFCURVE",
"188 540 OFFCURVE",
"295 540 CURVE SMOOTH",
"392 540 OFFCURVE",
"436 494 OFFCURVE",
"436 393 CURVE SMOOTH",
"436 143 LINE SMOOTH",
"436 101 OFFCURVE",
"390 78 OFFCURVE",
"295 78 CURVE SMOOTH"
);
}
);
width = 600;
}
);
unicode = 0064;
},
{
color = 4;
glyphname = eth;
lastChange = "2020-01-07 07:10:03 +0000";
layers = (
{
layerId = "7C079D0C-96CD-4BD8-8800-0621C7635A78";
paths = (
{
closed = 1;
nodes = (
"471 -14 OFFCURVE",
"525 49 OFFCURVE",
"525 249 CURVE SMOOTH",
"525 449 OFFCURVE",
"471 512 OFFCURVE",
"300 512 CURVE SMOOTH",
"129 512 OFFCURVE",
"75 449 OFFCURVE",
"75 249 CURVE SMOOTH",
"75 49 OFFCURVE",
"129 -14 OFFCURVE",
"300 -14 CURVE SMOOTH"
);
},
{
closed = 1;
nodes = (
"167 32 OFFCURVE",
"125 84 OFFCURVE",
"125 249 CURVE SMOOTH",
"125 414 OFFCURVE",
"167 466 OFFCURVE",
"300 466 CURVE SMOOTH",
"433 466 OFFCURVE",
"475 414 OFFCURVE",
"475 249 CURVE SMOOTH",
"475 84 OFFCURVE",
"433 32 OFFCURVE",
"300 32 CURVE SMOOTH"
);
},
{
closed = 1;
nodes = (
"525 249 LINE",
"525 630 OFFCURVE",
"365 800 OFFCURVE",
"147 800 CURVE",
"147 754 LINE",
"334 754 OFFCURVE",
"475 601 OFFCURVE",
"475 249 CURVE"
);
},
{
closed = 1;
nodes = (
"493 760 LINE",
"469 800 LINE",
"176 638 LINE",
"200 598 LINE"
);
}
);
width = 600;
},
{
layerId = "291433DC-531A-45CC-B814-57D397372F12";
paths = (
{
closed = 1;
nodes = (
"486 -14 OFFCURVE",
"550 60 OFFCURVE",
"550 249 CURVE SMOOTH",
"550 439 OFFCURVE",
"486 513 OFFCURVE",
"300 513 CURVE SMOOTH",
"114 513 OFFCURVE",
"50 439 OFFCURVE",
"50 249 CURVE SMOOTH",
"50 60 OFFCURVE",
"114 -14 OFFCURVE",
"300 -14 CURVE SMOOTH"
);
},
{
closed = 1;
nodes = (
"183 78 OFFCURVE",
"150 119 OFFCURVE",
"150 249 CURVE SMOOTH",
"150 380 OFFCURVE",
"183 421 OFFCURVE",
"300 421 CURVE SMOOTH",
"417 421 OFFCURVE",
"450 380 OFFCURVE",
"450 249 CURVE SMOOTH",
"450 119 OFFCURVE",
"417 78 OFFCURVE",
"300 78 CURVE SMOOTH"
);
},
{
closed = 1;
nodes = (
"550 236 LINE",
"556 603 OFFCURVE",
"398 815 OFFCURVE",
"122 800 CURVE",
"122 708 LINE",
"334 724 OFFCURVE",
"456 550 OFFCURVE",
"450 236 CURVE"
);
},
{
closed = 1;
nodes = (
"527 720 LINE",
"478 800 LINE",
"142 614 LINE",
"191 534 LINE"
);
}
);
width = 600;
}
);
unicode = 00F0;
},
{
color = 4;
glyphname = dcaron;
lastChange = "2020-01-07 07:10:03 +0000";
layers = (
{
components = (
{
name = quotesingle;
transform = "{0.8, 0, 0, 0.8, 308, 160}";
}
);
layerId = "7C079D0C-96CD-4BD8-8800-0621C7635A78";
paths = (
{
closed = 1;
nodes = (
"322 -14 OFFCURVE",
"382 2 OFFCURVE",
"411 52 CURVE",
"411 0 LINE",
"461 0 LINE",
"461 800 LINE",
"411 800 LINE",
"411 542 LINE",
"384 610 OFFCURVE",
"324 632 OFFCURVE",
"255 632 CURVE SMOOTH",
"102 632 OFFCURVE",
"50 554 OFFCURVE",
"50 308 CURVE SMOOTH",
"50 63 OFFCURVE",
"102 -14 OFFCURVE",
"255 -14 CURVE SMOOTH"
);
},
{
closed = 1;
nodes = (
"140 32 OFFCURVE",
"100 98 OFFCURVE",
"100 308 CURVE SMOOTH",
"100 519 OFFCURVE",
"140 586 OFFCURVE",
"255 586 CURVE SMOOTH",
"343 586 OFFCURVE",
"411 542 OFFCURVE",
"411 416 CURVE SMOOTH",
"411 120 LINE SMOOTH",
"411 52 OFFCURVE",
"332 32 OFFCURVE",
"255 32 CURVE SMOOTH"
);
}
);
width = 600;
},
{
components = (
{
name = quotesingle;
transform = "{0.8, 0, 0, 0.8, 306, 160}";
}
);
layerId = "291433DC-531A-45CC-B814-57D397372F12";
paths = (
{
closed = 1;
nodes = (
"275 -14 OFFCURVE",
"312 -4 OFFCURVE",
"346 17 CURVE",
"346 0 LINE",
"446 0 LINE",
"446 800 LINE",
"346 800 LINE",
"346 593 LINE",
"312 619 OFFCURVE",
"275 632 OFFCURVE",
"225 632 CURVE SMOOTH",
"65 632 OFFCURVE",
"5 542 OFFCURVE",
"5 308 CURVE SMOOTH",
"5 75 OFFCURVE",
"65 -14 OFFCURVE",
"225 -14 CURVE SMOOTH"
);
},
{
closed = 1;
nodes = (
"138 78 OFFCURVE",
"105 132 OFFCURVE",
"105 308 CURVE SMOOTH",
"105 485 OFFCURVE",
"138 540 OFFCURVE",
"225 540 CURVE SMOOTH",
"302 540 OFFCURVE",
"346 494 OFFCURVE",
"346 393 CURVE SMOOTH",
"346 143 LINE SMOOTH",
"346 101 OFFCURVE",
"300 78 OFFCURVE",
"225 78 CURVE SMOOTH"
);
}
);
width = 600;
}
);
unicode = 010F;
},
{
color = 4;
glyphname = dcroat;
lastChange = "2020-01-07 07:10:03 +0000";
layers = (
{
components = (
{
name = d;
}
);
layerId = "7C079D0C-96CD-4BD8-8800-0621C7635A78";
paths = (
{
closed = 1;
nodes = (
"570 682 LINE",
"570 728 LINE",
"330 728 LINE",
"330 682 LINE"
);
}
);
width = 600;
},
{
components = (
{
name = d;
}
);
layerId = "291433DC-531A-45CC-B814-57D397372F12";
paths = (
{
closed = 1;
nodes = (
"595 657 LINE",
"595 749 LINE",
"300 749 LINE",
"300 657 LINE"
);
}
);
width = 600;
}
);
unicode = 0111;
},
{
color = 4;
glyphname = e;
lastChange = "2020-01-07 07:10:03 +0000";
layers = (
{
anchors = (
{
name = bottom;
position = "{300, 0}";
},
{
name = ogonek;
position = "{378, 0}";
},
{
name = top;
position = "{300, 618}";
}
);
layerId = "7C079D0C-96CD-4BD8-8800-0621C7635A78";
paths = (
{
closed = 1;
nodes = (
"403 -14 OFFCURVE",
"452 10 OFFCURVE",
"508 86 CURVE",
"468 113 LINE",
"419 51 OFFCURVE",
"380 32 OFFCURVE",
"303 32 CURVE SMOOTH",
"165 32 OFFCURVE",
"121 101 OFFCURVE",
"121 318 CURVE SMOOTH",
"121 522 OFFCURVE",
"165 586 OFFCURVE",
"303 586 CURVE SMOOTH",
"419 586 OFFCURVE",
"459 530 OFFCURVE",
"468 354 CURVE",
"100 354 LINE",
"100 308 LINE",
"519 308 LINE",
"519 554 OFFCURVE",
"467 632 OFFCURVE",
"303 632 CURVE SMOOTH",
"127 632 OFFCURVE",
"71 554 OFFCURVE",
"71 309 CURVE SMOOTH",
"71 64 OFFCURVE",
"127 -14 OFFCURVE",
"303 -14 CURVE SMOOTH"
);
}
);
width = 600;
},
{
anchors = (
{
name = bottom;
position = "{300, 0}";
},
{
name = ogonek;
position = "{352, 0}";
},
{
name = top;
position = "{300, 618}";
}
);
layerId = "291433DC-531A-45CC-B814-57D397372F12";
paths = (
{
closed = 1;
nodes = (
"418 -14 OFFCURVE",
"477 19 OFFCURVE",
"542 115 CURVE",
"462 168 LINE",
"409 96 OFFCURVE",
"380 78 OFFCURVE",
"303 78 CURVE SMOOTH",
"183 78 OFFCURVE",
"146 135 OFFCURVE",
"146 318 CURVE SMOOTH",
"146 488 OFFCURVE",
"182 540 OFFCURVE",
"303 540 CURVE SMOOTH",
"398 540 OFFCURVE",
"431 500 OFFCURVE",
"442 377 CURVE",
"75 377 LINE",
"75 285 LINE",
"544 285 LINE",
"547 537 OFFCURVE",
"489 632 OFFCURVE",
"303 632 CURVE SMOOTH",
"111 632 OFFCURVE",
"46 542 OFFCURVE",
"46 309 CURVE SMOOTH",
"46 76 OFFCURVE",
"111 -14 OFFCURVE",
"303 -14 CURVE SMOOTH"
);
}
);
width = 600;
}
);
unicode = 0065;
},
{
color = 4;
glyphname = f;
lastChange = "2020-01-07 07:10:03 +0000";
layers = (
{
anchors = (
{
name = bottom;
position = "{300, 0}";
},
{
name = top;
position = "{300, 1000}";
}
);
layerId = "7C079D0C-96CD-4BD8-8800-0621C7635A78";
paths = (
{
closed = 1;
nodes = (
"242 0 LINE",
"242 610 LINE SMOOTH",
"242 730 OFFCURVE",
"276 768 OFFCURVE",
"382 768 CURVE SMOOTH",
"460 768 OFFCURVE",
"490 754 OFFCURVE",
"508 709 CURVE",
"555 725 LINE",
"529 793 OFFCURVE",
"488 814 OFFCURVE",
"382 814 CURVE SMOOTH",
"238 814 OFFCURVE",
"192 765 OFFCURVE",
"192 610 CURVE SMOOTH",
"192 0 LINE"
);
},
{
closed = 1;
nodes = (
"420 446 LINE",
"420 492 LINE",
"68 492 LINE",
"68 446 LINE"
);
}
);
width = 600;
},
{
anchors = (
{
name = bottom;
position = "{300, 0}";
},
{
name = top;
position = "{300, 1000}";
}
);
layerId = "291433DC-531A-45CC-B814-57D397372F12";
paths = (
{
closed = 1;
nodes = (
"267 0 LINE",
"267 587 LINE SMOOTH",
"267 695 OFFCURVE",
"291 722 OFFCURVE",
"382 722 CURVE SMOOTH",
"463 722 OFFCURVE",
"476 709 OFFCURVE",
"492 656 CURVE",
"586 688 LINE",
"558 782 OFFCURVE",
"508 814 OFFCURVE",
"382 814 CURVE SMOOTH",
"223 814 OFFCURVE",
"167 754 OFFCURVE",
"167 587 CURVE SMOOTH",
"167 0 LINE"
);
},
{
closed = 1;
nodes = (
"445 423 LINE",
"445 515 LINE",
"43 515 LINE",
"43 423 LINE"
);
}
);
width = 600;
}
);
unicode = 0066;
},
{
color = 4;
glyphname = g;
lastChange = "2020-01-07 07:10:03 +0000";
layers = (
{
anchors = (
{
name = bottom;
position = "{300, -250}";
},
{
name = top;
position = "{300, 618}";
}
);
layerId = "7C079D0C-96CD-4BD8-8800-0621C7635A78";
paths = (
{
closed = 1;
nodes = (
"457 -196 OFFCURVE",
"507 -138 OFFCURVE",
"507 47 CURVE SMOOTH",
"507 618 LINE",
"457 618 LINE",
"457 566 LINE",
"428 616 OFFCURVE",
"368 632 OFFCURVE",
"291 632 CURVE SMOOTH",
"128 632 OFFCURVE",
"76 569 OFFCURVE",
"76 370 CURVE SMOOTH",
"76 124 OFFCURVE",
"128 46 OFFCURVE",
"291 46 CURVE SMOOTH",
"370 46 OFFCURVE",
"430 68 OFFCURVE",
"457 136 CURVE",
"457 38 LINE SMOOTH",
"457 -105 OFFCURVE",
"419 -150 OFFCURVE",
"298 -150 CURVE SMOOTH",
"243 -150 OFFCURVE",
"215 -140 OFFCURVE",
"185 -110 CURVE",
"148 -141 LINE",
"189 -183 OFFCURVE",
"225 -196 OFFCURVE",
"298 -196 CURVE SMOOTH"
);
},
{
closed = 1;
nodes = (
"166 92 OFFCURVE",
"126 159 OFFCURVE",
"126 370 CURVE SMOOTH",
"126 534 OFFCURVE",
"166 586 OFFCURVE",
"291 586 CURVE SMOOTH",
"378 586 OFFCURVE",
"457 566 OFFCURVE",
"457 498 CURVE SMOOTH",
"457 262 LINE SMOOTH",
"457 136 OFFCURVE",
"389 92 OFFCURVE",
"291 92 CURVE SMOOTH"
);
}
);
width = 600;
},
{
anchors = (
{
name = bottom;
position = "{300, -250}";
},
{
name = top;
position = "{300, 618}";
}
);
layerId = "291433DC-531A-45CC-B814-57D397372F12";
paths = (
{
closed = 1;
nodes = (
"472 -196 OFFCURVE",
"532 -127 OFFCURVE",
"532 60 CURVE SMOOTH",
"532 618 LINE",
"432 618 LINE",
"432 601 LINE",
"398 622 OFFCURVE",
"351 632 OFFCURVE",
"291 632 CURVE SMOOTH",
"113 632 OFFCURVE",
"51 558 OFFCURVE",
"51 370 CURVE SMOOTH",
"51 126 OFFCURVE",
"111 36 OFFCURVE",
"291 36 CURVE SMOOTH",
"351 36 OFFCURVE",
"398 49 OFFCURVE",
"432 75 CURVE",
"432 51 LINE SMOOTH",
"432 -70 OFFCURVE",
"403 -104 OFFCURVE",
"298 -104 CURVE SMOOTH",
"240 -104 OFFCURVE",
"222 -94 OFFCURVE",
"187 -54 CURVE",
"114 -116 LINE",
"165 -176 OFFCURVE",
"209 -196 OFFCURVE",
"298 -196 CURVE SMOOTH"
);
},
{
closed = 1;
nodes = (
"184 128 OFFCURVE",
"151 183 OFFCURVE",
"151 370 CURVE SMOOTH",
"151 499 OFFCURVE",
"182 540 OFFCURVE",
"291 540 CURVE SMOOTH",
"386 540 OFFCURVE",
"432 517 OFFCURVE",
"432 475 CURVE SMOOTH",
"432 275 LINE SMOOTH",
"432 174 OFFCURVE",
"388 128 OFFCURVE",
"291 128 CURVE SMOOTH"
);
}
);
width = 600;
}
);
unicode = 0067;
},
{
color = 4;
glyphname = h;
lastChange = "2020-01-07 07:10:03 +0000";
layers = (
{
anchors = (
{
name = bottom;
position = "{300, 0}";
},
{
name = center;
position = "{300, 500}";
},
{
name = top;
position = "{132, 750}";
}
);
layerId = "7C079D0C-96CD-4BD8-8800-0621C7635A78";
paths = (
{
closed = 1;
nodes = (
"154 0 LINE",
"154 414 LINE SMOOTH",
"154 552 OFFCURVE",
"191 586 OFFCURVE",
"310 586 CURVE SMOOTH",
"429 586 OFFCURVE",
"467 523 OFFCURVE",
"467 324 CURVE SMOOTH",
"467 0 LINE",
"517 0 LINE",
"517 324 LINE SMOOTH",
"517 558 OFFCURVE",
"467 632 OFFCURVE",
"310 632 CURVE SMOOTH",
"233 632 OFFCURVE",
"176 613 OFFCURVE",
"154 552 CURVE",
"154 800 LINE",
"104 800 LINE",
"104 0 LINE"
);
}
);
width = 600;
},
{
anchors = (
{
name = bottom;
position = "{300, 0}";
},
{
name = center;
position = "{300, 500}";
},
{
name = top;
position = "{132, 770}";
}
);
layerId = "291433DC-531A-45CC-B814-57D397372F12";
paths = (
{
closed = 1;
nodes = (
"179 0 LINE",
"179 391 LINE SMOOTH",
"179 514 OFFCURVE",
"203 540 OFFCURVE",
"310 540 CURVE SMOOTH",
"411 540 OFFCURVE",
"442 489 OFFCURVE",
"442 301 CURVE SMOOTH",
"442 0 LINE",
"542 0 LINE",
"542 301 LINE SMOOTH",
"542 546 OFFCURVE",
"484 632 OFFCURVE",
"310 632 CURVE SMOOTH",
"254 632 OFFCURVE",
"210 622 OFFCURVE",
"179 600 CURVE",
"179 800 LINE",
"79 800 LINE",
"79 0 LINE"
);
}
);
width = 600;
}
);
unicode = 0068;
},
{
color = 4;
glyphname = hbar;
lastChange = "2020-01-07 07:10:03 +0000";
layers = (
{
components = (
{
name = h;
}
);
layerId = "7C079D0C-96CD-4BD8-8800-0621C7635A78";
paths = (
{
closed = 1;
nodes = (
"270 682 LINE",
"270 728 LINE",
"30 728 LINE",
"30 682 LINE"
);
}
);
width = 600;
},
{
components = (
{
name = h;
}
);
layerId = "291433DC-531A-45CC-B814-57D397372F12";
paths = (
{
closed = 1;
nodes = (
"300 657 LINE",
"300 749 LINE",
"5 749 LINE",
"5 657 LINE"
);
}
);
width = 600;
}
);
unicode = 0127;
},
{
color = 4;
glyphname = idotless;
lastChange = "2020-01-14 06:55:52 +0000";
layers = (
{
anchors = (
{
name = bottom;
position = "{310, 0}";
},
{
name = ogonek;
position = "{375, 0}";
},
{
name = top;
position = "{308, 618}";
}
);
layerId = "7C079D0C-96CD-4BD8-8800-0621C7635A78";
paths = (
{
closed = 1;
nodes = (
"351 0 LINE",
"351 618 LINE",
"175 618 LINE",
"175 572 LINE",
"332 572 LINE",
"301 603 LINE",
"301 0 LINE"
);
},
{
closed = 1;
nodes = (
"526 0 LINE",
"526 46 LINE",
"126 46 LINE",
"126 0 LINE"
);
}
);
width = 600;
},
{
anchors = (
{
name = bottom;
position = "{310, 0}";
},
{
name = ogonek;
position = "{368, 0}";
},
{
name = top;
position = "{308, 618}";
}
);
layerId = "291433DC-531A-45CC-B814-57D397372F12";
paths = (
{
closed = 1;
nodes = (
"376 0 LINE",
"376 618 LINE",
"150 618 LINE",
"150 526 LINE",
"339 526 LINE",
"276 589 LINE",
"276 0 LINE"
);
},
{
closed = 1;
nodes = (
"551 0 LINE",
"551 92 LINE",
"101 92 LINE",
"101 0 LINE"
);
}
);
width = 600;
}
);
unicode = 0131;
},
{
color = 4;
glyphname = jdotless;
lastChange = "2020-01-14 06:56:07 +0000";
layers = (
{
anchors = (
{
name = bottom;
position = "{300, -250}";
},
{
name = top;
position = "{398, 618}";
}
);
layerId = "7C079D0C-96CD-4BD8-8800-0621C7635A78";
paths = (
{
closed = 1;
nodes = (
"397 -196 OFFCURVE",
"447 -138 OFFCURVE",
"447 47 CURVE SMOOTH",
"447 618 LINE",
"271 618 LINE",
"271 572 LINE",
"397 572 LINE",
"397 47 LINE SMOOTH",
"397 -103 OFFCURVE",
"359 -150 OFFCURVE",
"238 -150 CURVE SMOOTH",
"183 -150 OFFCURVE",
"155 -140 OFFCURVE",
"125 -110 CURVE",
"88 -141 LINE",
"129 -183 OFFCURVE",
"165 -196 OFFCURVE",
"238 -196 CURVE SMOOTH"
);
}
);
width = 600;
},
{
anchors = (
{
name = bottom;
position = "{300, -250}";
},
{
name = top;
position = "{398, 618}";
}
);
layerId = "291433DC-531A-45CC-B814-57D397372F12";
paths = (
{
closed = 1;
nodes = (
"412 -196 OFFCURVE",
"472 -127 OFFCURVE",
"472 70 CURVE SMOOTH",
"472 618 LINE",
"246 618 LINE",
"246 526 LINE",
"372 526 LINE",
"372 70 LINE SMOOTH",
"372 -68 OFFCURVE",
"343 -104 OFFCURVE",
"238 -104 CURVE SMOOTH",
"180 -104 OFFCURVE",
"162 -94 OFFCURVE",
"127 -54 CURVE",
"54 -116 LINE",
"105 -176 OFFCURVE",
"149 -196 OFFCURVE",
"238 -196 CURVE SMOOTH"
);
}
);
width = 600;
}
);
unicode = 0237;
},
{
color = 4;
glyphname = k;
lastChange = "2020-01-07 07:10:03 +0000";
layers = (
{
anchors = (
{
name = bottom;
position = "{300, 0}";
},
{
name = top;
position = "{300, 1000}";
}
);
layerId = "7C079D0C-96CD-4BD8-8800-0621C7635A78";
paths = (
{
closed = 1;
nodes = (
"176 0 LINE",
"176 308 LINE",
"232 308 LINE",
"469 0 LINE",
"529 0 LINE",
"273 333 LINE",
"489 618 LINE",
"429 618 LINE",
"228 354 LINE",
"176 354 LINE",
"176 800 LINE",
"126 800 LINE",
"126 0 LINE"
);
}
);
width = 600;
},
{
anchors = (
{
name = bottom;
position = "{300, 0}";
},
{
name = top;
position = "{300, 1000}";
}
);
layerId = "291433DC-531A-45CC-B814-57D397372F12";
paths = (
{
closed = 1;
nodes = (
"201 0 LINE",
"201 285 LINE",
"219 285 LINE",
"456 0 LINE",
"577 0 LINE",
"304 333 LINE",
"537 618 LINE",
"416 618 LINE",
"215 377 LINE",
"201 377 LINE",
"201 800 LINE",
"101 800 LINE",
"101 0 LINE"
);
}
);
width = 600;
}
);
unicode = 006B;
},
{
color = 4;
glyphname = l;
lastChange = "2020-01-07 07:10:03 +0000";
layers = (
{
anchors = (
{
name = bottom;
position = "{370, 0}";
},
{
name = center;
position = "{300, 500}";
},
{
name = top;
position = "{300, 800}";
},
{
name = topright;
position = "{580, 800}";
}
);
layerId = "7C079D0C-96CD-4BD8-8800-0621C7635A78";
paths = (
{
closed = 1;
nodes = (
"443 -14 OFFCURVE",
"470 -4 OFFCURVE",
"520 26 CURVE",
"491 70 LINE",
"456 41 OFFCURVE",
"436 32 OFFCURVE",
"406 32 CURVE SMOOTH",
"329 32 OFFCURVE",
"305 75 OFFCURVE",
"305 211 CURVE SMOOTH",
"305 800 LINE",
"129 800 LINE",
"129 754 LINE",
"255 754 LINE",
"255 211 LINE SMOOTH",
"255 40 OFFCURVE",
"291 -14 OFFCURVE",
"406 -14 CURVE SMOOTH"
);
}
);
width = 600;
},
{
anchors = (
{
name = bottom;
position = "{380, 0}";
},
{
name = center;
position = "{300, 500}";
},
{
name = top;
position = "{300, 800}";
},
{
name = topright;
position = "{580, 800}";
}
);
layerId = "291433DC-531A-45CC-B814-57D397372F12";
paths = (
{
closed = 1;
nodes = (
"460 -14 OFFCURVE",
"496 0 OFFCURVE",
"553 44 CURVE",
"497 129 LINE",
"451 90 OFFCURVE",
"429 78 OFFCURVE",
"404 78 CURVE SMOOTH",
"348 78 OFFCURVE",
"330 111 OFFCURVE",
"330 214 CURVE SMOOTH",
"330 800 LINE",
"104 800 LINE",
"104 708 LINE",
"230 708 LINE",
"230 214 LINE SMOOTH",
"230 41 OFFCURVE",
"272 -14 OFFCURVE",
"404 -14 CURVE SMOOTH"
);
}
);
width = 600;
}
);
unicode = 006C;
},
{
color = 4;
glyphname = lslash;
lastChange = "2020-01-07 07:10:03 +0000";
layers = (
{
components = (
{
name = l;
}
);
layerId = "7C079D0C-96CD-4BD8-8800-0621C7635A78";
paths = (
{
closed = 1;
nodes = (
"421 518 LINE",
"421 565 LINE",
"139 450 LINE",
"139 403 LINE"
);
}
);
width = 600;
},
{
components = (
{
name = l;
}
);
layerId = "291433DC-531A-45CC-B814-57D397372F12";
paths = (
{
closed = 1;
nodes = (
"446 503 LINE",
"446 600 LINE",
"114 465 LINE",
"114 368 LINE"
);
}
);
width = 600;
}
);
unicode = 0142;
},
{
color = 4;
glyphname = m;
lastChange = "2020-01-07 07:10:03 +0000";
layers = (
{
anchors = (
{
name = bottom;
position = "{300, 0}";
},
{
name = top;
position = "{300, 618}";
}
);
layerId = "7C079D0C-96CD-4BD8-8800-0621C7635A78";
paths = (
{
closed = 1;
nodes = (
"108 0 LINE",
"108 404 LINE SMOOTH",
"108 535 OFFCURVE",
"132 576 OFFCURVE",
"206 576 CURVE SMOOTH",
"258 576 OFFCURVE",
"275 534 OFFCURVE",
"275 400 CURVE SMOOTH",
"275 0 LINE",
"325 0 LINE",
"325 404 LINE SMOOTH",
"325 535 OFFCURVE",
"349 576 OFFCURVE",
"423 576 CURVE SMOOTH",
"475 576 OFFCURVE",
"492 535 OFFCURVE",
"492 406 CURVE SMOOTH",
"492 0 LINE",
"542 0 LINE",
"542 406 LINE SMOOTH",
"542 577 OFFCURVE",
"515 631 OFFCURVE",
"429 631 CURVE SMOOTH",
"368 631 OFFCURVE",
"338 609 OFFCURVE",
"304 538 CURVE",
"285 609 OFFCURVE",
"263 631 OFFCURVE",
"212 631 CURVE SMOOTH",
"158 631 OFFCURVE",
"133 614 OFFCURVE",
"108 560 CURVE",
"108 618 LINE",
"58 618 LINE",
"58 0 LINE"
);
}
);
width = 600;
},
{
anchors = (
{
name = bottom;
position = "{300, 0}";
},
{
name = top;
position = "{300, 618}";
}
);
layerId = "291433DC-531A-45CC-B814-57D397372F12";
paths = (
{
closed = 1;
nodes = (
"132 0 LINE",
"132 391 LINE SMOOTH",
"132 497 OFFCURVE",
"150 530 OFFCURVE",
"205 530 CURVE SMOOTH",
"239 530 OFFCURVE",
"250 493 OFFCURVE",
"250 377 CURVE SMOOTH",
"250 0 LINE",
"350 0 LINE",
"350 391 LINE SMOOTH",
"350 497 OFFCURVE",
"368 530 OFFCURVE",
"423 530 CURVE SMOOTH",
"457 530 OFFCURVE",
"468 495 OFFCURVE",
"468 383 CURVE SMOOTH",
"468 0 LINE",
"568 0 LINE",
"568 383 LINE SMOOTH",
"568 571 OFFCURVE",
"535 631 OFFCURVE",
"429 631 CURVE SMOOTH",
"372 631 OFFCURVE",
"344 617 OFFCURVE",
"310 571 CURVE",
"286 617 OFFCURVE",
"262 631 OFFCURVE",
"211 631 CURVE SMOOTH",
"180 631 OFFCURVE",
"161 625 OFFCURVE",
"132 608 CURVE",
"132 618 LINE",
"32 618 LINE",
"32 0 LINE"
);
}
);
width = 600;
}
);
unicode = 006D;
},
{
color = 4;
glyphname = n;
lastChange = "2020-01-07 07:10:03 +0000";
layers = (
{
anchors = (
{
name = bottom;
position = "{300, 0}";
},
{
name = top;
position = "{300, 618}";
}
);
layerId = "7C079D0C-96CD-4BD8-8800-0621C7635A78";
paths = (
{
closed = 1;
nodes = (
"148 0 LINE",
"148 414 LINE SMOOTH",
"148 554 OFFCURVE",
"191 586 OFFCURVE",
"328 586 CURVE SMOOTH",
"431 586 OFFCURVE",
"463 542 OFFCURVE",
"463 403 CURVE SMOOTH",
"463 0 LINE",
"513 0 LINE",
"513 403 LINE SMOOTH",
"513 577 OFFCURVE",
"469 632 OFFCURVE",
"328 632 CURVE SMOOTH",
"228 632 OFFCURVE",
"185 609 OFFCURVE",
"148 554 CURVE",
"148 618 LINE",
"98 618 LINE",
"98 0 LINE"
);
}
);
width = 600;
},
{
anchors = (
{
name = bottom;
position = "{300, 0}";
},
{
name = top;
position = "{300, 618}";
}
);
layerId = "291433DC-531A-45CC-B814-57D397372F12";
paths = (
{
closed = 1;
nodes = (
"173 0 LINE",
"173 391 LINE SMOOTH",
"173 512 OFFCURVE",
"199 540 OFFCURVE",
"328 540 CURVE SMOOTH",
"412 540 OFFCURVE",
"438 502 OFFCURVE",
"438 380 CURVE SMOOTH",
"438 0 LINE",
"538 0 LINE",
"538 380 LINE SMOOTH",
"538 572 OFFCURVE",
"488 632 OFFCURVE",
"328 632 CURVE SMOOTH",
"256 632 OFFCURVE",
"209 617 OFFCURVE",
"173 592 CURVE",
"173 618 LINE",
"73 618 LINE",
"73 0 LINE"
);
}
);
width = 600;
}
);
unicode = 006E;
},
{
color = 4;
glyphname = eng;
lastChange = "2020-01-07 07:10:03 +0000";
layers = (
{
components = (
{
name = n;
}
);
layerId = "7C079D0C-96CD-4BD8-8800-0621C7635A78";
paths = (
{
closed = 1;
nodes = (
"479 -155 OFFCURVE",
"513 -118 OFFCURVE",
"513 0 CURVE",
"463 0 LINE",
"463 -97 OFFCURVE",
"446 -109 OFFCURVE",
"371 -109 CURVE",
"371 -155 LINE"
);
}
);
width = 600;
},
{
components = (
{
name = n;
}
);
layerId = "291433DC-531A-45CC-B814-57D397372F12";
paths = (
{
closed = 1;
nodes = (
"495 -177 OFFCURVE",
"538 -127 OFFCURVE",
"538 0 CURVE",
"438 0 LINE",
"438 -65 OFFCURVE",
"424 -85 OFFCURVE",
"346 -85 CURVE",
"346 -177 LINE"
);
}
);
width = 600;
}
);
unicode = 014B;
},
{
color = 4;
glyphname = o;
lastChange = "2020-01-07 07:10:03 +0000";
layers = (
{
anchors = (
{
name = bottom;
position = "{300, 0}";
},
{
name = center;
position = "{300, 309}";
},
{
name = ogonek;
position = "{540, 10}";
},
{
name = top;
position = "{300, 618}";
},
{
name = topright;
position = "{580, 618}";
}
);
layerId = "7C079D0C-96CD-4BD8-8800-0621C7635A78";
paths = (
{
closed = 1;
nodes = (
"463 -14 OFFCURVE",
"515 64 OFFCURVE",
"515 309 CURVE SMOOTH",
"515 554 OFFCURVE",
"463 632 OFFCURVE",
"300 632 CURVE SMOOTH",
"137 632 OFFCURVE",
"85 554 OFFCURVE",
"85 309 CURVE SMOOTH",
"85 64 OFFCURVE",
"137 -14 OFFCURVE",
"300 -14 CURVE SMOOTH"
);
},
{
closed = 1;
nodes = (
"175 32 OFFCURVE",
"135 98 OFFCURVE",
"135 309 CURVE SMOOTH",
"135 520 OFFCURVE",
"175 586 OFFCURVE",
"300 586 CURVE SMOOTH",
"425 586 OFFCURVE",
"465 520 OFFCURVE",
"465 309 CURVE SMOOTH",
"465 98 OFFCURVE",
"425 32 OFFCURVE",
"300 32 CURVE SMOOTH"
);
}
);
width = 600;
},
{
anchors = (
{
name = bottom;
position = "{300, 0}";
},
{
name = center;
position = "{300, 309}";
},
{
name = ogonek;
position = "{540, 10}";
},
{
name = top;
position = "{300, 618}";
},
{
name = topright;
position = "{580, 618}";
}
);
layerId = "291433DC-531A-45CC-B814-57D397372F12";
paths = (
{
closed = 1;
nodes = (
"480 -14 OFFCURVE",
"540 76 OFFCURVE",
"540 309 CURVE SMOOTH",
"540 542 OFFCURVE",
"480 632 OFFCURVE",
"300 632 CURVE SMOOTH",
"120 632 OFFCURVE",
"60 542 OFFCURVE",
"60 309 CURVE SMOOTH",
"60 76 OFFCURVE",
"120 -14 OFFCURVE",
"300 -14 CURVE SMOOTH"
);
},
{
closed = 1;
nodes = (
"193 78 OFFCURVE",
"160 132 OFFCURVE",
"160 309 CURVE SMOOTH",
"160 486 OFFCURVE",
"193 540 OFFCURVE",
"300 540 CURVE SMOOTH",
"407 540 OFFCURVE",
"440 486 OFFCURVE",
"440 309 CURVE SMOOTH",
"440 132 OFFCURVE",
"407 78 OFFCURVE",
"300 78 CURVE SMOOTH"
);
}
);
width = 600;
}
);
unicode = 006F;
},
{
color = 4;
glyphname = oslash;
lastChange = "2020-01-07 07:10:03 +0000";
layers = (
{
anchors = (
{
name = top;
position = "{300, 618}";
}
);
components = (
{
name = o;
}
);
layerId = "7C079D0C-96CD-4BD8-8800-0621C7635A78";
paths = (
{
closed = 1;
nodes = (
"133 -31 LINE",
"522 650 LINE",
"465 650 LINE",
"76 -31 LINE"
);
}
);
width = 600;
},
{
anchors = (
{
name = top;
position = "{300, 618}";
}
);
components = (
{
name = o;
}
);
layerId = "291433DC-531A-45CC-B814-57D397372F12";
paths = (
{
closed = 1;
nodes = (
"148 -31 LINE",
"563 650 LINE",
"450 650 LINE",
"35 -31 LINE"
);
}
);
width = 600;
}
);
unicode = 00F8;
},
{
color = 4;
glyphname = oe;
lastChange = "2020-01-07 07:10:03 +0000";
layers = (
{
anchors = (
{
name = bottom;
position = "{300, 0}";
},
{
name = top;
position = "{300, 618}";
}
);
layerId = "7C079D0C-96CD-4BD8-8800-0621C7635A78";
paths = (
{
closed = 1;
nodes = (
"242 -14 OFFCURVE",
"273 13 OFFCURVE",
"301 97 CURVE",
"328 13 OFFCURVE",
"361 -14 OFFCURVE",
"438 -14 CURVE SMOOTH",
"498 -14 OFFCURVE",
"530 10 OFFCURVE",
"570 85 CURVE",
"529 113 LINE",
"495 51 OFFCURVE",
"474 32 OFFCURVE",
"438 32 CURVE SMOOTH",
"354 32 OFFCURVE",
"325 98 OFFCURVE",
"325 308 CURVE",
"584 308 LINE",
"584 554 OFFCURVE",
"550 632 OFFCURVE",
"438 632 CURVE SMOOTH",
"361 632 OFFCURVE",
"328 605 OFFCURVE",
"301 521 CURVE",
"273 605 OFFCURVE",
"242 632 OFFCURVE",
"172 632 CURVE SMOOTH",
"53 632 OFFCURVE",
"16 554 OFFCURVE",
"16 309 CURVE SMOOTH",
"16 64 OFFCURVE",
"53 -14 OFFCURVE",
"172 -14 CURVE SMOOTH"
);
},
{
closed = 1;
nodes = (
"91 32 OFFCURVE",
"66 98 OFFCURVE",
"66 309 CURVE SMOOTH",
"66 520 OFFCURVE",
"91 586 OFFCURVE",
"172 586 CURVE SMOOTH",
"250 586 OFFCURVE",
"275 520 OFFCURVE",
"275 309 CURVE SMOOTH",
"275 98 OFFCURVE",
"250 32 OFFCURVE",
"172 32 CURVE SMOOTH"
);
},
{
closed = 1;
nodes = (
"326 530 OFFCURVE",
"353 586 OFFCURVE",
"438 586 CURVE SMOOTH",
"510 586 OFFCURVE",
"533 530 OFFCURVE",
"533 354 CURVE",
"326 354 LINE"
);
}
);
width = 600;
},
{
anchors = (
{
name = bottom;
position = "{300, 0}";
},
{
name = top;
position = "{300, 618}";
}
);
layerId = "291433DC-531A-45CC-B814-57D397372F12";
paths = (
{
closed = 1;
nodes = (
"238 -37 OFFCURVE",
"273 -17 OFFCURVE",
"301 34 CURVE",
"330 -17 OFFCURVE",
"365 -37 OFFCURVE",
"433 -37 CURVE SMOOTH",
"504 -37 OFFCURVE",
"545 -3 OFFCURVE",
"592 92 CURVE",
"511 148 LINE",
"471 71 OFFCURVE",
"456 55 OFFCURVE",
"433 55 CURVE SMOOTH",
"371 55 OFFCURVE",
"352 107 OFFCURVE",
"350 285 CURVE",
"600 285 LINE",
"602 562 OFFCURVE",
"563 655 OFFCURVE",
"433 655 CURVE SMOOTH",
"365 655 OFFCURVE",
"330 635 OFFCURVE",
"301 584 CURVE",
"273 635 OFFCURVE",
"238 655 OFFCURVE",
"176 655 CURVE SMOOTH",
"44 655 OFFCURVE",
"0 566 OFFCURVE",
"0 309 CURVE SMOOTH",
"0 52 OFFCURVE",
"44 -37 OFFCURVE",
"176 -37 CURVE SMOOTH"
);
},
{
closed = 1;
nodes = (
"121 55 OFFCURVE",
"100 110 OFFCURVE",
"100 309 CURVE SMOOTH",
"100 508 OFFCURVE",
"121 563 OFFCURVE",
"176 563 CURVE SMOOTH",
"234 563 OFFCURVE",
"250 507 OFFCURVE",
"250 309 CURVE SMOOTH",
"250 111 OFFCURVE",
"234 55 OFFCURVE",
"176 55 CURVE SMOOTH"
);
},
{
closed = 1;
nodes = (
"353 523 OFFCURVE",
"370 563 OFFCURVE",
"433 563 CURVE SMOOTH",
"478 563 OFFCURVE",
"497 523 OFFCURVE",
"499 377 CURVE",
"351 377 LINE"
);
}
);
width = 600;
}
);
unicode = 0153;
},
{
color = 4;
glyphname = p;
lastChange = "2020-01-07 07:10:03 +0000";
layers = (
{
anchors = (
{
name = bottom;
position = "{300, 0}";
},
{
name = top;
position = "{300, 618}";
}
);
layerId = "7C079D0C-96CD-4BD8-8800-0621C7635A78";
paths = (
{
closed = 1;
nodes = (
"141 -182 LINE",
"141 76 LINE",
"168 8 OFFCURVE",
"228 -14 OFFCURVE",
"307 -14 CURVE SMOOTH",
"470 -14 OFFCURVE",
"522 64 OFFCURVE",
"522 310 CURVE SMOOTH",
"522 555 OFFCURVE",
"470 632 OFFCURVE",
"307 632 CURVE SMOOTH",
"230 632 OFFCURVE",
"170 616 OFFCURVE",
"141 566 CURVE",
"141 618 LINE",
"91 618 LINE",
"91 -182 LINE"
);
},
{
closed = 1;
nodes = (
"209 32 OFFCURVE",
"141 76 OFFCURVE",
"141 202 CURVE SMOOTH",
"141 498 LINE SMOOTH",
"141 566 OFFCURVE",
"220 586 OFFCURVE",
"307 586 CURVE SMOOTH",
"432 586 OFFCURVE",
"472 520 OFFCURVE",
"472 310 CURVE SMOOTH",
"472 99 OFFCURVE",
"432 32 OFFCURVE",
"307 32 CURVE SMOOTH"
);
}
);
width = 600;
},
{
anchors = (
{
name = bottom;
position = "{300, 0}";
},
{
name = top;
position = "{300, 618}";
}
);
layerId = "291433DC-531A-45CC-B814-57D397372F12";
paths = (
{
closed = 1;
nodes = (
"166 -182 LINE",
"166 25 LINE",
"200 -1 OFFCURVE",
"247 -14 OFFCURVE",
"307 -14 CURVE SMOOTH",
"487 -14 OFFCURVE",
"547 76 OFFCURVE",
"547 310 CURVE SMOOTH",
"547 543 OFFCURVE",
"487 632 OFFCURVE",
"307 632 CURVE SMOOTH",
"247 632 OFFCURVE",
"200 622 OFFCURVE",
"166 601 CURVE",
"166 618 LINE",
"66 618 LINE",
"66 -182 LINE"
);
},
{
closed = 1;
nodes = (
"210 78 OFFCURVE",
"166 124 OFFCURVE",
"166 225 CURVE SMOOTH",
"166 475 LINE SMOOTH",
"166 517 OFFCURVE",
"212 540 OFFCURVE",
"307 540 CURVE SMOOTH",
"414 540 OFFCURVE",
"447 486 OFFCURVE",
"447 310 CURVE SMOOTH",
"447 133 OFFCURVE",
"414 78 OFFCURVE",
"307 78 CURVE SMOOTH"
);
}
);
width = 600;
}
);
unicode = 0070;
},
{
color = 4;
glyphname = thorn;
lastChange = "2020-01-07 07:10:03 +0000";
layers = (
{
anchors = (
{
name = bottom;
position = "{300, 0}";
},
{
name = top;
position = "{300, 618}";
}
);
layerId = "7C079D0C-96CD-4BD8-8800-0621C7635A78";
paths = (
{
closed = 1;
nodes = (
"141 -182 LINE",
"141 76 LINE",
"168 8 OFFCURVE",
"228 -14 OFFCURVE",
"307 -14 CURVE SMOOTH",
"470 -14 OFFCURVE",
"522 64 OFFCURVE",
"522 310 CURVE SMOOTH",
"522 555 OFFCURVE",
"470 632 OFFCURVE",
"307 632 CURVE SMOOTH",
"230 632 OFFCURVE",
"170 616 OFFCURVE",
"141 566 CURVE",
"141 800 LINE",
"91 800 LINE",
"91 -182 LINE"
);
},
{
closed = 1;
nodes = (
"209 32 OFFCURVE",
"141 76 OFFCURVE",
"141 202 CURVE SMOOTH",
"141 498 LINE SMOOTH",
"141 566 OFFCURVE",
"220 586 OFFCURVE",
"307 586 CURVE SMOOTH",
"432 586 OFFCURVE",
"472 520 OFFCURVE",
"472 310 CURVE SMOOTH",
"472 99 OFFCURVE",
"432 32 OFFCURVE",
"307 32 CURVE SMOOTH"
);
}
);
width = 600;
},
{
anchors = (
{
name = bottom;
position = "{300, 0}";
},
{
name = top;
position = "{300, 618}";
}
);
layerId = "291433DC-531A-45CC-B814-57D397372F12";
paths = (
{
closed = 1;
nodes = (
"166 -182 LINE",
"166 25 LINE",
"200 -1 OFFCURVE",
"247 -14 OFFCURVE",
"307 -14 CURVE SMOOTH",
"487 -14 OFFCURVE",
"547 76 OFFCURVE",
"547 310 CURVE SMOOTH",
"547 543 OFFCURVE",
"487 632 OFFCURVE",
"307 632 CURVE SMOOTH",
"247 632 OFFCURVE",
"200 622 OFFCURVE",
"166 601 CURVE",
"166 800 LINE",
"66 800 LINE",
"66 -182 LINE"
);
},
{
closed = 1;
nodes = (
"210 78 OFFCURVE",
"166 124 OFFCURVE",
"166 225 CURVE SMOOTH",
"166 475 LINE SMOOTH",
"166 517 OFFCURVE",
"212 540 OFFCURVE",
"307 540 CURVE SMOOTH",
"414 540 OFFCURVE",
"447 486 OFFCURVE",
"447 310 CURVE SMOOTH",
"447 133 OFFCURVE",
"414 78 OFFCURVE",
"307 78 CURVE SMOOTH"
);
}
);
width = 600;
}
);
unicode = 00FE;
},
{
color = 4;
glyphname = q;
lastChange = "2020-01-07 07:10:03 +0000";
layers = (
{
anchors = (
{
name = bottom;
position = "{300, 0}";
},
{
name = top;
position = "{300, 618}";
}
);
layerId = "7C079D0C-96CD-4BD8-8800-0621C7635A78";
paths = (
{
closed = 1;
nodes = (
"509 -182 LINE",
"509 618 LINE",
"459 618 LINE",
"459 566 LINE",
"430 616 OFFCURVE",
"370 632 OFFCURVE",
"293 632 CURVE SMOOTH",
"130 632 OFFCURVE",
"78 555 OFFCURVE",
"78 310 CURVE SMOOTH",
"78 64 OFFCURVE",
"130 -14 OFFCURVE",
"293 -14 CURVE SMOOTH",
"372 -14 OFFCURVE",
"432 8 OFFCURVE",
"459 76 CURVE",
"459 -182 LINE"
);
},
{
closed = 1;
nodes = (
"168 32 OFFCURVE",
"128 99 OFFCURVE",
"128 310 CURVE SMOOTH",
"128 520 OFFCURVE",
"168 586 OFFCURVE",
"293 586 CURVE SMOOTH",
"380 586 OFFCURVE",
"459 566 OFFCURVE",
"459 498 CURVE SMOOTH",
"459 202 LINE SMOOTH",
"459 76 OFFCURVE",
"391 32 OFFCURVE",
"293 32 CURVE SMOOTH"
);
}
);
width = 600;
},
{
anchors = (
{
name = bottom;
position = "{300, 0}";
},
{
name = top;
position = "{300, 618}";
}
);
layerId = "291433DC-531A-45CC-B814-57D397372F12";
paths = (
{
closed = 1;
nodes = (
"534 -182 LINE",
"534 618 LINE",
"434 618 LINE",
"434 601 LINE",
"400 622 OFFCURVE",
"353 632 OFFCURVE",
"293 632 CURVE SMOOTH",
"113 632 OFFCURVE",
"53 543 OFFCURVE",
"53 310 CURVE SMOOTH",
"53 76 OFFCURVE",
"113 -14 OFFCURVE",
"293 -14 CURVE SMOOTH",
"353 -14 OFFCURVE",
"400 -1 OFFCURVE",
"434 25 CURVE",
"434 -182 LINE"
);
},
{
closed = 1;
nodes = (
"186 78 OFFCURVE",
"153 133 OFFCURVE",
"153 310 CURVE SMOOTH",
"153 486 OFFCURVE",
"186 540 OFFCURVE",
"293 540 CURVE SMOOTH",
"388 540 OFFCURVE",
"434 517 OFFCURVE",
"434 475 CURVE SMOOTH",
"434 225 LINE SMOOTH",
"434 124 OFFCURVE",
"390 78 OFFCURVE",
"293 78 CURVE SMOOTH"
);
}
);
width = 600;
}
);
unicode = 0071;
},
{
color = 4;
glyphname = r;
lastChange = "2020-01-07 07:10:03 +0000";
layers = (
{
anchors = (
{
name = bottom;
position = "{300, 0}";
},
{
name = top;
position = "{300, 618}";
}
);
layerId = "7C079D0C-96CD-4BD8-8800-0621C7635A78";
paths = (
{
closed = 1;
nodes = (
"175 0 LINE",
"175 360 LINE SMOOTH",
"175 434 OFFCURVE",
"217 586 OFFCURVE",
"352 586 CURVE SMOOTH",
"421 586 OFFCURVE",
"452 564 OFFCURVE",
"479 495 CURVE",
"523 515 LINE",
"485 604 OFFCURVE",
"444 632 OFFCURVE",
"352 632 CURVE SMOOTH",
"264 632 OFFCURVE",
"196 564 OFFCURVE",
"175 497 CURVE",
"175 618 LINE",
"125 618 LINE",
"125 0 LINE"
);
}
);
width = 600;
},
{
anchors = (
{
name = bottom;
position = "{300, 0}";
},
{
name = top;
position = "{300, 618}";
}
);
layerId = "291433DC-531A-45CC-B814-57D397372F12";
paths = (
{
closed = 1;
nodes = (
"200 0 LINE",
"200 327 LINE SMOOTH",
"200 442 OFFCURVE",
"236 540 OFFCURVE",
"352 540 CURVE SMOOTH",
"418 540 OFFCURVE",
"437 520 OFFCURVE",
"464 440 CURVE",
"554 481 LINE",
"511 593 OFFCURVE",
"461 632 OFFCURVE",
"352 632 CURVE SMOOTH",
"282 632 OFFCURVE",
"225 588 OFFCURVE",
"200 551 CURVE",
"200 618 LINE",
"100 618 LINE",
"100 0 LINE"
);
}
);
width = 600;
}
);
unicode = 0072;
},
{
color = 4;
glyphname = s;
lastChange = "2020-01-07 07:10:03 +0000";
layers = (
{
anchors = (
{
name = bottom;
position = "{300, 0}";
},
{
name = top;
position = "{300, 618}";
}
);
layerId = "7C079D0C-96CD-4BD8-8800-0621C7635A78";
paths = (
{
closed = 1;
nodes = (
"463 -14 OFFCURVE",
"523 29 OFFCURVE",
"523 167 CURVE SMOOTH",
"523 284 OFFCURVE",
"471 327 OFFCURVE",
"305 349 CURVE SMOOTH",
"190 364 OFFCURVE",
"154 402 OFFCURVE",
"154 460 CURVE SMOOTH",
"154 556 OFFCURVE",
"195 586 OFFCURVE",
"325 586 CURVE SMOOTH",
"404 586 OFFCURVE",
"440 568 OFFCURVE",
"475 513 CURVE",
"511 548 LINE",
"467 612 OFFCURVE",
"422 632 OFFCURVE",
"325 632 CURVE SMOOTH",
"157 632 OFFCURVE",
"104 591 OFFCURVE",
"104 460 CURVE SMOOTH",
"104 373 OFFCURVE",
"151 320 OFFCURVE",
"305 301 CURVE SMOOTH",
"433 285 OFFCURVE",
"473 254 OFFCURVE",
"473 167 CURVE SMOOTH",
"473 64 OFFCURVE",
"425 32 OFFCURVE",
"275 32 CURVE SMOOTH",
"202 32 OFFCURVE",
"168 53 OFFCURVE",
"135 118 CURVE",
"96 86 LINE",
"139 10 OFFCURVE",
"182 -14 OFFCURVE",
"275 -14 CURVE SMOOTH"
);
}
);
width = 600;
},
{
anchors = (
{
name = bottom;
position = "{300, 0}";
},
{
name = top;
position = "{300, 618}";
}
);
layerId = "291433DC-531A-45CC-B814-57D397372F12";
paths = (
{
closed = 1;
nodes = (
"476 -14 OFFCURVE",
"548 38 OFFCURVE",
"548 177 CURVE SMOOTH",
"548 307 OFFCURVE",
"486 347 OFFCURVE",
"308 372 CURVE SMOOTH",
"214 385 OFFCURVE",
"179 399 OFFCURVE",
"179 449 CURVE SMOOTH",
"179 519 OFFCURVE",
"208 540 OFFCURVE",
"325 540 CURVE SMOOTH",
"407 540 OFFCURVE",
"430 522 OFFCURVE",
"469 451 CURVE",
"542 522 LINE",
"491 604 OFFCURVE",
"438 632 OFFCURVE",
"325 632 CURVE SMOOTH",
"144 632 OFFCURVE",
"79 582 OFFCURVE",
"79 449 CURVE SMOOTH",
"79 341 OFFCURVE",
"148 297 OFFCURVE",
"302 278 CURVE SMOOTH",
"420 263 OFFCURVE",
"448 250 OFFCURVE",
"448 177 CURVE SMOOTH",
"448 102 OFFCURVE",
"414 78 OFFCURVE",
"275 78 CURVE SMOOTH",
"202 78 OFFCURVE",
"180 98 OFFCURVE",
"144 179 CURVE",
"65 114 LINE",
"115 19 OFFCURVE",
"167 -14 OFFCURVE",
"275 -14 CURVE SMOOTH"
);
}
);
width = 600;
}
);
unicode = 0073;
},
{
color = 4;
glyphname = germandbls;
lastChange = "2020-01-07 07:10:03 +0000";
layers = (
{
anchors = (
{
name = bottom;
position = "{300, 0}";
},
{
name = top;
position = "{300, 618}";
}
);
layerId = "7C079D0C-96CD-4BD8-8800-0621C7635A78";
paths = (
{
closed = 1;
nodes = (
"139 0 LINE",
"139 602 LINE SMOOTH",
"139 728 OFFCURVE",
"173 768 OFFCURVE",
"279 768 CURVE SMOOTH",
"404 768 OFFCURVE",
"444 728 OFFCURVE",
"444 602 CURVE SMOOTH",
"444 485 OFFCURVE",
"404 448 OFFCURVE",
"279 448 CURVE SMOOTH",
"269 448 LINE",
"269 402 LINE",
"304 402 LINE SMOOTH",
"429 402 OFFCURVE",
"469 359 OFFCURVE",
"469 224 CURVE SMOOTH",
"469 89 OFFCURVE",
"429 46 OFFCURVE",
"304 46 CURVE SMOOTH",
"249 46 LINE",
"249 0 LINE",
"304 0 LINE SMOOTH",
"467 0 OFFCURVE",
"519 54 OFFCURVE",
"519 224 CURVE SMOOTH",
"519 347 OFFCURVE",
"493 397 OFFCURVE",
"412 430 CURVE",
"474 463 OFFCURVE",
"494 505 OFFCURVE",
"494 602 CURVE SMOOTH",
"494 763 OFFCURVE",
"442 814 OFFCURVE",
"279 814 CURVE SMOOTH",
"135 814 OFFCURVE",
"89 763 OFFCURVE",
"89 602 CURVE SMOOTH",
"89 0 LINE"
);
}
);
width = 600;
},
{
anchors = (
{
name = bottom;
position = "{300, 0}";
},
{
name = top;
position = "{300, 618}";
}
);
layerId = "291433DC-531A-45CC-B814-57D397372F12";
paths = (
{
closed = 1;
nodes = (
"164 0 LINE",
"164 591 LINE SMOOTH",
"164 693 OFFCURVE",
"189 722 OFFCURVE",
"279 722 CURVE SMOOTH",
"390 722 OFFCURVE",
"419 692 OFFCURVE",
"419 591 CURVE SMOOTH",
"419 487 OFFCURVE",
"390 471 OFFCURVE",
"279 471 CURVE SMOOTH",
"244 471 LINE",
"244 379 LINE",
"304 379 LINE SMOOTH",
"414 379 OFFCURVE",
"444 358 OFFCURVE",
"444 235 CURVE SMOOTH",
"444 124 OFFCURVE",
"414 92 OFFCURVE",
"304 92 CURVE SMOOTH",
"244 92 LINE",
"244 0 LINE",
"304 0 LINE SMOOTH",
"482 0 OFFCURVE",
"544 64 OFFCURVE",
"544 235 CURVE SMOOTH",
"544 347 OFFCURVE",
"522 395 OFFCURVE",
"459 433 CURVE",
"503 468 OFFCURVE",
"519 506 OFFCURVE",
"519 591 CURVE SMOOTH",
"519 753 OFFCURVE",
"456 814 OFFCURVE",
"279 814 CURVE SMOOTH",
"120 814 OFFCURVE",
"64 752 OFFCURVE",
"64 591 CURVE SMOOTH",
"64 0 LINE"
);
}
);
width = 600;
}
);
unicode = 00DF;
},
{
color = 4;
glyphname = t;
lastChange = "2020-01-07 07:10:03 +0000";
layers = (
{
anchors = (
{
name = bottom;
position = "{360, 0}";
},
{
name = center;
position = "{300, 309}";
},
{
name = top;
position = "{300, 618}";
},
{
name = topright;
position = "{580, 618}";
}
);
layerId = "7C079D0C-96CD-4BD8-8800-0621C7635A78";
paths = (
{
closed = 1;
nodes = (
"463 -14 OFFCURVE",
"502 7 OFFCURVE",
"528 75 CURVE",
"481 91 LINE",
"463 46 OFFCURVE",
"435 32 OFFCURVE",
"365 32 CURVE SMOOTH",
"274 32 OFFCURVE",
"245 84 OFFCURVE",
"245 204 CURVE SMOOTH",
"245 572 LINE",
"453 572 LINE",
"453 618 LINE",
"245 618 LINE",
"245 800 LINE",
"195 800 LINE",
"195 618 LINE",
"71 618 LINE",
"71 572 LINE",
"195 572 LINE",
"195 204 LINE SMOOTH",
"195 49 OFFCURVE",
"236 -14 OFFCURVE",
"365 -14 CURVE SMOOTH"
);
}
);
width = 600;
},
{
anchors = (
{
name = bottom;
position = "{360, 0}";
},
{
name = center;
position = "{300, 309}";
},
{
name = top;
position = "{300, 618}";
},
{
name = topright;
position = "{580, 618}";
}
);
layerId = "291433DC-531A-45CC-B814-57D397372F12";
paths = (
{
closed = 1;
nodes = (
"483 -14 OFFCURVE",
"530 18 OFFCURVE",
"559 112 CURVE",
"465 144 LINE",
"448 90 OFFCURVE",
"437 78 OFFCURVE",
"365 78 CURVE SMOOTH",
"294 78 OFFCURVE",
"270 113 OFFCURVE",
"270 227 CURVE SMOOTH",
"270 535 LINE",
"478 535 LINE",
"478 627 LINE",
"270 627 LINE",
"270 800 LINE",
"170 800 LINE",
"170 627 LINE",
"46 627 LINE",
"46 535 LINE",
"170 535 LINE",
"170 227 LINE SMOOTH",
"170 55 OFFCURVE",
"224 -14 OFFCURVE",
"365 -14 CURVE SMOOTH"
);
}
);
width = 600;
}
);
unicode = 0074;
},
{
color = 4;
glyphname = tbar;
lastChange = "2020-01-07 07:10:03 +0000";
layers = (
{
components = (
{
name = t;
}
);
layerId = "7C079D0C-96CD-4BD8-8800-0621C7635A78";
paths = (
{
closed = 1;
nodes = (
"453 354 LINE",
"453 400 LINE",
"71 400 LINE",
"71 354 LINE"
);
}
);
width = 600;
},
{
components = (
{
name = t;
}
);
layerId = "291433DC-531A-45CC-B814-57D397372F12";
paths = (
{
closed = 1;
nodes = (
"478 308 LINE",
"478 400 LINE",
"46 400 LINE",
"46 308 LINE"
);
}
);
width = 600;
}
);
unicode = 0167;
},
{
color = 4;
glyphname = u;
lastChange = "2020-01-07 07:10:03 +0000";
layers = (
{
anchors = (
{
name = bottom;
position = "{300, 0}";
},
{
name = ogonek;
position = "{487, 0}";
},
{
name = top;
position = "{300, 618}";
},
{
name = topright;
position = "{580, 618}";
}
);
layerId = "7C079D0C-96CD-4BD8-8800-0621C7635A78";
paths = (
{
closed = 1;
nodes = (
"383 -14 OFFCURVE",
"426 4 OFFCURVE",
"463 59 CURVE",
"463 0 LINE",
"513 0 LINE",
"513 618 LINE",
"463 618 LINE",
"463 183 LINE SMOOTH",
"463 68 OFFCURVE",
"420 32 OFFCURVE",
"283 32 CURVE SMOOTH",
"180 32 OFFCURVE",
"148 75 OFFCURVE",
"148 210 CURVE SMOOTH",
"148 618 LINE",
"98 618 LINE",
"98 210 LINE SMOOTH",
"98 40 OFFCURVE",
"142 -14 OFFCURVE",
"283 -14 CURVE SMOOTH"
);
}
);
width = 600;
},
{
anchors = (
{
name = bottom;
position = "{300, 0}";
},
{
name = ogonek;
position = "{481, 0}";
},
{
name = top;
position = "{300, 618}";
},
{
name = topright;
position = "{580, 618}";
}
);
layerId = "291433DC-531A-45CC-B814-57D397372F12";
paths = (
{
closed = 1;
nodes = (
"355 -14 OFFCURVE",
"402 -4 OFFCURVE",
"438 21 CURVE",
"438 0 LINE",
"538 0 LINE",
"538 618 LINE",
"438 618 LINE",
"438 206 LINE SMOOTH",
"438 105 OFFCURVE",
"407 78 OFFCURVE",
"283 78 CURVE SMOOTH",
"197 78 OFFCURVE",
"173 109 OFFCURVE",
"173 233 CURVE SMOOTH",
"173 618 LINE",
"73 618 LINE",
"73 233 LINE SMOOTH",
"73 50 OFFCURVE",
"127 -14 OFFCURVE",
"283 -14 CURVE SMOOTH"
);
}
);
width = 600;
}
);
unicode = 0075;
},
{
color = 4;
glyphname = v;
lastChange = "2020-01-07 07:10:03 +0000";
layers = (
{
anchors = (
{
name = bottom;
position = "{300, 0}";
},
{
name = top;
position = "{300, 618}";
}
);
layerId = "7C079D0C-96CD-4BD8-8800-0621C7635A78";
paths = (
{
closed = 1;
nodes = (
"326 0 LINE",
"531 618 LINE",
"479 618 LINE",
"299 83 LINE",
"119 618 LINE",
"68 618 LINE",
"272 0 LINE"
);
}
);
width = 600;
},
{
anchors = (
{
name = bottom;
position = "{300, 0}";
},
{
name = top;
position = "{300, 618}";
}
);
layerId = "291433DC-531A-45CC-B814-57D397372F12";
paths = (
{
closed = 1;
nodes = (
"345 0 LINE",
"565 618 LINE",
"461 618 LINE",
"299 151 LINE",
"137 618 LINE",
"34 618 LINE",
"253 0 LINE"
);
}
);
width = 600;
}
);
unicode = 0076;
},
{
color = 4;
glyphname = w;
lastChange = "2020-01-07 07:10:03 +0000";
layers = (
{
anchors = (
{
name = bottom;
position = "{300, 0}";
},
{
name = top;
position = "{300, 618}";
}
);
layerId = "7C079D0C-96CD-4BD8-8800-0621C7635A78";
paths = (
{
closed = 1;
nodes = (
"194 0 LINE",
"300 343 LINE",
"405 0 LINE",
"455 0 LINE",
"561 618 LINE",
"510 618 LINE",
"423 97 LINE",
"325 418 LINE",
"275 418 LINE",
"176 97 LINE",
"90 618 LINE",
"39 618 LINE",
"144 0 LINE"
);
}
);
width = 600;
},
{
anchors = (
{
name = bottom;
position = "{300, 0}";
},
{
name = top;
position = "{300, 618}";
}
);
layerId = "291433DC-531A-45CC-B814-57D397372F12";
paths = (
{
closed = 1;
nodes = (
"213 0 LINE",
"300 259 LINE",
"386 0 LINE",
"476 0 LINE",
"590 618 LINE",
"489 618 LINE",
"416 206 LINE",
"344 441 LINE",
"256 441 LINE",
"183 205 LINE",
"111 618 LINE",
"10 618 LINE",
"123 0 LINE"
);
}
);
width = 600;
}
);
unicode = 0077;
},
{
color = 4;
glyphname = x;
lastChange = "2020-01-07 07:10:03 +0000";
layers = (
{
anchors = (
{
name = bottom;
position = "{300, 0}";
},
{
name = top;
position = "{300, 618}";
}
);
layerId = "7C079D0C-96CD-4BD8-8800-0621C7635A78";
paths = (
{
closed = 1;
nodes = (
"458 618 LINE",
"515 618 LINE",
"142 0 LINE",
"85 0 LINE"
);
},
{
closed = 1;
nodes = (
"85 618 LINE",
"142 618 LINE",
"515 0 LINE",
"458 0 LINE"
);
}
);
width = 600;
},
{
anchors = (
{
name = bottom;
position = "{300, 0}";
},
{
name = top;
position = "{300, 618}";
}
);
layerId = "291433DC-531A-45CC-B814-57D397372F12";
paths = (
{
closed = 1;
nodes = (
"443 618 LINE",
"557 618 LINE",
"157 0 LINE",
"43 0 LINE"
);
},
{
closed = 1;
nodes = (
"43 618 LINE",
"157 618 LINE",
"557 0 LINE",
"443 0 LINE"
);
}
);
width = 600;
}
);
unicode = 0078;
},
{
color = 4;
glyphname = y;
lastChange = "2020-01-07 07:10:03 +0000";
layers = (
{
anchors = (
{
name = bottom;
position = "{430, 0}";
},
{
name = top;
position = "{300, 618}";
}
);
layerId = "7C079D0C-96CD-4BD8-8800-0621C7635A78";
paths = (
{
closed = 1;
nodes = (
"249 -196 OFFCURVE",
"301 -149 OFFCURVE",
"349 -2 CURVE SMOOTH",
"551 618 LINE",
"499 618 LINE",
"324 71 LINE",
"151 618 LINE",
"99 618 LINE",
"297 -3 LINE",
"260 -115 OFFCURVE",
"221 -150 OFFCURVE",
"134 -150 CURVE SMOOTH",
"110 -150 OFFCURVE",
"93 -145 OFFCURVE",
"64 -129 CURVE",
"44 -171 LINE",
"74 -190 OFFCURVE",
"96 -196 OFFCURVE",
"134 -196 CURVE SMOOTH"
);
}
);
width = 600;
},
{
anchors = (
{
name = bottom;
position = "{480, 0}";
},
{
name = top;
position = "{300, 618}";
}
);
layerId = "291433DC-531A-45CC-B814-57D397372F12";
paths = (
{
closed = 1;
nodes = (
"261 -196 OFFCURVE",
"318 -142 OFFCURVE",
"373 14 CURVE SMOOTH",
"585 618 LINE",
"480 618 LINE",
"324 153 LINE",
"170 618 LINE",
"66 618 LINE",
"271 20 LINE",
"238 -78 OFFCURVE",
"207 -104 OFFCURVE",
"134 -104 CURVE SMOOTH",
"109 -104 OFFCURVE",
"97 -98 OFFCURVE",
"53 -72 CURVE",
"13 -156 LINE",
"54 -185 OFFCURVE",
"84 -196 OFFCURVE",
"134 -196 CURVE SMOOTH"
);
}
);
width = 600;
}
);
unicode = 0079;
},
{
color = 4;
glyphname = z;
lastChange = "2020-01-07 07:10:03 +0000";
layers = (
{
anchors = (
{
name = bottom;
position = "{300, 0}";
},
{
name = center;
position = "{300, 309}";
},
{
name = top;
position = "{300, 618}";
}
);
layerId = "7C079D0C-96CD-4BD8-8800-0621C7635A78";
paths = (
{
closed = 1;
nodes = (
"498 0 LINE",
"498 46 LINE",
"169 46 LINE",
"497 587 LINE",
"497 618 LINE",
"102 618 LINE",
"102 572 LINE",
"429 572 LINE",
"101 31 LINE",
"101 0 LINE"
);
}
);
width = 600;
},
{
anchors = (
{
name = bottom;
position = "{300, 0}";
},
{
name = center;
position = "{300, 309}";
},
{
name = top;
position = "{300, 618}";
}
);
layerId = "291433DC-531A-45CC-B814-57D397372F12";
paths = (
{
closed = 1;
nodes = (
"523 0 LINE",
"523 92 LINE",
"212 92 LINE",
"522 558 LINE",
"522 618 LINE",
"77 618 LINE",
"77 526 LINE",
"386 526 LINE",
"76 60 LINE",
"76 0 LINE"
);
}
);
width = 600;
}
);
unicode = 007A;
},
{
color = 4;
glyphname = ordfeminine;
lastChange = "2020-01-07 07:10:03 +0000";
layers = (
{
components = (
{
name = hyphen;
transform = "{1, 0, 0, 1, 5, -141}";
}
);
layerId = "7C079D0C-96CD-4BD8-8800-0621C7635A78";
paths = (
{
closed = 1;
nodes = (
"344 371 OFFCURVE",
"371 387 OFFCURVE",
"397 439 CURVE",
"405 394 OFFCURVE",
"424 380 OFFCURVE",
"475 380 CURVE",
"475 427 LINE",
"446 428 OFFCURVE",
"437 436 OFFCURVE",
"437 461 CURVE SMOOTH",
"437 665 LINE SMOOTH",
"437 778 OFFCURVE",
"400 814 OFFCURVE",
"284 814 CURVE SMOOTH",
"199 814 OFFCURVE",
"165 789 OFFCURVE",
"141 709 CURVE",
"190 701 LINE",
"206 752 OFFCURVE",
"229 768 OFFCURVE",
"284 768 CURVE SMOOTH",
"362 768 OFFCURVE",
"387 743 OFFCURVE",
"387 665 CURVE SMOOTH",
"387 615 LINE",
"284 615 LINE SMOOTH",
"167 615 OFFCURVE",
"130 587 OFFCURVE",
"130 498 CURVE SMOOTH",
"130 401 OFFCURVE",
"167 371 OFFCURVE",
"284 371 CURVE SMOOTH"
);
},
{
closed = 1;
nodes = (
"205 417 OFFCURVE",
"180 436 OFFCURVE",
"180 498 CURVE SMOOTH",
"180 558 OFFCURVE",
"205 577 OFFCURVE",
"284 577 CURVE SMOOTH",
"387 577 LINE",
"387 531 LINE SMOOTH",
"387 444 OFFCURVE",
"362 417 OFFCURVE",
"284 417 CURVE SMOOTH"
);
}
);
width = 600;
},
{
components = (
{
name = hyphen;
transform = "{1, 0, 0, 1, 5, -200}";
}
);
layerId = "291433DC-531A-45CC-B814-57D397372F12";
paths = (
{
closed = 1;
nodes = (
"340 325 OFFCURVE",
"366 335 OFFCURVE",
"399 365 CURVE",
"416 339 OFFCURVE",
"443 332 OFFCURVE",
"510 335 CURVE",
"510 425 LINE",
"481 428 OFFCURVE",
"472 431 OFFCURVE",
"472 438 CURVE SMOOTH",
"472 642 LINE SMOOTH",
"472 773 OFFCURVE",
"429 814 OFFCURVE",
"294 814 CURVE SMOOTH",
"188 814 OFFCURVE",
"146 779 OFFCURVE",
"120 668 CURVE",
"218 652 LINE",
"232 705 OFFCURVE",
"250 722 OFFCURVE",
"294 722 CURVE SMOOTH",
"353 722 OFFCURVE",
"372 703 OFFCURVE",
"372 642 CURVE SMOOTH",
"372 615 LINE",
"294 615 LINE SMOOTH",
"158 615 OFFCURVE",
"115 581 OFFCURVE",
"115 475 CURVE SMOOTH",
"115 361 OFFCURVE",
"158 325 OFFCURVE",
"294 325 CURVE SMOOTH"
);
},
{
closed = 1;
nodes = (
"234 417 OFFCURVE",
"215 431 OFFCURVE",
"215 475 CURVE SMOOTH",
"215 518 OFFCURVE",
"234 531 OFFCURVE",
"294 531 CURVE SMOOTH",
"372 531 LINE",
"372 498 LINE SMOOTH",
"372 436 OFFCURVE",
"353 417 OFFCURVE",
"294 417 CURVE SMOOTH"
);
}
);
width = 600;
}
);
unicode = 00AA;
},
{
color = 4;
glyphname = ordmasculine;
lastChange = "2020-01-07 07:10:03 +0000";
layers = (
{
components = (
{
name = hyphen;
transform = "{1, 0, 0, 1, 0, -141}";
}
);
layerId = "7C079D0C-96CD-4BD8-8800-0621C7635A78";
paths = (
{
closed = 1;
nodes = (
"425 371 OFFCURVE",
"465 424 OFFCURVE",
"465 593 CURVE SMOOTH",
"465 761 OFFCURVE",
"425 814 OFFCURVE",
"300 814 CURVE SMOOTH",
"175 814 OFFCURVE",
"135 761 OFFCURVE",
"135 593 CURVE SMOOTH",
"135 424 OFFCURVE",
"175 371 OFFCURVE",
"300 371 CURVE SMOOTH"
);
},
{
closed = 1;
nodes = (
"213 417 OFFCURVE",
"185 459 OFFCURVE",
"185 593 CURVE SMOOTH",
"185 726 OFFCURVE",
"213 768 OFFCURVE",
"300 768 CURVE SMOOTH",
"387 768 OFFCURVE",
"415 726 OFFCURVE",
"415 593 CURVE SMOOTH",
"415 459 OFFCURVE",
"387 417 OFFCURVE",
"300 417 CURVE SMOOTH"
);
}
);
width = 600;
},
{
components = (
{
name = hyphen;
transform = "{1, 0, 0, 1, 0, -200}";
}
);
layerId = "291433DC-531A-45CC-B814-57D397372F12";
paths = (
{
closed = 1;
nodes = (
"444 325 OFFCURVE",
"490 384 OFFCURVE",
"490 570 CURVE SMOOTH",
"490 755 OFFCURVE",
"444 814 OFFCURVE",
"300 814 CURVE SMOOTH",
"156 814 OFFCURVE",
"110 755 OFFCURVE",
"110 570 CURVE SMOOTH",
"110 384 OFFCURVE",
"156 325 OFFCURVE",
"300 325 CURVE SMOOTH"
);
},
{
closed = 1;
nodes = (
"232 417 OFFCURVE",
"210 454 OFFCURVE",
"210 570 CURVE SMOOTH",
"210 686 OFFCURVE",
"232 722 OFFCURVE",
"300 722 CURVE SMOOTH",
"368 722 OFFCURVE",
"390 686 OFFCURVE",
"390 570 CURVE SMOOTH",
"390 454 OFFCURVE",
"368 417 OFFCURVE",
"300 417 CURVE SMOOTH"
);
}
);
width = 600;
}
);
unicode = 00BA;
},
{
color = 4;
glyphname = ainferior;
lastChange = "2020-01-07 07:10:03 +0000";
layers = (
{
layerId = "7C079D0C-96CD-4BD8-8800-0621C7635A78";
paths = (
{
closed = 1;
nodes = (
"346 -64 OFFCURVE",
"373 -49 OFFCURVE",
"397 0 CURVE",
"405 -45 OFFCURVE",
"424 -59 OFFCURVE",
"475 -59 CURVE",
"475 -12 LINE",
"446 -11 OFFCURVE",
"437 -3 OFFCURVE",
"437 22 CURVE SMOOTH",
"437 230 LINE SMOOTH",
"437 343 OFFCURVE",
"400 379 OFFCURVE",
"284 379 CURVE SMOOTH",
"199 379 OFFCURVE",
"165 354 OFFCURVE",
"141 274 CURVE",
"190 266 LINE",
"206 317 OFFCURVE",
"229 333 OFFCURVE",
"284 333 CURVE SMOOTH",
"362 333 OFFCURVE",
"387 308 OFFCURVE",
"387 230 CURVE SMOOTH",
"387 180 LINE",
"284 180 LINE SMOOTH",
"167 180 OFFCURVE",
"130 152 OFFCURVE",
"130 63 CURVE SMOOTH",
"130 -34 OFFCURVE",
"167 -64 OFFCURVE",
"284 -64 CURVE SMOOTH"
);
},
{
closed = 1;
nodes = (
"205 -18 OFFCURVE",
"180 1 OFFCURVE",
"180 63 CURVE SMOOTH",
"180 123 OFFCURVE",
"205 142 OFFCURVE",
"284 142 CURVE SMOOTH",
"387 142 LINE",
"387 96 LINE SMOOTH",
"387 9 OFFCURVE",
"362 -18 OFFCURVE",
"284 -18 CURVE SMOOTH"
);
}
);
width = 600;
},
{
layerId = "291433DC-531A-45CC-B814-57D397372F12";
paths = (
{
closed = 1;
nodes = (
"345 -64 OFFCURVE",
"370 -56 OFFCURVE",
"399 -29 CURVE",
"414 -52 OFFCURVE",
"441 -59 OFFCURVE",
"510 -59 CURVE",
"510 32 LINE",
"481 35 OFFCURVE",
"472 38 OFFCURVE",
"472 45 CURVE SMOOTH",
"472 253 LINE SMOOTH",
"472 384 OFFCURVE",
"429 425 OFFCURVE",
"294 425 CURVE SMOOTH",
"188 425 OFFCURVE",
"146 390 OFFCURVE",
"120 279 CURVE",
"218 263 LINE",
"232 316 OFFCURVE",
"250 333 OFFCURVE",
"294 333 CURVE SMOOTH",
"353 333 OFFCURVE",
"372 314 OFFCURVE",
"372 253 CURVE SMOOTH",
"372 226 LINE",
"294 226 LINE SMOOTH",
"158 226 OFFCURVE",
"115 192 OFFCURVE",
"115 86 CURVE SMOOTH",
"115 -28 OFFCURVE",
"158 -64 OFFCURVE",
"294 -64 CURVE SMOOTH"
);
},
{
closed = 1;
nodes = (
"234 28 OFFCURVE",
"215 42 OFFCURVE",
"215 86 CURVE SMOOTH",
"215 129 OFFCURVE",
"234 142 OFFCURVE",
"294 142 CURVE SMOOTH",
"372 142 LINE",
"372 109 LINE SMOOTH",
"372 47 OFFCURVE",
"353 28 OFFCURVE",
"294 28 CURVE SMOOTH"
);
}
);
width = 600;
}
);
unicode = 2090;
},
{
color = 4;
glyphname = einferior;
lastChange = "2020-01-07 07:10:03 +0000";
layers = (
{
layerId = "7C079D0C-96CD-4BD8-8800-0621C7635A78";
paths = (
{
closed = 1;
nodes = (
"392 -64 OFFCURVE",
"426 -42 OFFCURVE",
"458 26 CURVE",
"418 53 LINE",
"394 -1 OFFCURVE",
"368 -18 OFFCURVE",
"313 -18 CURVE SMOOTH",
"220 -18 OFFCURVE",
"191 24 OFFCURVE",
"191 156 CURVE SMOOTH",
"191 291 OFFCURVE",
"220 333 OFFCURVE",
"313 333 CURVE SMOOTH",
"382 333 OFFCURVE",
"407 299 OFFCURVE",
"418 192 CURVE",
"170 192 LINE",
"170 146 LINE",
"469 146 LINE",
"469 323 OFFCURVE",
"432 379 OFFCURVE",
"313 379 CURVE SMOOTH",
"182 379 OFFCURVE",
"141 323 OFFCURVE",
"141 147 CURVE SMOOTH",
"141 -13 OFFCURVE",
"182 -64 OFFCURVE",
"313 -64 CURVE SMOOTH"
);
}
);
width = 600;
},
{
layerId = "291433DC-531A-45CC-B814-57D397372F12";
paths = (
{
closed = 1;
nodes = (
"411 -64 OFFCURVE",
"453 -37 OFFCURVE",
"488 47 CURVE",
"407 102 LINE",
"383 46 OFFCURVE",
"361 28 OFFCURVE",
"313 28 CURVE SMOOTH",
"239 28 OFFCURVE",
"216 65 OFFCURVE",
"216 182 CURVE SMOOTH",
"216 297 OFFCURVE",
"239 333 OFFCURVE",
"313 333 CURVE SMOOTH",
"361 333 OFFCURVE",
"380 311 OFFCURVE",
"390 241 CURVE",
"145 241 LINE",
"145 149 LINE",
"494 149 LINE",
"494 359 OFFCURVE",
"455 425 OFFCURVE",
"313 425 CURVE SMOOTH",
"163 425 OFFCURVE",
"116 365 OFFCURVE",
"116 173 CURVE SMOOTH",
"116 -7 OFFCURVE",
"163 -64 OFFCURVE",
"313 -64 CURVE SMOOTH"
);
}
);
width = 600;
}
);
unicode = 2091;
},
{
color = 4;
glyphname = imod;
lastChange = "2020-01-07 07:10:03 +0000";
layers = (
{
layerId = "7C079D0C-96CD-4BD8-8800-0621C7635A78";
paths = (
{
closed = 1;
nodes = (
"351 284 LINE",
"351 708 LINE",
"217 708 LINE",
"217 662 LINE",
"332 662 LINE",
"301 693 LINE",
"301 284 LINE"
);
},
{
closed = 1;
nodes = (
"466 284 LINE",
"466 330 LINE",
"186 330 LINE",
"186 284 LINE"
);
},
{
closed = 1;
nodes = (
"341 795 OFFCURVE",
"351 804 OFFCURVE",
"351 834 CURVE SMOOTH",
"351 862 OFFCURVE",
"341 871 OFFCURVE",
"310 871 CURVE SMOOTH",
"279 871 OFFCURVE",
"269 862 OFFCURVE",
"269 834 CURVE SMOOTH",
"269 804 OFFCURVE",
"279 795 OFFCURVE",
"310 795 CURVE SMOOTH"
);
}
);
width = 600;
},
{
layerId = "291433DC-531A-45CC-B814-57D397372F12";
paths = (
{
closed = 1;
nodes = (
"376 228 LINE",
"376 698 LINE",
"192 698 LINE",
"192 606 LINE",
"339 606 LINE",
"276 669 LINE",
"276 228 LINE"
);
},
{
closed = 1;
nodes = (
"491 228 LINE",
"491 320 LINE",
"161 320 LINE",
"161 228 LINE"
);
},
{
closed = 1;
nodes = (
"361 775 OFFCURVE",
"379 791 OFFCURVE",
"379 831 CURVE SMOOTH",
"379 869 OFFCURVE",
"361 885 OFFCURVE",
"320 885 CURVE SMOOTH",
"279 885 OFFCURVE",
"261 869 OFFCURVE",
"261 831 CURVE SMOOTH",
"261 791 OFFCURVE",
"279 775 OFFCURVE",
"320 775 CURVE SMOOTH"
);
}
);
width = 600;
}
);
unicode = 2071;
},
{
color = 4;
glyphname = nmod;
lastChange = "2020-01-07 07:10:03 +0000";
layers = (
{
layerId = "7C079D0C-96CD-4BD8-8800-0621C7635A78";
paths = (
{
closed = 1;
nodes = (
"188 284 LINE",
"188 534 LINE SMOOTH",
"188 642 OFFCURVE",
"219 676 OFFCURVE",
"318 676 CURVE SMOOTH",
"390 676 OFFCURVE",
"413 634 OFFCURVE",
"413 503 CURVE SMOOTH",
"413 284 LINE",
"463 284 LINE",
"463 503 LINE SMOOTH",
"463 669 OFFCURVE",
"428 722 OFFCURVE",
"318 722 CURVE SMOOTH",
"249 722 OFFCURVE",
"218 708 OFFCURVE",
"188 664 CURVE",
"188 717 LINE",
"138 717 LINE",
"138 284 LINE"
);
}
);
width = 600;
},
{
layerId = "291433DC-531A-45CC-B814-57D397372F12";
paths = (
{
closed = 1;
nodes = (
"213 228 LINE",
"213 481 LINE SMOOTH",
"213 587 OFFCURVE",
"238 620 OFFCURVE",
"318 620 CURVE SMOOTH",
"371 620 OFFCURVE",
"388 584 OFFCURVE",
"388 470 CURVE SMOOTH",
"388 228 LINE",
"488 228 LINE",
"488 470 LINE SMOOTH",
"488 654 OFFCURVE",
"447 712 OFFCURVE",
"318 712 CURVE SMOOTH",
"286 712 OFFCURVE",
"261 702 OFFCURVE",
"213 672 CURVE",
"213 707 LINE",
"113 707 LINE",
"113 228 LINE"
);
}
);
width = 600;
}
);
unicode = 207F;
},
{
color = 4;
glyphname = oinferior;
lastChange = "2020-01-07 07:10:03 +0000";
layers = (
{
layerId = "7C079D0C-96CD-4BD8-8800-0621C7635A78";
paths = (
{
closed = 1;
nodes = (
"425 -64 OFFCURVE",
"465 -11 OFFCURVE",
"465 158 CURVE SMOOTH",
"465 326 OFFCURVE",
"425 379 OFFCURVE",
"300 379 CURVE SMOOTH",
"175 379 OFFCURVE",
"135 326 OFFCURVE",
"135 158 CURVE SMOOTH",
"135 -11 OFFCURVE",
"175 -64 OFFCURVE",
"300 -64 CURVE SMOOTH"
);
},
{
closed = 1;
nodes = (
"213 -18 OFFCURVE",
"185 24 OFFCURVE",
"185 158 CURVE SMOOTH",
"185 291 OFFCURVE",
"213 333 OFFCURVE",
"300 333 CURVE SMOOTH",
"387 333 OFFCURVE",
"415 291 OFFCURVE",
"415 158 CURVE SMOOTH",
"415 24 OFFCURVE",
"387 -18 OFFCURVE",
"300 -18 CURVE SMOOTH"
);
}
);
width = 600;
},
{
layerId = "291433DC-531A-45CC-B814-57D397372F12";
paths = (
{
closed = 1;
nodes = (
"444 -64 OFFCURVE",
"490 -5 OFFCURVE",
"490 181 CURVE SMOOTH",
"490 366 OFFCURVE",
"444 425 OFFCURVE",
"300 425 CURVE SMOOTH",
"156 425 OFFCURVE",
"110 366 OFFCURVE",
"110 181 CURVE SMOOTH",
"110 -5 OFFCURVE",
"156 -64 OFFCURVE",
"300 -64 CURVE SMOOTH"
);
},
{
closed = 1;
nodes = (
"232 28 OFFCURVE",
"210 65 OFFCURVE",
"210 181 CURVE SMOOTH",
"210 297 OFFCURVE",
"232 333 OFFCURVE",
"300 333 CURVE SMOOTH",
"368 333 OFFCURVE",
"390 297 OFFCURVE",
"390 181 CURVE SMOOTH",
"390 65 OFFCURVE",
"368 28 OFFCURVE",
"300 28 CURVE SMOOTH"
);
}
);
width = 600;
}
);
unicode = 2092;
},
{
color = 4;
glyphname = schwainferior;
lastChange = "2020-01-07 07:10:03 +0000";
layers = (
{
layerId = "7C079D0C-96CD-4BD8-8800-0621C7635A78";
paths = (
{
closed = 1;
nodes = (
"208 379 OFFCURVE",
"174 357 OFFCURVE",
"142 289 CURVE",
"182 262 LINE",
"206 316 OFFCURVE",
"232 333 OFFCURVE",
"287 333 CURVE SMOOTH",
"380 333 OFFCURVE",
"409 291 OFFCURVE",
"409 159 CURVE SMOOTH",
"409 24 OFFCURVE",
"380 -18 OFFCURVE",
"287 -18 CURVE SMOOTH",
"218 -18 OFFCURVE",
"193 16 OFFCURVE",
"182 123 CURVE",
"430 123 LINE",
"430 169 LINE",
"131 169 LINE",
"131 -8 OFFCURVE",
"168 -64 OFFCURVE",
"287 -64 CURVE SMOOTH",
"418 -64 OFFCURVE",
"459 -8 OFFCURVE",
"459 168 CURVE SMOOTH",
"459 328 OFFCURVE",
"418 379 OFFCURVE",
"287 379 CURVE SMOOTH"
);
}
);
width = 600;
},
{
layerId = "291433DC-531A-45CC-B814-57D397372F12";
paths = (
{
closed = 1;
nodes = (
"189 425 OFFCURVE",
"147 398 OFFCURVE",
"112 314 CURVE",
"193 259 LINE",
"217 315 OFFCURVE",
"239 333 OFFCURVE",
"287 333 CURVE SMOOTH",
"361 333 OFFCURVE",
"384 296 OFFCURVE",
"384 179 CURVE SMOOTH",
"384 64 OFFCURVE",
"361 28 OFFCURVE",
"287 28 CURVE SMOOTH",
"239 28 OFFCURVE",
"220 50 OFFCURVE",
"210 120 CURVE",
"455 120 LINE",
"455 212 LINE",
"106 212 LINE",
"106 2 OFFCURVE",
"145 -64 OFFCURVE",
"287 -64 CURVE SMOOTH",
"437 -64 OFFCURVE",
"484 -4 OFFCURVE",
"484 188 CURVE SMOOTH",
"484 368 OFFCURVE",
"437 425 OFFCURVE",
"287 425 CURVE SMOOTH"
);
}
);
width = 600;
}
);
unicode = 2094;
},
{
color = 4;
glyphname = xinferior;
lastChange = "2020-01-07 07:10:03 +0000";
layers = (
{
layerId = "7C079D0C-96CD-4BD8-8800-0621C7635A78";
paths = (
{
closed = 1;
nodes = (
"408 374 LINE",
"465 374 LINE",
"192 -59 LINE",
"135 -59 LINE"
);
},
{
closed = 1;
nodes = (
"135 374 LINE",
"192 374 LINE",
"465 -59 LINE",
"408 -59 LINE"
);
}
);
width = 600;
},
{
layerId = "291433DC-531A-45CC-B814-57D397372F12";
paths = (
{
closed = 1;
nodes = (
"393 420 LINE",
"507 420 LINE",
"207 -59 LINE",
"93 -59 LINE"
);
},
{
closed = 1;
nodes = (
"93 420 LINE",
"207 420 LINE",
"507 -59 LINE",
"393 -59 LINE"
);
}
);
width = 600;
}
);
unicode = 2093;
},
{
color = 4;
glyphname = "Be-cy";
lastChange = "2020-01-07 07:10:03 +0000";
layers = (
{
layerId = "7C079D0C-96CD-4BD8-8800-0621C7635A78";
paths = (
{
closed = 1;
nodes = (
"309 0 LINE SMOOTH",
"472 0 OFFCURVE",
"524 59 OFFCURVE",
"524 247 CURVE SMOOTH",
"524 433 OFFCURVE",
"472 492 OFFCURVE",
"309 492 CURVE SMOOTH",
"144 492 LINE",
"144 754 LINE",
"444 754 LINE",
"444 800 LINE",
"94 800 LINE",
"94 0 LINE"
);
},
{
closed = 1;
nodes = (
"144 446 LINE",
"309 446 LINE SMOOTH",
"434 446 OFFCURVE",
"474 398 OFFCURVE",
"474 247 CURVE SMOOTH",
"474 94 OFFCURVE",
"434 46 OFFCURVE",
"309 46 CURVE SMOOTH",
"144 46 LINE"
);
}
);
width = 600;
},
{
layerId = "291433DC-531A-45CC-B814-57D397372F12";
paths = (
{
closed = 1;
nodes = (
"309 0 LINE SMOOTH",
"491 0 OFFCURVE",
"549 62 OFFCURVE",
"549 260 CURVE SMOOTH",
"549 456 OFFCURVE",
"491 518 OFFCURVE",
"309 518 CURVE SMOOTH",
"169 518 LINE",
"169 708 LINE",
"469 708 LINE",
"469 800 LINE",
"69 800 LINE",
"69 0 LINE"
);
},
{
closed = 1;
nodes = (
"169 426 LINE",
"309 426 LINE SMOOTH",
"415 426 OFFCURVE",
"449 386 OFFCURVE",
"449 260 CURVE SMOOTH",
"449 132 OFFCURVE",
"415 92 OFFCURVE",
"309 92 CURVE SMOOTH",
"169 92 LINE"
);
}
);
width = 600;
}
);
unicode = 0411;
},
{
color = 4;
glyphname = "Ge-cy";
lastChange = "2020-01-07 07:10:03 +0000";
layers = (
{
anchors = (
{
name = bottomright;
position = "{580, 0}";
},
{
name = top;
position = "{300, 800}";
}
);
layerId = "7C079D0C-96CD-4BD8-8800-0621C7635A78";
paths = (
{
closed = 1;
nodes = (
"153 0 LINE",
"153 785 LINE",
"122 754 LINE",
"527 754 LINE",
"527 800 LINE",
"103 800 LINE",
"103 0 LINE"
);
}
);
width = 600;
},
{
anchors = (
{
name = bottomright;
position = "{580, 0}";
},
{
name = top;
position = "{300, 800}";
}
);
layerId = "291433DC-531A-45CC-B814-57D397372F12";
paths = (
{
closed = 1;
nodes = (
"178 0 LINE",
"178 781 LINE",
"105 708 LINE",
"552 708 LINE",
"552 800 LINE",
"78 800 LINE",
"78 0 LINE"
);
}
);
width = 600;
}
);
unicode = 0413;
},
{
color = 4;
glyphname = "Gheupturn-cy";
lastChange = "2020-01-07 07:10:03 +0000";
layers = (
{
components = (
{
name = "Ge-cy";
}
);
layerId = "7C079D0C-96CD-4BD8-8800-0621C7635A78";
paths = (
{
closed = 1;
nodes = (
"527 925 LINE",
"527 800 LINE",
"477 800 LINE",
"477 925 LINE"
);
}
);
width = 600;
},
{
components = (
{
name = "Ge-cy";
}
);
layerId = "291433DC-531A-45CC-B814-57D397372F12";
paths = (
{
closed = 1;
nodes = (
"552 945 LINE",
"552 800 LINE",
"452 800 LINE",
"452 945 LINE"
);
}
);
width = 600;
}
);
unicode = 0490;
},
{
color = 4;
glyphname = "De-cy";
lastChange = "2020-01-07 07:10:03 +0000";
layers = (
{
layerId = "7C079D0C-96CD-4BD8-8800-0621C7635A78";
paths = (
{
closed = 1;
nodes = (
"133 46 LINE",
"207 116 OFFCURVE",
"242 344 OFFCURVE",
"265 754 CURVE",
"466 754 LINE",
"466 46 LINE",
"516 46 LINE",
"516 800 LINE",
"220 800 LINE",
"193 344 OFFCURVE",
"167 116 OFFCURVE",
"65 46 CURVE"
);
},
{
closed = 1;
nodes = (
"84 -88 LINE",
"84 0 LINE",
"516 0 LINE",
"516 -88 LINE",
"566 -88 LINE",
"566 46 LINE",
"34 46 LINE",
"34 -88 LINE"
);
}
);
width = 600;
},
{
layerId = "291433DC-531A-45CC-B814-57D397372F12";
paths = (
{
closed = 1;
nodes = (
"199 92 LINE",
"269 157 OFFCURVE",
"279 262 OFFCURVE",
"305 708 CURVE",
"425 708 LINE",
"425 92 LINE",
"525 92 LINE",
"525 800 LINE",
"212 800 LINE",
"181 266 OFFCURVE",
"174 158 OFFCURVE",
"56 92 CURVE"
);
},
{
closed = 1;
nodes = (
"125 -88 LINE",
"125 0 LINE",
"475 0 LINE",
"475 -88 LINE",
"575 -88 LINE",
"575 92 LINE",
"25 92 LINE",
"25 -88 LINE"
);
}
);
width = 600;
}
);
unicode = 0414;
},
{
color = 4;
glyphname = "Zhe-cy";
lastChange = "2020-01-07 07:10:03 +0000";
layers = (
{
anchors = (
{
name = bottomright;
position = "{580, 0}";
},
{
name = top;
position = "{300, 800}";
}
);
layerId = "7C079D0C-96CD-4BD8-8800-0621C7635A78";
paths = (
{
closed = 1;
nodes = (
"380 400 LINE",
"600 800 LINE",
"545 800 LINE",
"325 400 LINE"
);
},
{
closed = 1;
nodes = (
"55 0 LINE",
"275 400 LINE",
"220 400 LINE",
"0 0 LINE"
);
},
{
closed = 1;
nodes = (
"600 0 LINE",
"380 400 LINE",
"325 400 LINE",
"545 0 LINE"
);
},
{
closed = 1;
nodes = (
"325 0 LINE",
"325 800 LINE",
"275 800 LINE",
"275 0 LINE"
);
},
{
closed = 1;
nodes = (
"275 400 LINE",
"55 800 LINE",
"0 800 LINE",
"220 400 LINE"
);
}
);
width = 600;
},
{
anchors = (
{
name = bottomright;
position = "{580, 0}";
},
{
name = top;
position = "{300, 800}";
}
);
layerId = "291433DC-531A-45CC-B814-57D397372F12";
paths = (
{
closed = 1;
nodes = (
"461 400 LINE",
"600 800 LINE",
"489 800 LINE",
"350 400 LINE"
);
},
{
closed = 1;
nodes = (
"111 0 LINE",
"250 400 LINE",
"139 400 LINE",
"0 0 LINE"
);
},
{
closed = 1;
nodes = (
"600 0 LINE",
"461 400 LINE",
"350 400 LINE",
"489 0 LINE"
);
},
{
closed = 1;
nodes = (
"350 0 LINE",
"350 800 LINE",
"250 800 LINE",
"250 0 LINE"
);
},
{
closed = 1;
nodes = (
"250 400 LINE",
"111 800 LINE",
"0 800 LINE",
"139 400 LINE"
);
}
);
width = 600;
}
);
unicode = 0416;
},
{
color = 4;
glyphname = "Ii-cy";
lastChange = "2020-01-07 07:10:03 +0000";
layers = (
{
anchors = (
{
name = bottom;
position = "{300, -3}";
},
{
name = bottomright;
position = "{580, 0}";
},
{
name = top;
position = "{300, 800}";
}
);
layerId = "7C079D0C-96CD-4BD8-8800-0621C7635A78";
paths = (
{
closed = 1;
nodes = (
"140 0 LINE",
"514 800 LINE",
"464 800 LINE",
"464 0 LINE",
"514 0 LINE",
"514 800 LINE",
"460 800 LINE",
"86 0 LINE",
"136 0 LINE",
"136 800 LINE",
"86 800 LINE",
"86 0 LINE"
);
}
);
width = 600;
},
{
anchors = (
{
name = bottom;
position = "{300, -3}";
},
{
name = bottomright;
position = "{580, 0}";
},
{
name = top;
position = "{300, 800}";
}
);
layerId = "291433DC-531A-45CC-B814-57D397372F12";
paths = (
{
closed = 1;
nodes = (
"168 0 LINE",
"539 800 LINE",
"439 800 LINE",
"439 0 LINE",
"539 0 LINE",
"539 800 LINE",
"432 800 LINE",
"61 0 LINE",
"161 0 LINE",
"161 800 LINE",
"61 800 LINE",
"61 0 LINE"
);
}
);
width = 600;
}
);
unicode = 0418;
},
{
color = 4;
glyphname = "Ka-cy";
lastChange = "2020-01-07 07:10:03 +0000";
layers = (
{
anchors = (
{
name = bottomright;
position = "{580, 0}";
},
{
name = top;
position = "{300, 800}";
}
);
layerId = "7C079D0C-96CD-4BD8-8800-0621C7635A78";
paths = (
{
closed = 1;
nodes = (
"226 400 LINE",
"424 415 OFFCURVE",
"378 685 OFFCURVE",
"553 800 CURVE",
"482 800 LINE",
"338 685 OFFCURVE",
"382 455 OFFCURVE",
"202 446 CURVE",
"112 446 LINE",
"112 400 LINE"
);
},
{
closed = 1;
nodes = (
"140 0 LINE",
"140 800 LINE",
"90 800 LINE",
"90 0 LINE"
);
},
{
closed = 1;
nodes = (
"558 0 LINE",
"254 433 LINE",
"204 420 LINE",
"498 0 LINE"
);
}
);
width = 600;
},
{
anchors = (
{
name = bottomright;
position = "{580, 0}";
},
{
name = top;
position = "{300, 800}";
}
);
layerId = "291433DC-531A-45CC-B814-57D397372F12";
paths = (
{
closed = 1;
nodes = (
"176 377 LINE SMOOTH",
"392 377 OFFCURVE",
"391 676 OFFCURVE",
"580 800 CURVE",
"440 800 LINE",
"336 752 OFFCURVE",
"314 469 OFFCURVE",
"150 469 CURVE SMOOTH",
"56 469 LINE",
"56 377 LINE"
);
},
{
closed = 1;
nodes = (
"134 0 LINE",
"134 800 LINE",
"34 800 LINE",
"34 0 LINE"
);
},
{
closed = 1;
nodes = (
"553 0 LINE",
"214 460 LINE",
"114 434 LINE",
"433 0 LINE"
);
}
);
width = 600;
}
);
unicode = 041A;
},
{
color = 4;
glyphname = "El-cy";
lastChange = "2020-01-07 07:10:03 +0000";
layers = (
{
layerId = "7C079D0C-96CD-4BD8-8800-0621C7635A78";
paths = (
{
closed = 1;
nodes = (
"540 0 LINE",
"540 800 LINE",
"236 800 LINE",
"236 754 LINE",
"490 754 LINE",
"490 0 LINE"
);
},
{
closed = 1;
nodes = (
"219 0 OFFCURVE",
"229 167 OFFCURVE",
"264 800 CURVE",
"215 800 LINE",
"183 210 OFFCURVE",
"169 46 OFFCURVE",
"50 46 CURVE",
"50 0 LINE"
);
}
);
width = 600;
},
{
layerId = "291433DC-531A-45CC-B814-57D397372F12";
paths = (
{
closed = 1;
nodes = (
"550 0 LINE",
"550 800 LINE",
"226 800 LINE",
"226 708 LINE",
"450 708 LINE",
"450 0 LINE"
);
},
{
closed = 1;
nodes = (
"258 0 OFFCURVE",
"268 143 OFFCURVE",
"305 800 CURVE",
"205 800 LINE",
"178 165 OFFCURVE",
"143 93 OFFCURVE",
"40 93 CURVE",
"40 0 LINE"
);
}
);
width = 600;
}
);
unicode = 041B;
},
{
color = 4;
glyphname = "Pe-cy";
lastChange = "2020-01-07 07:10:03 +0000";
layers = (
{
layerId = "7C079D0C-96CD-4BD8-8800-0621C7635A78";
paths = (
{
closed = 1;
nodes = (
"120 0 LINE",
"120 754 LINE",
"480 754 LINE",
"480 0 LINE",
"530 0 LINE",
"530 800 LINE",
"70 800 LINE",
"70 0 LINE"
);
}
);
width = 600;
},
{
layerId = "291433DC-531A-45CC-B814-57D397372F12";
paths = (
{
closed = 1;
nodes = (
"155 0 LINE",
"155 708 LINE",
"445 708 LINE",
"445 0 LINE",
"545 0 LINE",
"545 800 LINE",
"55 800 LINE",
"55 0 LINE"
);
}
);
width = 600;
}
);
unicode = 041F;
},
{
color = 4;
glyphname = "U-cy";
lastChange = "2020-01-07 07:10:03 +0000";
layers = (
{
anchors = (
{
name = bottom;
position = "{322, -3}";
},
{
name = top;
position = "{320, 800}";
}
);
layerId = "7C079D0C-96CD-4BD8-8800-0621C7635A78";
paths = (
{
closed = 1;
nodes = (
"287 -14 OFFCURVE",
"348 32 OFFCURVE",
"389 179 CURVE SMOOTH",
"564 800 LINE",
"513 800 LINE",
"345 202 LINE SMOOTH",
"306 62 OFFCURVE",
"269 32 OFFCURVE",
"172 32 CURVE SMOOTH",
"148 32 OFFCURVE",
"131 37 OFFCURVE",
"102 53 CURVE",
"82 11 LINE",
"112 -8 OFFCURVE",
"134 -14 OFFCURVE",
"172 -14 CURVE SMOOTH"
);
},
{
closed = 1;
nodes = (
"335 111 LINE",
"107 800 LINE",
"55 800 LINE",
"300 61 LINE"
);
}
);
width = 600;
},
{
anchors = (
{
name = bottom;
position = "{322, -3}";
},
{
name = top;
position = "{320, 800}";
}
);
layerId = "291433DC-531A-45CC-B814-57D397372F12";
paths = (
{
closed = 1;
nodes = (
"304 -14 OFFCURVE",
"372 44 OFFCURVE",
"413 196 CURVE SMOOTH",
"576 800 LINE",
"474 800 LINE",
"321 231 LINE SMOOTH",
"286 102 OFFCURVE",
"258 78 OFFCURVE",
"172 78 CURVE SMOOTH",
"147 78 OFFCURVE",
"135 84 OFFCURVE",
"91 110 CURVE",
"51 26 LINE",
"92 -3 OFFCURVE",
"122 -14 OFFCURVE",
"172 -14 CURVE SMOOTH"
);
},
{
closed = 1;
nodes = (
"351 159 LINE",
"144 800 LINE",
"41 800 LINE",
"285 45 LINE"
);
}
);
width = 600;
}
);
unicode = 0423;
},
{
color = 4;
glyphname = "Ef-cy";
lastChange = "2020-06-18 17:26:13 +0000";
layers = (
{
layerId = "7C079D0C-96CD-4BD8-8800-0621C7635A78";
paths = (
{
closed = 1;
nodes = (
"519 98 OFFCURVE",
"588 171 OFFCURVE",
"588 401 CURVE SMOOTH",
"588 631 OFFCURVE",
"519 703 OFFCURVE",
"301 703 CURVE SMOOTH",
"81 703 OFFCURVE",
"12 631 OFFCURVE",
"12 401 CURVE SMOOTH",
"12 171 OFFCURVE",
"81 98 OFFCURVE",
"301 98 CURVE SMOOTH"
);
},
{
closed = 1;
nodes = (
"119 144 OFFCURVE",
"62 206 OFFCURVE",
"62 401 CURVE SMOOTH",
"62 596 OFFCURVE",
"119 657 OFFCURVE",
"301 657 CURVE SMOOTH",
"481 657 OFFCURVE",
"538 596 OFFCURVE",
"538 401 CURVE SMOOTH",
"538 206 OFFCURVE",
"481 144 OFFCURVE",
"301 144 CURVE SMOOTH"
);
},
{
closed = 1;
nodes = (
"325 0 LINE",
"325 800 LINE",
"275 800 LINE",
"275 0 LINE"
);
}
);
width = 600;
},
{
layerId = "291433DC-531A-45CC-B814-57D397372F12";
paths = (
{
closed = 1;
nodes = (
"521 85 OFFCURVE",
"590 161 OFFCURVE",
"590 401 CURVE SMOOTH",
"590 640 OFFCURVE",
"521 716 OFFCURVE",
"301 716 CURVE SMOOTH",
"80 716 OFFCURVE",
"10 640 OFFCURVE",
"10 401 CURVE SMOOTH",
"10 161 OFFCURVE",
"80 85 OFFCURVE",
"301 85 CURVE SMOOTH"
);
},
{
closed = 1;
nodes = (
"156 177 OFFCURVE",
"110 231 OFFCURVE",
"110 401 CURVE SMOOTH",
"110 570 OFFCURVE",
"156 624 OFFCURVE",
"301 624 CURVE SMOOTH",
"445 624 OFFCURVE",
"490 570 OFFCURVE",
"490 401 CURVE SMOOTH",
"490 231 OFFCURVE",
"445 177 OFFCURVE",
"301 177 CURVE SMOOTH"
);
},
{
closed = 1;
nodes = (
"350 0 LINE",
"350 800 LINE",
"250 800 LINE",
"250 0 LINE"
);
}
);
width = 600;
}
);
unicode = 0424;
},
{
color = 4;
glyphname = "Sha-cy";
lastChange = "2020-01-07 07:10:03 +0000";
layers = (
{
layerId = "7C079D0C-96CD-4BD8-8800-0621C7635A78";
paths = (
{
closed = 1;
nodes = (
"555 0 LINE",
"555 800 LINE",
"505 800 LINE",
"505 46 LINE",
"325 46 LINE",
"325 800 LINE",
"275 800 LINE",
"275 46 LINE",
"95 46 LINE",
"95 800 LINE",
"45 800 LINE",
"45 0 LINE"
);
}
);
width = 600;
},
{
layerId = "291433DC-531A-45CC-B814-57D397372F12";
paths = (
{
closed = 1;
nodes = (
"570 0 LINE",
"570 800 LINE",
"470 800 LINE",
"470 92 LINE",
"350 92 LINE",
"350 800 LINE",
"250 800 LINE",
"250 92 LINE",
"130 92 LINE",
"130 800 LINE",
"30 800 LINE",
"30 0 LINE"
);
}
);
width = 600;
}
);
unicode = 0428;
},
{
color = 4;
glyphname = "Shcha-cy";
lastChange = "2020-01-07 07:10:03 +0000";
layers = (
{
layerId = "7C079D0C-96CD-4BD8-8800-0621C7635A78";
paths = (
{
closed = 1;
nodes = (
"520 0 LINE",
"520 800 LINE",
"470 800 LINE",
"470 46 LINE",
"300 46 LINE",
"300 800 LINE",
"250 800 LINE",
"250 46 LINE",
"80 46 LINE",
"80 800 LINE",
"30 800 LINE",
"30 0 LINE"
);
},
{
closed = 1;
nodes = (
"570 -108 LINE",
"570 46 LINE",
"428 46 LINE",
"428 0 LINE",
"520 0 LINE",
"520 -108 LINE"
);
}
);
width = 600;
},
{
layerId = "291433DC-531A-45CC-B814-57D397372F12";
paths = (
{
closed = 1;
nodes = (
"500 0 LINE",
"500 800 LINE",
"400 800 LINE",
"400 92 LINE",
"300 92 LINE",
"300 800 LINE",
"200 800 LINE",
"200 92 LINE",
"100 92 LINE",
"100 800 LINE",
"0 800 LINE",
"0 0 LINE"
);
},
{
closed = 1;
nodes = (
"600 -108 LINE",
"600 92 LINE",
"408 92 LINE",
"408 0 LINE",
"500 0 LINE",
"500 -108 LINE"
);
}
);
width = 600;
}
);
unicode = 0429;
},
{
color = 4;
glyphname = "Softsign-cy";
lastChange = "2020-01-07 07:10:03 +0000";
layers = (
{
layerId = "7C079D0C-96CD-4BD8-8800-0621C7635A78";
paths = (
{
closed = 1;
nodes = (
"320 0 LINE SMOOTH",
"483 0 OFFCURVE",
"535 59 OFFCURVE",
"535 246 CURVE SMOOTH",
"535 433 OFFCURVE",
"483 492 OFFCURVE",
"320 492 CURVE SMOOTH",
"134 492 LINE",
"134 446 LINE",
"320 446 LINE SMOOTH",
"445 446 OFFCURVE",
"485 398 OFFCURVE",
"485 246 CURVE SMOOTH",
"485 94 OFFCURVE",
"445 46 OFFCURVE",
"320 46 CURVE SMOOTH",
"125 46 LINE",
"156 15 LINE",
"156 800 LINE",
"106 800 LINE",
"106 0 LINE"
);
}
);
width = 600;
},
{
layerId = "291433DC-531A-45CC-B814-57D397372F12";
paths = (
{
closed = 1;
nodes = (
"320 0 LINE SMOOTH",
"502 0 OFFCURVE",
"560 62 OFFCURVE",
"560 259 CURVE SMOOTH",
"560 456 OFFCURVE",
"502 518 OFFCURVE",
"320 518 CURVE SMOOTH",
"109 518 LINE",
"109 426 LINE",
"320 426 LINE SMOOTH",
"426 426 OFFCURVE",
"460 386 OFFCURVE",
"460 259 CURVE SMOOTH",
"460 132 OFFCURVE",
"426 92 OFFCURVE",
"320 92 CURVE SMOOTH",
"108 92 LINE",
"181 19 LINE",
"181 800 LINE",
"81 800 LINE",
"81 0 LINE"
);
}
);
width = 600;
}
);
unicode = 042C;
},
{
color = 4;
glyphname = "Hardsign-cy";
lastChange = "2020-01-07 07:10:03 +0000";
layers = (
{
layerId = "7C079D0C-96CD-4BD8-8800-0621C7635A78";
paths = (
{
closed = 1;
nodes = (
"176 754 LINE",
"176 800 LINE",
"25 800 LINE",
"25 754 LINE"
);
},
{
closed = 1;
nodes = (
"340 0 LINE SMOOTH",
"503 0 OFFCURVE",
"555 59 OFFCURVE",
"555 246 CURVE SMOOTH",
"555 433 OFFCURVE",
"503 492 OFFCURVE",
"340 492 CURVE SMOOTH",
"154 492 LINE",
"154 446 LINE",
"340 446 LINE SMOOTH",
"465 446 OFFCURVE",
"505 398 OFFCURVE",
"505 246 CURVE SMOOTH",
"505 94 OFFCURVE",
"465 46 OFFCURVE",
"340 46 CURVE SMOOTH",
"145 46 LINE",
"176 15 LINE",
"176 800 LINE",
"126 800 LINE",
"126 0 LINE"
);
}
);
width = 600;
},
{
layerId = "291433DC-531A-45CC-B814-57D397372F12";
paths = (
{
closed = 1;
nodes = (
"211 708 LINE",
"211 800 LINE",
"11 800 LINE",
"11 708 LINE"
);
},
{
closed = 1;
nodes = (
"350 0 LINE SMOOTH",
"532 0 OFFCURVE",
"590 62 OFFCURVE",
"590 259 CURVE SMOOTH",
"590 456 OFFCURVE",
"532 518 OFFCURVE",
"350 518 CURVE SMOOTH",
"139 518 LINE",
"139 426 LINE",
"350 426 LINE SMOOTH",
"456 426 OFFCURVE",
"490 386 OFFCURVE",
"490 259 CURVE SMOOTH",
"490 132 OFFCURVE",
"456 92 OFFCURVE",
"350 92 CURVE SMOOTH",
"138 92 LINE",
"211 19 LINE",
"211 800 LINE",
"111 800 LINE",
"111 0 LINE"
);
}
);
width = 600;
}
);
unicode = 042A;
},
{
color = 4;
glyphname = "Yeru-cy";
lastChange = "2020-01-07 07:10:03 +0000";
layers = (
{
anchors = (
{
name = top;
position = "{300, 800}";
}
);
layerId = "7C079D0C-96CD-4BD8-8800-0621C7635A78";
paths = (
{
closed = 1;
nodes = (
"230 0 LINE SMOOTH",
"378 0 OFFCURVE",
"425 59 OFFCURVE",
"425 246 CURVE SMOOTH",
"425 433 OFFCURVE",
"378 492 OFFCURVE",
"230 492 CURVE SMOOTH",
"83 492 LINE",
"83 446 LINE",
"230 446 LINE SMOOTH",
"340 446 OFFCURVE",
"375 398 OFFCURVE",
"375 246 CURVE SMOOTH",
"375 94 OFFCURVE",
"340 46 OFFCURVE",
"230 46 CURVE SMOOTH",
"74 46 LINE",
"105 15 LINE",
"105 800 LINE",
"55 800 LINE",
"55 0 LINE"
);
},
{
closed = 1;
nodes = (
"545 0 LINE",
"545 800 LINE",
"495 800 LINE",
"495 0 LINE"
);
}
);
width = 600;
},
{
anchors = (
{
name = top;
position = "{300, 800}";
}
);
layerId = "291433DC-531A-45CC-B814-57D397372F12";
paths = (
{
closed = 1;
nodes = (
"210 0 LINE SMOOTH",
"370 0 OFFCURVE",
"420 62 OFFCURVE",
"420 259 CURVE SMOOTH",
"420 456 OFFCURVE",
"370 518 OFFCURVE",
"210 518 CURVE SMOOTH",
"48 518 LINE",
"48 426 LINE",
"210 426 LINE SMOOTH",
"294 426 OFFCURVE",
"320 386 OFFCURVE",
"320 259 CURVE SMOOTH",
"320 132 OFFCURVE",
"294 92 OFFCURVE",
"210 92 CURVE SMOOTH",
"57 92 LINE",
"120 19 LINE",
"120 800 LINE",
"20 800 LINE",
"20 0 LINE"
);
},
{
closed = 1;
nodes = (
"580 0 LINE",
"580 800 LINE",
"480 800 LINE",
"480 0 LINE"
);
}
);
width = 600;
}
);
unicode = 042B;
},
{
color = 4;
glyphname = "Lje-cy";
lastChange = "2020-01-07 07:10:03 +0000";
layers = (
{
layerId = "7C079D0C-96CD-4BD8-8800-0621C7635A78";
paths = (
{
closed = 1;
nodes = (
"360 0 LINE",
"360 800 LINE",
"186 800 LINE",
"186 754 LINE",
"310 754 LINE",
"310 0 LINE"
);
},
{
closed = 1;
nodes = (
"169 0 OFFCURVE",
"179 167 OFFCURVE",
"214 800 CURVE",
"165 800 LINE",
"133 210 OFFCURVE",
"119 46 OFFCURVE",
"0 46 CURVE",
"0 0 LINE"
);
},
{
closed = 1;
nodes = (
"425 0 LINE SMOOTH",
"550 0 OFFCURVE",
"590 59 OFFCURVE",
"590 246 CURVE SMOOTH",
"590 433 OFFCURVE",
"550 492 OFFCURVE",
"425 492 CURVE SMOOTH",
"338 492 LINE",
"338 446 LINE",
"425 446 LINE SMOOTH",
"512 446 OFFCURVE",
"540 398 OFFCURVE",
"540 246 CURVE SMOOTH",
"540 94 OFFCURVE",
"512 46 OFFCURVE",
"425 46 CURVE SMOOTH",
"329 46 LINE",
"360 15 LINE",
"360 800 LINE",
"310 800 LINE",
"310 0 LINE"
);
}
);
width = 600;
},
{
layerId = "291433DC-531A-45CC-B814-57D397372F12";
paths = (
{
closed = 1;
nodes = (
"406 0 LINE",
"406 800 LINE",
"186 800 LINE",
"186 708 LINE",
"306 708 LINE",
"306 0 LINE"
);
},
{
closed = 1;
nodes = (
"218 0 OFFCURVE",
"228 143 OFFCURVE",
"265 800 CURVE",
"165 800 LINE",
"138 165 OFFCURVE",
"103 93 OFFCURVE",
"0 93 CURVE",
"0 0 LINE"
);
},
{
closed = 1;
nodes = (
"435 0 LINE SMOOTH",
"560 0 OFFCURVE",
"600 62 OFFCURVE",
"600 259 CURVE SMOOTH",
"600 456 OFFCURVE",
"560 518 OFFCURVE",
"435 518 CURVE SMOOTH",
"334 518 LINE",
"334 426 LINE",
"435 426 LINE SMOOTH",
"484 426 OFFCURVE",
"500 386 OFFCURVE",
"500 259 CURVE SMOOTH",
"500 132 OFFCURVE",
"484 92 OFFCURVE",
"435 92 CURVE SMOOTH",
"333 92 LINE",
"406 19 LINE",
"406 800 LINE",
"306 800 LINE",
"306 0 LINE"
);
}
);
width = 600;
}
);
unicode = 0409;
},
{
color = 4;
glyphname = "Nje-cy";
lastChange = "2020-01-07 07:10:03 +0000";
layers = (
{
layerId = "7C079D0C-96CD-4BD8-8800-0621C7635A78";
paths = (
{
closed = 1;
nodes = (
"74 0 LINE",
"74 800 LINE",
"24 800 LINE",
"24 0 LINE"
);
},
{
closed = 1;
nodes = (
"415 0 LINE SMOOTH",
"548 0 OFFCURVE",
"590 59 OFFCURVE",
"590 246 CURVE SMOOTH",
"590 433 OFFCURVE",
"548 492 OFFCURVE",
"415 492 CURVE SMOOTH",
"51 492 LINE",
"51 446 LINE",
"415 446 LINE SMOOTH",
"510 446 OFFCURVE",
"540 398 OFFCURVE",
"540 246 CURVE SMOOTH",
"540 94 OFFCURVE",
"510 46 OFFCURVE",
"415 46 CURVE SMOOTH",
"291 46 LINE",
"322 15 LINE",
"322 800 LINE",
"272 800 LINE",
"272 0 LINE"
);
}
);
width = 600;
},
{
layerId = "291433DC-531A-45CC-B814-57D397372F12";
paths = (
{
closed = 1;
nodes = (
"105 0 LINE",
"105 800 LINE",
"5 800 LINE",
"5 0 LINE"
);
},
{
closed = 1;
nodes = (
"411 0 LINE SMOOTH",
"555 0 OFFCURVE",
"600 62 OFFCURVE",
"600 259 CURVE SMOOTH",
"600 456 OFFCURVE",
"555 518 OFFCURVE",
"411 518 CURVE SMOOTH",
"55 518 LINE",
"55 426 LINE",
"411 426 LINE SMOOTH",
"479 426 OFFCURVE",
"500 386 OFFCURVE",
"500 259 CURVE SMOOTH",
"500 132 OFFCURVE",
"479 92 OFFCURVE",
"411 92 CURVE SMOOTH",
"272 92 LINE",
"345 19 LINE",
"345 800 LINE",
"245 800 LINE",
"245 0 LINE"
);
}
);
width = 600;
}
);
unicode = 040A;
},
{
color = 4;
glyphname = "E-cy";
lastChange = "2020-06-27 16:51:10 +0000";
layers = (
{
anchors = (
{
name = top;
position = "{300, 803}";
}
);
layerId = "7C079D0C-96CD-4BD8-8800-0621C7635A78";
paths = (
{
closed = 1;
nodes = (
"408 -14 OFFCURVE",
"471 20 OFFCURVE",
"504 111 CURVE",
"447 111 LINE",
"419 54 OFFCURVE",
"373 32 OFFCURVE",
"300 32 CURVE SMOOTH",
"161 32 OFFCURVE",
"117 111 OFFCURVE",
"117 360 CURVE SMOOTH",
"117 440 LINE SMOOTH",
"117 689 OFFCURVE",
"161 768 OFFCURVE",
"300 768 CURVE SMOOTH",
"374 768 OFFCURVE",
"421 746 OFFCURVE",
"449 689 CURVE",
"504 689 LINE",
"471 780 OFFCURVE",
"408 814 OFFCURVE",
"300 814 CURVE SMOOTH",
"123 814 OFFCURVE",
"67 724 OFFCURVE",
"67 440 CURVE SMOOTH",
"67 360 LINE SMOOTH",
"67 76 OFFCURVE",
"123 -14 OFFCURVE",
"300 -14 CURVE SMOOTH"
);
},
{
closed = 1;
nodes = (
"362 423 LINE",
"92 423 LINE",
"92 377 LINE",
"362 377 LINE"
);
}
);
width = 600;
},
{
anchors = (
{
name = top;
position = "{300, 803}";
}
);
layerId = "291433DC-531A-45CC-B814-57D397372F12";
paths = (
{
closed = 1;
nodes = (
"434 -14 OFFCURVE",
"506 38 OFFCURVE",
"537 157 CURVE",
"430 157 LINE",
"407 100 OFFCURVE",
"372 78 OFFCURVE",
"300 78 CURVE SMOOTH",
"179 78 OFFCURVE",
"142 145 OFFCURVE",
"142 360 CURVE SMOOTH",
"142 440 LINE SMOOTH",
"142 655 OFFCURVE",
"179 722 OFFCURVE",
"300 722 CURVE SMOOTH",
"374 722 OFFCURVE",
"409 700 OFFCURVE",
"432 643 CURVE",
"537 643 LINE",
"506 762 OFFCURVE",
"434 814 OFFCURVE",
"300 814 CURVE SMOOTH",
"106 814 OFFCURVE",
"42 712 OFFCURVE",
"42 440 CURVE SMOOTH",
"42 360 LINE SMOOTH",
"42 88 OFFCURVE",
"106 -14 OFFCURVE",
"300 -14 CURVE SMOOTH"
);
},
{
closed = 1;
nodes = (
"387 446 LINE",
"67 446 LINE",
"67 354 LINE",
"387 354 LINE"
);
}
);
width = 600;
}
);
unicode = 0404;
},
{
color = 4;
glyphname = "Ereversed-cy";
lastChange = "2020-01-07 07:10:03 +0000";
layers = (
{
anchors = (
{
name = bottom;
position = "{300, -3}";
},
{
name = center;
position = "{300, 400}";
},
{
name = ogonek;
position = "{560, 7}";
},
{
name = top;
position = "{300, 803}";
},
{
name = topleft;
position = "{-5, 803}";
},
{
name = topright;
position = "{605, 803}";
}
);
layerId = "7C079D0C-96CD-4BD8-8800-0621C7635A78";
paths = (
{
closed = 1;
nodes = (
"477 -14 OFFCURVE",
"533 76 OFFCURVE",
"533 360 CURVE SMOOTH",
"533 440 LINE SMOOTH",
"533 724 OFFCURVE",
"477 814 OFFCURVE",
"300 814 CURVE SMOOTH",
"192 814 OFFCURVE",
"129 780 OFFCURVE",
"96 689 CURVE",
"151 689 LINE",
"179 746 OFFCURVE",
"226 768 OFFCURVE",
"300 768 CURVE SMOOTH",
"439 768 OFFCURVE",
"483 689 OFFCURVE",
"483 440 CURVE SMOOTH",
"483 360 LINE SMOOTH",
"483 111 OFFCURVE",
"439 32 OFFCURVE",
"300 32 CURVE SMOOTH",
"227 32 OFFCURVE",
"181 54 OFFCURVE",
"153 111 CURVE",
"96 111 LINE",
"129 20 OFFCURVE",
"192 -14 OFFCURVE",
"300 -14 CURVE SMOOTH"
);
},
{
closed = 1;
nodes = (
"508 377 LINE",
"508 423 LINE",
"238 423 LINE",
"238 377 LINE"
);
}
);
width = 600;
},
{
anchors = (
{
name = bottom;
position = "{300, -3}";
},
{
name = center;
position = "{300, 400}";
},
{
name = ogonek;
position = "{560, 7}";
},
{
name = top;
position = "{300, 803}";
},
{
name = topleft;
position = "{-5, 803}";
},
{
name = topright;
position = "{605, 803}";
}
);
layerId = "291433DC-531A-45CC-B814-57D397372F12";
paths = (
{
closed = 1;
nodes = (
"494 -14 OFFCURVE",
"558 88 OFFCURVE",
"558 360 CURVE SMOOTH",
"558 440 LINE SMOOTH",
"558 712 OFFCURVE",
"494 814 OFFCURVE",
"300 814 CURVE SMOOTH",
"166 814 OFFCURVE",
"94 762 OFFCURVE",
"63 643 CURVE",
"168 643 LINE",
"191 700 OFFCURVE",
"226 722 OFFCURVE",
"300 722 CURVE SMOOTH",
"421 722 OFFCURVE",
"458 655 OFFCURVE",
"458 440 CURVE SMOOTH",
"458 360 LINE SMOOTH",
"458 145 OFFCURVE",
"421 78 OFFCURVE",
"300 78 CURVE SMOOTH",
"228 78 OFFCURVE",
"193 100 OFFCURVE",
"170 157 CURVE",
"63 157 LINE",
"94 38 OFFCURVE",
"166 -14 OFFCURVE",
"300 -14 CURVE SMOOTH"
);
},
{
closed = 1;
nodes = (
"533 354 LINE",
"533 446 LINE",
"213 446 LINE",
"213 354 LINE"
);
}
);
width = 600;
}
);
unicode = 042D;
},
{
color = 4;
glyphname = "Tshe-cy";
lastChange = "2020-01-07 07:10:03 +0000";
layers = (
{
layerId = "7C079D0C-96CD-4BD8-8800-0621C7635A78";
paths = (
{
closed = 1;
nodes = (
"0 800 LINE",
"0 754 LINE",
"339 754 LINE",
"339 800 LINE"
);
},
{
closed = 1;
nodes = (
"194 0 LINE",
"194 274 LINE SMOOTH",
"194 412 OFFCURVE",
"231 446 OFFCURVE",
"350 446 CURVE SMOOTH",
"469 446 OFFCURVE",
"507 395 OFFCURVE",
"507 234 CURVE SMOOTH",
"507 0 LINE",
"557 0 LINE",
"557 234 LINE SMOOTH",
"557 430 OFFCURVE",
"507 492 OFFCURVE",
"350 492 CURVE SMOOTH",
"273 492 OFFCURVE",
"216 473 OFFCURVE",
"194 412 CURVE",
"194 800 LINE",
"144 800 LINE",
"144 0 LINE"
);
}
);
width = 600;
},
{
layerId = "291433DC-531A-45CC-B814-57D397372F12";
paths = (
{
closed = 1;
nodes = (
"0 800 LINE",
"0 708 LINE",
"339 708 LINE",
"339 800 LINE"
);
},
{
closed = 1;
nodes = (
"219 0 LINE",
"219 267 LINE SMOOTH",
"219 400 OFFCURVE",
"243 426 OFFCURVE",
"350 426 CURVE SMOOTH",
"450 426 OFFCURVE",
"482 378 OFFCURVE",
"482 224 CURVE SMOOTH",
"482 0 LINE",
"582 0 LINE",
"582 224 LINE SMOOTH",
"582 447 OFFCURVE",
"526 518 OFFCURVE",
"350 518 CURVE SMOOTH",
"294 518 OFFCURVE",
"250 508 OFFCURVE",
"219 486 CURVE",
"219 800 LINE",
"119 800 LINE",
"119 0 LINE"
);
}
);
width = 600;
}
);
unicode = 040B;
},
{
color = 4;
glyphname = "Iu-cy";
lastChange = "2020-01-07 07:10:03 +0000";
layers = (
{
anchors = (
{
name = top;
position = "{300, 800}";
},
{
name = topleft;
position = "{595, 803}";
}
);
layerId = "7C079D0C-96CD-4BD8-8800-0621C7635A78";
paths = (
{
closed = 1;
nodes = (
"534 -14 OFFCURVE",
"580 76 OFFCURVE",
"580 360 CURVE SMOOTH",
"580 440 LINE SMOOTH",
"580 724 OFFCURVE",
"534 814 OFFCURVE",
"387 814 CURVE SMOOTH",
"240 814 OFFCURVE",
"194 724 OFFCURVE",
"194 440 CURVE SMOOTH",
"194 360 LINE SMOOTH",
"194 76 OFFCURVE",
"240 -14 OFFCURVE",
"387 -14 CURVE SMOOTH"
);
},
{
closed = 1;
nodes = (
"85 0 LINE",
"85 800 LINE",
"35 800 LINE",
"35 0 LINE"
);
},
{
closed = 1;
nodes = (
"225 377 LINE",
"225 423 LINE",
"58 423 LINE",
"58 377 LINE"
);
},
{
closed = 1;
nodes = (
"278 32 OFFCURVE",
"244 111 OFFCURVE",
"244 360 CURVE SMOOTH",
"244 440 LINE SMOOTH",
"244 689 OFFCURVE",
"278 768 OFFCURVE",
"387 768 CURVE SMOOTH",
"496 768 OFFCURVE",
"530 689 OFFCURVE",
"530 440 CURVE SMOOTH",
"530 360 LINE SMOOTH",
"530 111 OFFCURVE",
"496 32 OFFCURVE",
"387 32 CURVE SMOOTH"
);
}
);
width = 600;
},
{
anchors = (
{
name = top;
position = "{300, 800}";
},
{
name = topleft;
position = "{595, 803}";
}
);
layerId = "291433DC-531A-45CC-B814-57D397372F12";
paths = (
{
closed = 1;
nodes = (
"545 -14 OFFCURVE",
"595 76 OFFCURVE",
"595 360 CURVE SMOOTH",
"595 440 LINE SMOOTH",
"595 724 OFFCURVE",
"545 814 OFFCURVE",
"387 814 CURVE SMOOTH",
"229 814 OFFCURVE",
"179 724 OFFCURVE",
"179 440 CURVE SMOOTH",
"179 360 LINE SMOOTH",
"179 76 OFFCURVE",
"229 -14 OFFCURVE",
"387 -14 CURVE SMOOTH"
);
},
{
closed = 1;
nodes = (
"110 0 LINE",
"110 800 LINE",
"10 800 LINE",
"10 0 LINE"
);
},
{
closed = 1;
nodes = (
"235 354 LINE",
"235 446 LINE",
"56 446 LINE",
"56 354 LINE"
);
},
{
closed = 1;
nodes = (
"305 78 OFFCURVE",
"279 146 OFFCURVE",
"279 360 CURVE SMOOTH",
"279 440 LINE SMOOTH",
"279 654 OFFCURVE",
"305 722 OFFCURVE",
"387 722 CURVE SMOOTH",
"469 722 OFFCURVE",
"495 654 OFFCURVE",
"495 440 CURVE SMOOTH",
"495 360 LINE SMOOTH",
"495 146 OFFCURVE",
"469 78 OFFCURVE",
"387 78 CURVE SMOOTH"
);
}
);
width = 600;
}
);
unicode = 042E;
},
{
color = 4;
glyphname = "Ia-cy";
lastChange = "2020-01-07 07:10:03 +0000";
layers = (
{
anchors = (
{
name = bottom;
position = "{300, 0}";
},
{
name = top;
position = "{300, 800}";
}
);
layerId = "7C079D0C-96CD-4BD8-8800-0621C7635A78";
paths = (
{
closed = 1;
nodes = (
"502 800 LINE",
"288 800 LINE SMOOTH",
"125 800 OFFCURVE",
"73 746 OFFCURVE",
"73 577 CURVE SMOOTH",
"73 408 OFFCURVE",
"125 354 OFFCURVE",
"288 354 CURVE SMOOTH",
"484 354 LINE",
"484 400 LINE",
"288 400 LINE SMOOTH",
"163 400 OFFCURVE",
"123 442 OFFCURVE",
"123 577 CURVE SMOOTH",
"123 712 OFFCURVE",
"163 754 OFFCURVE",
"288 754 CURVE SMOOTH",
"452 754 LINE",
"452 0 LINE",
"502 0 LINE"
);
},
{
closed = 1;
nodes = (
"358 378 LINE",
"299 378 LINE",
"54 0 LINE",
"112 0 LINE"
);
}
);
width = 600;
},
{
anchors = (
{
name = bottom;
position = "{300, 0}";
},
{
name = top;
position = "{300, 800}";
}
);
layerId = "291433DC-531A-45CC-B814-57D397372F12";
paths = (
{
closed = 1;
nodes = (
"527 800 LINE",
"288 800 LINE SMOOTH",
"111 800 OFFCURVE",
"48 736 OFFCURVE",
"48 564 CURVE SMOOTH",
"48 382 OFFCURVE",
"111 328 OFFCURVE",
"288 328 CURVE SMOOTH",
"499 328 LINE",
"499 420 LINE",
"288 420 LINE SMOOTH",
"178 420 OFFCURVE",
"148 442 OFFCURVE",
"148 564 CURVE SMOOTH",
"148 676 OFFCURVE",
"178 708 OFFCURVE",
"288 708 CURVE SMOOTH",
"427 708 LINE",
"427 0 LINE",
"527 0 LINE"
);
},
{
closed = 1;
nodes = (
"398 394 LINE",
"281 394 LINE",
"10 0 LINE",
"126 0 LINE"
);
}
);
width = 600;
}
);
unicode = 042F;
},
{
color = 4;
glyphname = "Dje-cy";
lastChange = "2020-01-07 07:10:03 +0000";
layers = (
{
layerId = "7C079D0C-96CD-4BD8-8800-0621C7635A78";
paths = (
{
closed = 1;
nodes = (
"520 -14 OFFCURVE",
"570 46 OFFCURVE",
"570 238 CURVE SMOOTH",
"570 431 OFFCURVE",
"520 492 OFFCURVE",
"362 492 CURVE SMOOTH",
"289 492 OFFCURVE",
"231 471 OFFCURVE",
"203 406 CURVE",
"203 800 LINE",
"153 800 LINE",
"153 0 LINE",
"203 0 LINE",
"203 274 LINE SMOOTH",
"203 405 OFFCURVE",
"241 446 OFFCURVE",
"362 446 CURVE SMOOTH",
"482 446 OFFCURVE",
"520 396 OFFCURVE",
"520 238 CURVE SMOOTH",
"520 81 OFFCURVE",
"482 32 OFFCURVE",
"372 32 CURVE SMOOTH",
"338 32 OFFCURVE",
"325 35 OFFCURVE",
"310 44 CURVE",
"310 -2 LINE",
"325 -11 OFFCURVE",
"338 -14 OFFCURVE",
"372 -14 CURVE SMOOTH"
);
},
{
closed = 1;
nodes = (
"359 754 LINE",
"359 800 LINE",
"0 800 LINE",
"0 754 LINE"
);
}
);
width = 600;
},
{
layerId = "291433DC-531A-45CC-B814-57D397372F12";
paths = (
{
closed = 1;
nodes = (
"546 -14 OFFCURVE",
"595 50 OFFCURVE",
"595 251 CURVE SMOOTH",
"595 454 OFFCURVE",
"539 518 OFFCURVE",
"362 518 CURVE SMOOTH",
"305 518 OFFCURVE",
"261 506 OFFCURVE",
"228 481 CURVE",
"228 800 LINE",
"128 800 LINE",
"128 0 LINE",
"228 0 LINE",
"228 274 LINE SMOOTH",
"228 396 OFFCURVE",
"256 426 OFFCURVE",
"362 426 CURVE SMOOTH",
"463 426 OFFCURVE",
"495 384 OFFCURVE",
"495 251 CURVE SMOOTH",
"495 120 OFFCURVE",
"470 78 OFFCURVE",
"372 78 CURVE SMOOTH",
"334 78 OFFCURVE",
"322 81 OFFCURVE",
"310 91 CURVE",
"310 -2 LINE",
"322 -11 OFFCURVE",
"335 -14 OFFCURVE",
"372 -14 CURVE SMOOTH"
);
},
{
closed = 1;
nodes = (
"359 708 LINE",
"359 800 LINE",
"0 800 LINE",
"0 708 LINE"
);
}
);
width = 600;
}
);
unicode = 0402;
},
{
color = 4;
glyphname = "Yat-cy";
lastChange = "2020-01-07 07:10:03 +0000";
layers = (
{
components = (
{
name = "Softsign-cy";
transform = "{1, 0, 0, 1, 20, 0}";
}
);
layerId = "7C079D0C-96CD-4BD8-8800-0621C7635A78";
paths = (
{
closed = 1;
nodes = (
"359 631 LINE",
"359 677 LINE",
"20 677 LINE",
"20 631 LINE"
);
}
);
width = 600;
},
{
components = (
{
name = "Softsign-cy";
transform = "{1, 0, 0, 1, 10, 0}";
}
);
layerId = "291433DC-531A-45CC-B814-57D397372F12";
paths = (
{
closed = 1;
nodes = (
"349 618 LINE",
"349 710 LINE",
"10 710 LINE",
"10 618 LINE"
);
}
);
width = 600;
}
);
unicode = 0462;
},
{
color = 4;
glyphname = "Yusbig-cy";
lastChange = "2020-01-07 07:10:03 +0000";
layers = (
{
layerId = "7C079D0C-96CD-4BD8-8800-0621C7635A78";
paths = (
{
closed = 1;
nodes = (
"380 400 LINE",
"572 754 LINE",
"517 754 LINE",
"325 400 LINE"
);
},
{
closed = 1;
nodes = (
"325 0 LINE",
"325 400 LINE",
"275 400 LINE",
"275 0 LINE"
);
},
{
closed = 1;
nodes = (
"275 400 LINE",
"83 754 LINE",
"28 754 LINE",
"220 400 LINE"
);
},
{
closed = 1;
nodes = (
"397 386 OFFCURVE",
"442 322 OFFCURVE",
"488 119 CURVE SMOOTH",
"502 56 OFFCURVE",
"514 28 OFFCURVE",
"541 0 CURVE",
"591 0 LINE",
"564 26 OFFCURVE",
"552 54 OFFCURVE",
"538 119 CURVE SMOOTH",
"487 357 OFFCURVE",
"430 432 OFFCURVE",
"300 432 CURVE",
"300 386 LINE"
);
},
{
closed = 1;
nodes = (
"28 800 LINE",
"28 754 LINE",
"572 754 LINE",
"572 800 LINE"
);
},
{
closed = 1;
nodes = (
"300 432 LINE",
"170 432 OFFCURVE",
"113 357 OFFCURVE",
"62 119 CURVE SMOOTH",
"48 54 OFFCURVE",
"36 26 OFFCURVE",
"9 0 CURVE",
"59 0 LINE",
"86 28 OFFCURVE",
"98 56 OFFCURVE",
"112 119 CURVE SMOOTH",
"157 322 OFFCURVE",
"203 386 OFFCURVE",
"300 386 CURVE"
);
}
);
width = 600;
},
{
layerId = "291433DC-531A-45CC-B814-57D397372F12";
paths = (
{
closed = 1;
nodes = (
"395 377 LINE",
"597 708 LINE",
"487 708 LINE",
"285 377 LINE"
);
},
{
closed = 1;
nodes = (
"350 0 LINE",
"350 423 LINE",
"250 423 LINE",
"250 0 LINE"
);
},
{
closed = 1;
nodes = (
"315 377 LINE",
"113 708 LINE",
"3 708 LINE",
"205 377 LINE"
);
},
{
closed = 1;
nodes = (
"378 362 OFFCURVE",
"387 347 OFFCURVE",
"434 134 CURVE SMOOTH",
"450 62 OFFCURVE",
"463 34 OFFCURVE",
"480 0 CURVE",
"589 0 LINE",
"551 61 OFFCURVE",
"546 81 OFFCURVE",
"532 144 CURVE SMOOTH",
"474 405 OFFCURVE",
"443 454 OFFCURVE",
"300 454 CURVE",
"300 362 LINE"
);
},
{
closed = 1;
nodes = (
"3 800 LINE",
"3 708 LINE",
"597 708 LINE",
"597 800 LINE"
);
},
{
closed = 1;
nodes = (
"300 454 LINE",
"157 454 OFFCURVE",
"126 405 OFFCURVE",
"68 144 CURVE SMOOTH",
"54 81 OFFCURVE",
"49 61 OFFCURVE",
"11 0 CURVE",
"120 0 LINE",
"137 34 OFFCURVE",
"150 62 OFFCURVE",
"166 134 CURVE SMOOTH",
"213 347 OFFCURVE",
"222 362 OFFCURVE",
"300 362 CURVE"
);
}
);
width = 600;
}
);
unicode = 046A;
},
{
color = 4;
glyphname = "De-cy.loclBGR";
lastChange = "2020-01-07 07:10:03 +0000";
layers = (
{
layerId = "7C079D0C-96CD-4BD8-8800-0621C7635A78";
paths = (
{
closed = 1;
nodes = (
"84 -88 LINE",
"84 0 LINE",
"516 0 LINE",
"516 -88 LINE",
"566 -88 LINE",
"566 46 LINE",
"34 46 LINE",
"34 -88 LINE"
);
},
{
closed = 1;
nodes = (
"113 46 LINE",
"300 725 LINE",
"487 46 LINE",
"538 46 LINE",
"330 800 LINE",
"270 800 LINE",
"62 46 LINE"
);
}
);
width = 600;
},
{
layerId = "291433DC-531A-45CC-B814-57D397372F12";
paths = (
{
closed = 1;
nodes = (
"125 -88 LINE",
"125 0 LINE",
"475 0 LINE",
"475 -88 LINE",
"575 -88 LINE",
"575 92 LINE",
"25 92 LINE",
"25 -88 LINE"
);
},
{
closed = 1;
nodes = (
"165 92 LINE",
"300 624 LINE",
"435 92 LINE",
"530 92 LINE",
"350 800 LINE",
"250 800 LINE",
"70 92 LINE"
);
}
);
width = 600;
}
);
},
{
color = 4;
glyphname = "Ef-cy.loclBGR";
lastChange = "2020-01-07 07:10:03 +0000";
layers = (
{
layerId = "7C079D0C-96CD-4BD8-8800-0621C7635A78";
paths = (
{
closed = 1;
nodes = (
"519 -14 OFFCURVE",
"588 86 OFFCURVE",
"588 401 CURVE SMOOTH",
"588 715 OFFCURVE",
"519 814 OFFCURVE",
"301 814 CURVE SMOOTH",
"81 814 OFFCURVE",
"12 715 OFFCURVE",
"12 401 CURVE SMOOTH",
"12 86 OFFCURVE",
"81 -14 OFFCURVE",
"301 -14 CURVE SMOOTH"
);
},
{
closed = 1;
nodes = (
"119 32 OFFCURVE",
"62 121 OFFCURVE",
"62 401 CURVE SMOOTH",
"62 680 OFFCURVE",
"119 768 OFFCURVE",
"301 768 CURVE SMOOTH",
"481 768 OFFCURVE",
"538 680 OFFCURVE",
"538 401 CURVE SMOOTH",
"538 121 OFFCURVE",
"481 32 OFFCURVE",
"301 32 CURVE SMOOTH"
);
},
{
closed = 1;
nodes = (
"325 -122 LINE",
"325 921 LINE",
"275 921 LINE",
"275 -122 LINE"
);
}
);
width = 600;
},
{
layerId = "291433DC-531A-45CC-B814-57D397372F12";
paths = (
{
closed = 1;
nodes = (
"521 -14 OFFCURVE",
"590 86 OFFCURVE",
"590 401 CURVE SMOOTH",
"590 715 OFFCURVE",
"521 814 OFFCURVE",
"301 814 CURVE SMOOTH",
"80 814 OFFCURVE",
"10 715 OFFCURVE",
"10 401 CURVE SMOOTH",
"10 86 OFFCURVE",
"80 -14 OFFCURVE",
"301 -14 CURVE SMOOTH"
);
},
{
closed = 1;
nodes = (
"156 78 OFFCURVE",
"110 156 OFFCURVE",
"110 401 CURVE SMOOTH",
"110 645 OFFCURVE",
"156 722 OFFCURVE",
"301 722 CURVE SMOOTH",
"445 722 OFFCURVE",
"490 645 OFFCURVE",
"490 401 CURVE SMOOTH",
"490 156 OFFCURVE",
"445 78 OFFCURVE",
"301 78 CURVE SMOOTH"
);
},
{
closed = 1;
nodes = (
"350 -109 LINE",
"350 908 LINE",
"250 908 LINE",
"250 -109 LINE"
);
}
);
width = 600;
}
);
},
{
color = 4;
glyphname = "be-cy";
lastChange = "2020-04-11 08:21:08 +0000";
layers = (
{
layerId = "7C079D0C-96CD-4BD8-8800-0621C7635A78";
paths = (
{
closed = 1;
nodes = (
"472 -14 OFFCURVE",
"526 47 OFFCURVE",
"526 239 CURVE SMOOTH",
"526 431 OFFCURVE",
"472 492 OFFCURVE",
"300 492 CURVE SMOOTH",
"205 492 OFFCURVE",
"163 473 OFFCURVE",
"124 411 CURVE",
"124 480 LINE SMOOTH",
"124 616 OFFCURVE",
"194 707 OFFCURVE",
"299 707 CURVE SMOOTH",
"435 707 OFFCURVE",
"525 744 OFFCURVE",
"525 800 CURVE",
"475 800 LINE",
"475 772 OFFCURVE",
"405 753 OFFCURVE",
"299 753 CURVE SMOOTH",
"164 753 OFFCURVE",
"74 644 OFFCURVE",
"74 480 CURVE SMOOTH",
"74 238 LINE SMOOTH",
"74 46 OFFCURVE",
"128 -14 OFFCURVE",
"300 -14 CURVE SMOOTH"
);
},
{
closed = 1;
nodes = (
"166 32 OFFCURVE",
"124 81 OFFCURVE",
"124 238 CURVE SMOOTH",
"124 396 OFFCURVE",
"166 446 OFFCURVE",
"300 446 CURVE SMOOTH",
"434 446 OFFCURVE",
"476 396 OFFCURVE",
"476 239 CURVE SMOOTH",
"476 82 OFFCURVE",
"434 32 OFFCURVE",
"300 32 CURVE SMOOTH"
);
}
);
width = 600;
},
{
layerId = "291433DC-531A-45CC-B814-57D397372F12";
paths = (
{
closed = 1;
nodes = (
"487 -14 OFFCURVE",
"551 46 OFFCURVE",
"551 251 CURVE SMOOTH",
"551 456 OFFCURVE",
"487 515 OFFCURVE",
"300 515 CURVE SMOOTH",
"230 515 OFFCURVE",
"185 504 OFFCURVE",
"149 477 CURVE",
"149 480 LINE SMOOTH",
"149 590 OFFCURVE",
"209 664 OFFCURVE",
"299 664 CURVE SMOOTH",
"448 664 OFFCURVE",
"548 718 OFFCURVE",
"548 800 CURVE",
"443 800 LINE",
"443 774 OFFCURVE",
"385 756 OFFCURVE",
"299 756 CURVE SMOOTH",
"149 756 OFFCURVE",
"49 646 OFFCURVE",
"49 480 CURVE SMOOTH",
"49 250 LINE SMOOTH",
"49 46 OFFCURVE",
"113 -14 OFFCURVE",
"300 -14 CURVE SMOOTH"
);
},
{
closed = 1;
nodes = (
"182 78 OFFCURVE",
"149 105 OFFCURVE",
"149 250 CURVE SMOOTH",
"149 396 OFFCURVE",
"182 423 OFFCURVE",
"300 423 CURVE SMOOTH",
"418 423 OFFCURVE",
"451 396 OFFCURVE",
"451 251 CURVE SMOOTH",
"451 106 OFFCURVE",
"418 78 OFFCURVE",
"300 78 CURVE SMOOTH"
);
}
);
width = 600;
}
);
unicode = 0431;
},
{
color = 4;
glyphname = "ve-cy";
lastChange = "2020-01-07 07:10:03 +0000";
layers = (
{
layerId = "7C079D0C-96CD-4BD8-8800-0621C7635A78";
paths = (
{
closed = 1;
nodes = (
"309 0 LINE SMOOTH",
"472 0 OFFCURVE",
"524 43 OFFCURVE",
"524 178 CURVE SMOOTH",
"524 282 OFFCURVE",
"494 320 OFFCURVE",
"397 337 CURVE",
"475 356 OFFCURVE",
"499 387 OFFCURVE",
"499 465 CURVE SMOOTH",
"499 581 OFFCURVE",
"447 618 OFFCURVE",
"284 618 CURVE SMOOTH",
"94 618 LINE",
"94 0 LINE"
);
},
{
closed = 1;
nodes = (
"144 309 LINE",
"309 309 LINE SMOOTH",
"434 309 OFFCURVE",
"474 278 OFFCURVE",
"474 178 CURVE SMOOTH",
"474 78 OFFCURVE",
"434 46 OFFCURVE",
"309 46 CURVE SMOOTH",
"144 46 LINE"
);
},
{
closed = 1;
nodes = (
"144 572 LINE",
"284 572 LINE SMOOTH",
"409 572 OFFCURVE",
"449 546 OFFCURVE",
"449 465 CURVE SMOOTH",
"449 381 OFFCURVE",
"409 355 OFFCURVE",
"284 355 CURVE SMOOTH",
"144 355 LINE"
);
}
);
width = 600;
},
{
layerId = "291433DC-531A-45CC-B814-57D397372F12";
paths = (
{
closed = 1;
nodes = (
"309 0 LINE SMOOTH",
"476 0 OFFCURVE",
"539 52 OFFCURVE",
"539 189 CURVE SMOOTH",
"539 276 OFFCURVE",
"517 314 OFFCURVE",
"459 340 CURVE",
"498 365 OFFCURVE",
"514 392 OFFCURVE",
"514 454 CURVE SMOOTH",
"514 572 OFFCURVE",
"450 618 OFFCURVE",
"284 618 CURVE SMOOTH",
"79 618 LINE",
"79 0 LINE"
);
},
{
closed = 1;
nodes = (
"179 286 LINE",
"309 286 LINE SMOOTH",
"411 286 OFFCURVE",
"439 275 OFFCURVE",
"439 189 CURVE SMOOTH",
"439 115 OFFCURVE",
"411 92 OFFCURVE",
"309 92 CURVE SMOOTH",
"179 92 LINE"
);
},
{
closed = 1;
nodes = (
"179 526 LINE",
"284 526 LINE SMOOTH",
"388 526 OFFCURVE",
"414 508 OFFCURVE",
"414 454 CURVE SMOOTH",
"414 385 OFFCURVE",
"388 378 OFFCURVE",
"284 378 CURVE SMOOTH",
"179 378 LINE"
);
}
);
width = 600;
}
);
unicode = 0432;
},
{
color = 4;
glyphname = "ge-cy";
lastChange = "2020-01-07 07:10:03 +0000";
layers = (
{
anchors = (
{
name = bottomright;
position = "{580, 0}";
},
{
name = top;
position = "{300, 618}";
}
);
layerId = "7C079D0C-96CD-4BD8-8800-0621C7635A78";
paths = (
{
closed = 1;
nodes = (
"153 0 LINE",
"153 603 LINE",
"122 572 LINE",
"527 572 LINE",
"527 618 LINE",
"103 618 LINE",
"103 0 LINE"
);
}
);
width = 600;
},
{
anchors = (
{
name = bottomright;
position = "{580, 0}";
},
{
name = top;
position = "{300, 618}";
}
);
layerId = "291433DC-531A-45CC-B814-57D397372F12";
paths = (
{
closed = 1;
nodes = (
"178 0 LINE",
"178 599 LINE",
"105 526 LINE",
"552 526 LINE",
"552 618 LINE",
"78 618 LINE",
"78 0 LINE"
);
}
);
width = 600;
}
);
unicode = 0433;
},
{
color = 4;
glyphname = "gheupturn-cy";
lastChange = "2020-01-07 07:10:03 +0000";
layers = (
{
components = (
{
name = "ge-cy";
}
);
layerId = "7C079D0C-96CD-4BD8-8800-0621C7635A78";
paths = (
{
closed = 1;
nodes = (
"527 743 LINE",
"527 618 LINE",
"477 618 LINE",
"477 743 LINE"
);
}
);
width = 600;
},
{
components = (
{
name = "ge-cy";
}
);
layerId = "291433DC-531A-45CC-B814-57D397372F12";
paths = (
{
closed = 1;
nodes = (
"552 763 LINE",
"552 618 LINE",
"452 618 LINE",
"452 763 LINE"
);
}
);
width = 600;
}
);
unicode = 0491;
},
{
color = 4;
glyphname = "de-cy";
lastChange = "2020-01-07 07:10:03 +0000";
layers = (
{
layerId = "7C079D0C-96CD-4BD8-8800-0621C7635A78";
paths = (
{
closed = 1;
nodes = (
"133 46 LINE",
"207 116 OFFCURVE",
"242 282 OFFCURVE",
"265 572 CURVE",
"466 572 LINE",
"466 46 LINE",
"516 46 LINE",
"516 618 LINE",
"220 618 LINE",
"193 282 OFFCURVE",
"167 116 OFFCURVE",
"65 46 CURVE"
);
},
{
closed = 1;
nodes = (
"84 -88 LINE",
"84 0 LINE",
"516 0 LINE",
"516 -88 LINE",
"566 -88 LINE",
"566 46 LINE",
"34 46 LINE",
"34 -88 LINE"
);
}
);
width = 600;
},
{
layerId = "291433DC-531A-45CC-B814-57D397372F12";
paths = (
{
closed = 1;
nodes = (
"199 92 LINE",
"269 157 OFFCURVE",
"279 308 OFFCURVE",
"305 526 CURVE",
"425 526 LINE",
"425 92 LINE",
"525 92 LINE",
"525 618 LINE",
"212 618 LINE",
"181 312 OFFCURVE",
"174 158 OFFCURVE",
"56 92 CURVE"
);
},
{
closed = 1;
nodes = (
"125 -88 LINE",
"125 0 LINE",
"475 0 LINE",
"475 -88 LINE",
"575 -88 LINE",
"575 92 LINE",
"25 92 LINE",
"25 -88 LINE"
);
}
);
width = 600;
}
);
unicode = 0434;
},
{
color = 4;
glyphname = "zhe-cy";
lastChange = "2020-06-28 17:06:12 +0000";
layers = (
{
anchors = (
{
name = bottomright;
position = "{580, 0}";
},
{
name = top;
position = "{300, 618}";
}
);
layerId = "7C079D0C-96CD-4BD8-8800-0621C7635A78";
paths = (
{
closed = 1;
nodes = (
"383 309 LINE",
"598 618 LINE",
"540 618 LINE",
"325 309 LINE"
);
},
{
closed = 1;
nodes = (
"60 0 LINE",
"275 309 LINE",
"216 309 LINE",
"1 0 LINE"
);
},
{
closed = 1;
nodes = (
"275 309 LINE",
"60 618 LINE",
"1 618 LINE",
"216 309 LINE"
);
},
{
closed = 1;
nodes = (
"325 0 LINE",
"325 618 LINE",
"275 618 LINE",
"275 0 LINE"
);
},
{
closed = 1;
nodes = (
"598 0 LINE",
"383 309 LINE",
"325 309 LINE",
"540 0 LINE"
);
}
);
width = 600;
},
{
anchors = (
{
name = bottomright;
position = "{580, 0}";
},
{
name = top;
position = "{300, 618}";
}
);
layerId = "291433DC-531A-45CC-B814-57D397372F12";
paths = (
{
closed = 1;
nodes = (
"455 309 LINE",
"596 618 LINE",
"491 618 LINE",
"350 309 LINE"
);
},
{
closed = 1;
nodes = (
"109 0 LINE",
"250 309 LINE",
"145 309 LINE",
"4 0 LINE"
);
},
{
closed = 1;
nodes = (
"250 309 LINE",
"109 618 LINE",
"4 618 LINE",
"145 309 LINE"
);
},
{
closed = 1;
nodes = (
"350 0 LINE",
"350 618 LINE",
"250 618 LINE",
"250 0 LINE"
);
},
{
closed = 1;
nodes = (
"596 0 LINE",
"455 309 LINE",
"350 309 LINE",
"491 0 LINE"
);
}
);
width = 600;
}
);
unicode = 0436;
},
{
color = 4;
glyphname = "ze-cy";
lastChange = "2020-01-07 07:10:03 +0000";
layers = (
{
layerId = "7C079D0C-96CD-4BD8-8800-0621C7635A78";
paths = (
{
closed = 1;
nodes = (
"466 -14 OFFCURVE",
"519 25 OFFCURVE",
"519 148 CURVE SMOOTH",
"519 237 OFFCURVE",
"495 277 OFFCURVE",
"421 313 CURVE",
"495 349 OFFCURVE",
"519 387 OFFCURVE",
"519 471 CURVE SMOOTH",
"519 593 OFFCURVE",
"466 632 OFFCURVE",
"300 632 CURVE SMOOTH",
"134 632 OFFCURVE",
"81 598 OFFCURVE",
"81 491 CURVE",
"131 491 LINE",
"131 563 OFFCURVE",
"172 586 OFFCURVE",
"300 586 CURVE SMOOTH",
"428 586 OFFCURVE",
"469 558 OFFCURVE",
"469 471 CURVE SMOOTH",
"469 376 OFFCURVE",
"433 344 OFFCURVE",
"320 336 CURVE",
"250 336 LINE",
"250 290 LINE",
"320 290 LINE",
"433 282 OFFCURVE",
"469 248 OFFCURVE",
"469 148 CURVE SMOOTH",
"469 60 OFFCURVE",
"428 32 OFFCURVE",
"300 32 CURVE SMOOTH",
"172 32 OFFCURVE",
"131 56 OFFCURVE",
"131 132 CURVE",
"81 132 LINE",
"81 21 OFFCURVE",
"134 -14 OFFCURVE",
"300 -14 CURVE SMOOTH"
);
}
);
width = 600;
},
{
layerId = "291433DC-531A-45CC-B814-57D397372F12";
paths = (
{
closed = 1;
nodes = (
"485 -14 OFFCURVE",
"544 28 OFFCURVE",
"544 160 CURVE SMOOTH",
"544 238 OFFCURVE",
"526 275 OFFCURVE",
"469 313 CURVE",
"526 350 OFFCURVE",
"544 385 OFFCURVE",
"544 459 CURVE SMOOTH",
"544 590 OFFCURVE",
"485 632 OFFCURVE",
"300 632 CURVE SMOOTH",
"115 632 OFFCURVE",
"57 590 OFFCURVE",
"57 455 CURVE",
"157 455 LINE",
"157 520 OFFCURVE",
"191 540 OFFCURVE",
"300 540 CURVE SMOOTH",
"409 540 OFFCURVE",
"444 521 OFFCURVE",
"444 459 CURVE SMOOTH",
"444 390 OFFCURVE",
"414 366 OFFCURVE",
"319 359 CURVE",
"225 359 LINE",
"225 267 LINE",
"319 267 LINE",
"414 260 OFFCURVE",
"444 234 OFFCURVE",
"444 160 CURVE SMOOTH",
"444 98 OFFCURVE",
"409 78 OFFCURVE",
"300 78 CURVE SMOOTH",
"191 78 OFFCURVE",
"157 100 OFFCURVE",
"157 168 CURVE",
"57 168 LINE",
"57 30 OFFCURVE",
"115 -14 OFFCURVE",
"300 -14 CURVE SMOOTH"
);
}
);
width = 600;
}
);
unicode = 0437;
},
{
color = 4;
glyphname = "ii-cy";
lastChange = "2020-01-07 07:10:03 +0000";
layers = (
{
anchors = (
{
name = bottom;
position = "{300, -3}";
},
{
name = bottomright;
position = "{580, 0}";
},
{
name = top;
position = "{300, 618}";
}
);
layerId = "7C079D0C-96CD-4BD8-8800-0621C7635A78";
paths = (
{
closed = 1;
nodes = (
"143 0 LINE",
"514 618 LINE",
"464 618 LINE",
"464 0 LINE",
"514 0 LINE",
"514 618 LINE",
"457 618 LINE",
"86 0 LINE",
"136 0 LINE",
"136 618 LINE",
"86 618 LINE",
"86 0 LINE"
);
}
);
width = 600;
},
{
anchors = (
{
name = bottom;
position = "{300, -3}";
},
{
name = bottomright;
position = "{580, 0}";
},
{
name = top;
position = "{300, 618}";
}
);
layerId = "291433DC-531A-45CC-B814-57D397372F12";
paths = (
{
closed = 1;
nodes = (
"173 0 LINE",
"539 618 LINE",
"439 618 LINE",
"439 0 LINE",
"539 0 LINE",
"539 618 LINE",
"427 618 LINE",
"61 0 LINE",
"161 0 LINE",
"161 618 LINE",
"61 618 LINE",
"61 0 LINE"
);
}
);
width = 600;
}
);
unicode = 0438;
},
{
color = 4;
glyphname = "ka-cy";
lastChange = "2020-01-07 07:10:03 +0000";
layers = (
{
anchors = (
{
name = bottomright;
position = "{580, 0}";
},
{
name = top;
position = "{300, 618}";
}
);
layerId = "7C079D0C-96CD-4BD8-8800-0621C7635A78";
paths = (
{
closed = 1;
nodes = (
"226 308 LINE",
"424 323 OFFCURVE",
"378 503 OFFCURVE",
"553 618 CURVE",
"482 618 LINE",
"338 503 OFFCURVE",
"382 363 OFFCURVE",
"202 354 CURVE",
"112 354 LINE",
"112 308 LINE"
);
},
{
closed = 1;
nodes = (
"140 0 LINE",
"140 618 LINE",
"90 618 LINE",
"90 0 LINE"
);
},
{
closed = 1;
nodes = (
"558 0 LINE",
"254 341 LINE",
"204 328 LINE",
"498 0 LINE"
);
}
);
width = 600;
},
{
anchors = (
{
name = bottomright;
position = "{580, 0}";
},
{
name = top;
position = "{300, 618}";
}
);
layerId = "291433DC-531A-45CC-B814-57D397372F12";
paths = (
{
closed = 1;
nodes = (
"196 285 LINE SMOOTH",
"405 285 OFFCURVE",
"421 531 OFFCURVE",
"580 618 CURVE",
"440 618 LINE",
"359 570 OFFCURVE",
"310 377 OFFCURVE",
"170 377 CURVE SMOOTH",
"56 377 LINE",
"56 285 LINE"
);
},
{
closed = 1;
nodes = (
"134 0 LINE",
"134 618 LINE",
"34 618 LINE",
"34 0 LINE"
);
},
{
closed = 1;
nodes = (
"560 0 LINE",
"232 367 LINE",
"129 341 LINE",
"435 0 LINE"
);
}
);
width = 600;
}
);
unicode = 043A;
},
{
color = 4;
glyphname = "el-cy";
lastChange = "2020-01-07 07:10:03 +0000";
layers = (
{
layerId = "7C079D0C-96CD-4BD8-8800-0621C7635A78";
paths = (
{
closed = 1;
nodes = (
"540 0 LINE",
"540 618 LINE",
"236 618 LINE",
"236 572 LINE",
"490 572 LINE",
"490 0 LINE"
);
},
{
closed = 1;
nodes = (
"219 0 OFFCURVE",
"229 75 OFFCURVE",
"264 618 CURVE",
"215 618 LINE",
"183 118 OFFCURVE",
"169 46 OFFCURVE",
"50 46 CURVE",
"50 0 LINE"
);
}
);
width = 600;
},
{
layerId = "291433DC-531A-45CC-B814-57D397372F12";
paths = (
{
closed = 1;
nodes = (
"550 0 LINE",
"550 618 LINE",
"226 618 LINE",
"226 526 LINE",
"450 526 LINE",
"450 0 LINE"
);
},
{
closed = 1;
nodes = (
"258 0 OFFCURVE",
"268 121 OFFCURVE",
"305 618 CURVE",
"205 618 LINE",
"178 143 OFFCURVE",
"143 93 OFFCURVE",
"40 93 CURVE",
"40 0 LINE"
);
}
);
width = 600;
}
);
unicode = 043B;
},
{
color = 4;
glyphname = "em-cy";
lastChange = "2020-06-28 17:09:22 +0000";
layers = (
{
layerId = "7C079D0C-96CD-4BD8-8800-0621C7635A78";
paths = (
{
closed = 1;
nodes = (
"110 0 LINE",
"122 492 LINE",
"275 171 LINE",
"325 171 LINE",
"478 492 LINE",
"490 0 LINE",
"540 0 LINE",
"526 618 LINE",
"482 618 LINE",
"300 230 LINE",
"118 618 LINE",
"74 618 LINE",
"60 0 LINE"
);
}
);
width = 600;
},
{
layerId = "291433DC-531A-45CC-B814-57D397372F12";
paths = (
{
closed = 1;
nodes = (
"135 0 LINE",
"145 360 LINE",
"257 147 LINE",
"343 147 LINE",
"455 360 LINE",
"465 0 LINE",
"565 0 LINE",
"551 618 LINE",
"475 618 LINE",
"300 267 LINE",
"125 618 LINE",
"49 618 LINE",
"35 0 LINE"
);
}
);
width = 600;
}
);
unicode = 043C;
},
{
color = 4;
glyphname = "en-cy";
lastChange = "2020-01-07 07:10:03 +0000";
layers = (
{
layerId = "7C079D0C-96CD-4BD8-8800-0621C7635A78";
paths = (
{
closed = 1;
nodes = (
"516 0 LINE",
"516 618 LINE",
"466 618 LINE",
"466 0 LINE"
);
},
{
closed = 1;
nodes = (
"134 0 LINE",
"134 618 LINE",
"84 618 LINE",
"84 0 LINE"
);
},
{
closed = 1;
nodes = (
"487 309 LINE",
"487 355 LINE",
"113 355 LINE",
"113 309 LINE"
);
}
);
width = 600;
},
{
layerId = "291433DC-531A-45CC-B814-57D397372F12";
paths = (
{
closed = 1;
nodes = (
"541 0 LINE",
"541 618 LINE",
"441 618 LINE",
"441 0 LINE"
);
},
{
closed = 1;
nodes = (
"159 0 LINE",
"159 618 LINE",
"59 618 LINE",
"59 0 LINE"
);
},
{
closed = 1;
nodes = (
"512 286 LINE",
"512 378 LINE",
"88 378 LINE",
"88 286 LINE"
);
}
);
width = 600;
}
);
unicode = 043D;
},
{
color = 4;
glyphname = "pe-cy";
lastChange = "2020-01-07 07:10:03 +0000";
layers = (
{
layerId = "7C079D0C-96CD-4BD8-8800-0621C7635A78";
paths = (
{
closed = 1;
nodes = (
"120 0 LINE",
"120 572 LINE",
"480 572 LINE",
"480 0 LINE",
"530 0 LINE",
"530 618 LINE",
"70 618 LINE",
"70 0 LINE"
);
}
);
width = 600;
},
{
layerId = "291433DC-531A-45CC-B814-57D397372F12";
paths = (
{
closed = 1;
nodes = (
"155 0 LINE",
"155 526 LINE",
"445 526 LINE",
"445 0 LINE",
"545 0 LINE",
"545 618 LINE",
"55 618 LINE",
"55 0 LINE"
);
}
);
width = 600;
}
);
unicode = 043F;
},
{
color = 4;
glyphname = "te-cy";
lastChange = "2020-01-07 07:10:03 +0000";
layers = (
{
layerId = "7C079D0C-96CD-4BD8-8800-0621C7635A78";
paths = (
{
closed = 1;
nodes = (
"325 0 LINE",
"325 618 LINE",
"275 618 LINE",
"275 0 LINE"
);
},
{
closed = 1;
nodes = (
"568 572 LINE",
"568 618 LINE",
"32 618 LINE",
"32 572 LINE"
);
}
);
width = 600;
},
{
layerId = "291433DC-531A-45CC-B814-57D397372F12";
paths = (
{
closed = 1;
nodes = (
"350 0 LINE",
"350 618 LINE",
"250 618 LINE",
"250 0 LINE"
);
},
{
closed = 1;
nodes = (
"593 526 LINE",
"593 618 LINE",
"7 618 LINE",
"7 526 LINE"
);
}
);
width = 600;
}
);
unicode = 0442;
},
{
color = 4;
glyphname = "ef-cy";
lastChange = "2020-01-07 07:10:03 +0000";
layers = (
{
layerId = "7C079D0C-96CD-4BD8-8800-0621C7635A78";
paths = (
{
closed = 1;
nodes = (
"489 26 OFFCURVE",
"548 94 OFFCURVE",
"548 309 CURVE SMOOTH",
"548 524 OFFCURVE",
"489 592 OFFCURVE",
"301 592 CURVE SMOOTH",
"112 592 OFFCURVE",
"52 524 OFFCURVE",
"52 309 CURVE SMOOTH",
"52 94 OFFCURVE",
"112 26 OFFCURVE",
"301 26 CURVE SMOOTH"
);
},
{
closed = 1;
nodes = (
"325 -182 LINE",
"325 800 LINE",
"275 800 LINE",
"275 -182 LINE"
);
},
{
closed = 1;
nodes = (
"150 72 OFFCURVE",
"102 129 OFFCURVE",
"102 309 CURVE SMOOTH",
"102 489 OFFCURVE",
"150 546 OFFCURVE",
"301 546 CURVE SMOOTH",
"451 546 OFFCURVE",
"498 489 OFFCURVE",
"498 309 CURVE SMOOTH",
"498 129 OFFCURVE",
"451 72 OFFCURVE",
"301 72 CURVE SMOOTH"
);
}
);
width = 600;
},
{
layerId = "291433DC-531A-45CC-B814-57D397372F12";
paths = (
{
closed = 1;
nodes = (
"504 3 OFFCURVE",
"573 81 OFFCURVE",
"573 309 CURVE SMOOTH",
"573 537 OFFCURVE",
"504 615 OFFCURVE",
"301 615 CURVE SMOOTH",
"97 615 OFFCURVE",
"27 536 OFFCURVE",
"27 309 CURVE SMOOTH",
"27 82 OFFCURVE",
"97 3 OFFCURVE",
"301 3 CURVE SMOOTH"
);
},
{
closed = 1;
nodes = (
"350 -182 LINE",
"350 800 LINE",
"250 800 LINE",
"250 -182 LINE"
);
},
{
closed = 1;
nodes = (
"166 95 OFFCURVE",
"127 141 OFFCURVE",
"127 309 CURVE SMOOTH",
"127 477 OFFCURVE",
"166 523 OFFCURVE",
"301 523 CURVE SMOOTH",
"435 523 OFFCURVE",
"473 477 OFFCURVE",
"473 309 CURVE SMOOTH",
"473 141 OFFCURVE",
"435 95 OFFCURVE",
"301 95 CURVE SMOOTH"
);
}
);
width = 600;
}
);
unicode = 0444;
},
{
color = 4;
glyphname = "che-cy";
lastChange = "2020-01-07 07:10:03 +0000";
layers = (
{
layerId = "7C079D0C-96CD-4BD8-8800-0621C7635A78";
paths = (
{
closed = 1;
nodes = (
"496 0 LINE",
"496 618 LINE",
"446 618 LINE",
"446 356 LINE SMOOTH",
"446 218 OFFCURVE",
"409 184 OFFCURVE",
"290 184 CURVE SMOOTH",
"171 184 OFFCURVE",
"133 217 OFFCURVE",
"133 416 CURVE SMOOTH",
"133 618 LINE",
"83 618 LINE",
"83 416 LINE SMOOTH",
"83 182 OFFCURVE",
"133 138 OFFCURVE",
"290 138 CURVE SMOOTH",
"367 138 OFFCURVE",
"424 157 OFFCURVE",
"446 218 CURVE",
"446 0 LINE"
);
}
);
width = 600;
},
{
layerId = "291433DC-531A-45CC-B814-57D397372F12";
paths = (
{
closed = 1;
nodes = (
"521 0 LINE",
"521 618 LINE",
"421 618 LINE",
"421 349 LINE SMOOTH",
"421 226 OFFCURVE",
"397 220 OFFCURVE",
"290 220 CURVE SMOOTH",
"189 220 OFFCURVE",
"158 251 OFFCURVE",
"158 439 CURVE SMOOTH",
"158 618 LINE",
"58 618 LINE",
"58 439 LINE SMOOTH",
"58 194 OFFCURVE",
"116 128 OFFCURVE",
"290 128 CURVE SMOOTH",
"346 128 OFFCURVE",
"390 138 OFFCURVE",
"421 160 CURVE",
"421 0 LINE"
);
}
);
width = 600;
}
);
unicode = 0447;
},
{
color = 4;
glyphname = "sha-cy";
lastChange = "2020-01-07 07:10:03 +0000";
layers = (
{
layerId = "7C079D0C-96CD-4BD8-8800-0621C7635A78";
paths = (
{
closed = 1;
nodes = (
"555 0 LINE",
"555 618 LINE",
"505 618 LINE",
"505 46 LINE",
"325 46 LINE",
"325 618 LINE",
"275 618 LINE",
"275 46 LINE",
"95 46 LINE",
"95 618 LINE",
"45 618 LINE",
"45 0 LINE"
);
}
);
width = 600;
},
{
layerId = "291433DC-531A-45CC-B814-57D397372F12";
paths = (
{
closed = 1;
nodes = (
"570 0 LINE",
"570 618 LINE",
"470 618 LINE",
"470 92 LINE",
"350 92 LINE",
"350 618 LINE",
"250 618 LINE",
"250 92 LINE",
"130 92 LINE",
"130 618 LINE",
"30 618 LINE",
"30 0 LINE"
);
}
);
width = 600;
}
);
unicode = 0448;
},
{
color = 4;
glyphname = "shcha-cy";
lastChange = "2020-01-07 07:10:03 +0000";
layers = (
{
layerId = "7C079D0C-96CD-4BD8-8800-0621C7635A78";
paths = (
{
closed = 1;
nodes = (
"520 0 LINE",
"520 618 LINE",
"470 618 LINE",
"470 46 LINE",
"300 46 LINE",
"300 618 LINE",
"250 618 LINE",
"250 46 LINE",
"80 46 LINE",
"80 618 LINE",
"30 618 LINE",
"30 0 LINE"
);
},
{
closed = 1;
nodes = (
"570 -108 LINE",
"570 46 LINE",
"428 46 LINE",
"428 0 LINE",
"520 0 LINE",
"520 -108 LINE"
);
}
);
width = 600;
},
{
layerId = "291433DC-531A-45CC-B814-57D397372F12";
paths = (
{
closed = 1;
nodes = (
"500 0 LINE",
"500 618 LINE",
"400 618 LINE",
"400 92 LINE",
"300 92 LINE",
"300 618 LINE",
"200 618 LINE",
"200 92 LINE",
"100 92 LINE",
"100 618 LINE",
"0 618 LINE",
"0 0 LINE"
);
},
{
closed = 1;
nodes = (
"600 -108 LINE",
"600 92 LINE",
"408 92 LINE",
"408 0 LINE",
"500 0 LINE",
"500 -108 LINE"
);
}
);
width = 600;
}
);
unicode = 0449;
},
{
color = 4;
glyphname = "softsign-cy";
lastChange = "2020-01-07 07:10:03 +0000";
layers = (
{
layerId = "7C079D0C-96CD-4BD8-8800-0621C7635A78";
paths = (
{
closed = 1;
nodes = (
"320 0 LINE SMOOTH",
"483 0 OFFCURVE",
"535 46 OFFCURVE",
"535 193 CURVE SMOOTH",
"535 340 OFFCURVE",
"483 386 OFFCURVE",
"320 386 CURVE SMOOTH",
"134 386 LINE",
"134 340 LINE",
"320 340 LINE SMOOTH",
"445 340 OFFCURVE",
"485 305 OFFCURVE",
"485 193 CURVE SMOOTH",
"485 81 OFFCURVE",
"445 46 OFFCURVE",
"320 46 CURVE SMOOTH",
"125 46 LINE",
"156 15 LINE",
"156 618 LINE",
"106 618 LINE",
"106 0 LINE"
);
}
);
width = 600;
},
{
layerId = "291433DC-531A-45CC-B814-57D397372F12";
paths = (
{
closed = 1;
nodes = (
"320 0 LINE SMOOTH",
"502 0 OFFCURVE",
"560 49 OFFCURVE",
"560 206 CURVE SMOOTH",
"560 363 OFFCURVE",
"502 412 OFFCURVE",
"320 412 CURVE SMOOTH",
"109 412 LINE",
"109 320 LINE",
"320 320 LINE SMOOTH",
"426 320 OFFCURVE",
"460 293 OFFCURVE",
"460 206 CURVE SMOOTH",
"460 119 OFFCURVE",
"426 92 OFFCURVE",
"320 92 CURVE SMOOTH",
"108 92 LINE",
"181 19 LINE",
"181 618 LINE",
"81 618 LINE",
"81 0 LINE"
);
}
);
width = 600;
}
);
unicode = 044C;
},
{
color = 4;
glyphname = "hardsign-cy";
lastChange = "2020-01-07 07:10:03 +0000";
layers = (
{
layerId = "7C079D0C-96CD-4BD8-8800-0621C7635A78";
paths = (
{
closed = 1;
nodes = (
"340 0 LINE SMOOTH",
"503 0 OFFCURVE",
"555 46 OFFCURVE",
"555 193 CURVE SMOOTH",
"555 340 OFFCURVE",
"503 386 OFFCURVE",
"340 386 CURVE SMOOTH",
"154 386 LINE",
"154 340 LINE",
"340 340 LINE SMOOTH",
"465 340 OFFCURVE",
"505 305 OFFCURVE",
"505 193 CURVE SMOOTH",
"505 81 OFFCURVE",
"465 46 OFFCURVE",
"340 46 CURVE SMOOTH",
"145 46 LINE",
"176 15 LINE",
"176 618 LINE",
"126 618 LINE",
"126 0 LINE"
);
},
{
closed = 1;
nodes = (
"176 572 LINE",
"176 618 LINE",
"25 618 LINE",
"25 572 LINE"
);
}
);
width = 600;
},
{
layerId = "291433DC-531A-45CC-B814-57D397372F12";
paths = (
{
closed = 1;
nodes = (
"349 0 LINE SMOOTH",
"531 0 OFFCURVE",
"589 49 OFFCURVE",
"589 206 CURVE SMOOTH",
"589 363 OFFCURVE",
"531 412 OFFCURVE",
"349 412 CURVE SMOOTH",
"138 412 LINE",
"138 320 LINE",
"349 320 LINE SMOOTH",
"455 320 OFFCURVE",
"489 293 OFFCURVE",
"489 206 CURVE SMOOTH",
"489 119 OFFCURVE",
"455 92 OFFCURVE",
"349 92 CURVE SMOOTH",
"137 92 LINE",
"210 19 LINE",
"210 618 LINE",
"110 618 LINE",
"110 0 LINE"
);
},
{
closed = 1;
nodes = (
"211 526 LINE",
"211 618 LINE",
"11 618 LINE",
"11 526 LINE"
);
}
);
width = 600;
}
);
unicode = 044A;
},
{
color = 4;
glyphname = "yeru-cy";
lastChange = "2020-01-07 07:10:03 +0000";
layers = (
{
anchors = (
{
name = top;
position = "{300, 618}";
}
);
layerId = "7C079D0C-96CD-4BD8-8800-0621C7635A78";
paths = (
{
closed = 1;
nodes = (
"230 0 LINE SMOOTH",
"378 0 OFFCURVE",
"425 46 OFFCURVE",
"425 193 CURVE SMOOTH",
"425 340 OFFCURVE",
"378 386 OFFCURVE",
"230 386 CURVE SMOOTH",
"83 386 LINE",
"83 340 LINE",
"230 340 LINE SMOOTH",
"340 340 OFFCURVE",
"375 305 OFFCURVE",
"375 193 CURVE SMOOTH",
"375 81 OFFCURVE",
"340 46 OFFCURVE",
"230 46 CURVE SMOOTH",
"74 46 LINE",
"105 15 LINE",
"105 618 LINE",
"55 618 LINE",
"55 0 LINE"
);
},
{
closed = 1;
nodes = (
"545 0 LINE",
"545 618 LINE",
"495 618 LINE",
"495 0 LINE"
);
}
);
width = 600;
},
{
anchors = (
{
name = top;
position = "{300, 618}";
}
);
layerId = "291433DC-531A-45CC-B814-57D397372F12";
paths = (
{
closed = 1;
nodes = (
"210 0 LINE SMOOTH",
"370 0 OFFCURVE",
"420 49 OFFCURVE",
"420 206 CURVE SMOOTH",
"420 363 OFFCURVE",
"370 412 OFFCURVE",
"210 412 CURVE SMOOTH",
"48 412 LINE",
"48 320 LINE",
"210 320 LINE SMOOTH",
"294 320 OFFCURVE",
"320 293 OFFCURVE",
"320 206 CURVE SMOOTH",
"320 119 OFFCURVE",
"294 92 OFFCURVE",
"210 92 CURVE SMOOTH",
"57 92 LINE",
"120 19 LINE",
"120 618 LINE",
"20 618 LINE",
"20 0 LINE"
);
},
{
closed = 1;
nodes = (
"580 0 LINE",
"580 618 LINE",
"480 618 LINE",
"480 0 LINE"
);
}
);
width = 600;
}
);
unicode = 044B;
},
{
color = 4;
glyphname = "lje-cy";
lastChange = "2020-01-07 07:10:03 +0000";
layers = (
{
layerId = "7C079D0C-96CD-4BD8-8800-0621C7635A78";
paths = (
{
closed = 1;
nodes = (
"360 0 LINE",
"360 618 LINE",
"186 618 LINE",
"186 572 LINE",
"310 572 LINE",
"310 0 LINE"
);
},
{
closed = 1;
nodes = (
"425 0 LINE SMOOTH",
"550 0 OFFCURVE",
"590 46 OFFCURVE",
"590 193 CURVE SMOOTH",
"590 340 OFFCURVE",
"550 386 OFFCURVE",
"425 386 CURVE SMOOTH",
"338 386 LINE",
"338 340 LINE",
"425 340 LINE SMOOTH",
"512 340 OFFCURVE",
"540 305 OFFCURVE",
"540 193 CURVE SMOOTH",
"540 81 OFFCURVE",
"512 46 OFFCURVE",
"425 46 CURVE SMOOTH",
"329 46 LINE",
"360 15 LINE",
"360 618 LINE",
"310 618 LINE",
"310 0 LINE"
);
},
{
closed = 1;
nodes = (
"169 0 OFFCURVE",
"179 75 OFFCURVE",
"214 618 CURVE",
"165 618 LINE",
"133 118 OFFCURVE",
"119 46 OFFCURVE",
"0 46 CURVE",
"0 0 LINE"
);
}
);
width = 600;
},
{
layerId = "291433DC-531A-45CC-B814-57D397372F12";
paths = (
{
closed = 1;
nodes = (
"406 0 LINE",
"406 618 LINE",
"186 618 LINE",
"186 526 LINE",
"306 526 LINE",
"306 0 LINE"
);
},
{
closed = 1;
nodes = (
"435 0 LINE SMOOTH",
"560 0 OFFCURVE",
"600 49 OFFCURVE",
"600 206 CURVE SMOOTH",
"600 363 OFFCURVE",
"560 412 OFFCURVE",
"435 412 CURVE SMOOTH",
"334 412 LINE",
"334 320 LINE",
"435 320 LINE SMOOTH",
"484 320 OFFCURVE",
"500 293 OFFCURVE",
"500 206 CURVE SMOOTH",
"500 119 OFFCURVE",
"484 92 OFFCURVE",
"435 92 CURVE SMOOTH",
"333 92 LINE",
"406 19 LINE",
"406 618 LINE",
"306 618 LINE",
"306 0 LINE"
);
},
{
closed = 1;
nodes = (
"218 0 OFFCURVE",
"228 121 OFFCURVE",
"265 618 CURVE",
"165 618 LINE",
"138 143 OFFCURVE",
"103 93 OFFCURVE",
"0 93 CURVE",
"0 0 LINE"
);
}
);
width = 600;
}
);
unicode = 0459;
},
{
color = 4;
glyphname = "nje-cy";
lastChange = "2020-01-07 07:10:03 +0000";
layers = (
{
layerId = "7C079D0C-96CD-4BD8-8800-0621C7635A78";
paths = (
{
closed = 1;
nodes = (
"415 0 LINE SMOOTH",
"548 0 OFFCURVE",
"590 46 OFFCURVE",
"590 193 CURVE SMOOTH",
"590 340 OFFCURVE",
"548 386 OFFCURVE",
"415 386 CURVE SMOOTH",
"48 386 LINE",
"48 340 LINE",
"415 340 LINE SMOOTH",
"510 340 OFFCURVE",
"540 305 OFFCURVE",
"540 193 CURVE SMOOTH",
"540 81 OFFCURVE",
"510 46 OFFCURVE",
"415 46 CURVE SMOOTH",
"291 46 LINE",
"322 15 LINE",
"322 618 LINE",
"272 618 LINE",
"272 0 LINE"
);
},
{
closed = 1;
nodes = (
"74 0 LINE",
"74 618 LINE",
"24 618 LINE",
"24 0 LINE"
);
}
);
width = 600;
},
{
layerId = "291433DC-531A-45CC-B814-57D397372F12";
paths = (
{
closed = 1;
nodes = (
"411 0 LINE SMOOTH",
"555 0 OFFCURVE",
"600 49 OFFCURVE",
"600 206 CURVE SMOOTH",
"600 363 OFFCURVE",
"555 412 OFFCURVE",
"411 412 CURVE SMOOTH",
"53 412 LINE",
"53 320 LINE",
"411 320 LINE SMOOTH",
"479 320 OFFCURVE",
"500 293 OFFCURVE",
"500 206 CURVE SMOOTH",
"500 119 OFFCURVE",
"479 92 OFFCURVE",
"411 92 CURVE SMOOTH",
"272 92 LINE",
"345 19 LINE",
"345 618 LINE",
"245 618 LINE",
"245 0 LINE"
);
},
{
closed = 1;
nodes = (
"105 0 LINE",
"105 618 LINE",
"5 618 LINE",
"5 0 LINE"
);
}
);
width = 600;
}
);
unicode = 045A;
},
{
color = 4;
glyphname = "e-cy";
lastChange = "2020-06-27 16:52:29 +0000";
layers = (
{
anchors = (
{
name = top;
position = "{300, 618}";
}
);
layerId = "7C079D0C-96CD-4BD8-8800-0621C7635A78";
paths = (
{
closed = 1;
nodes = (
"423 -14 OFFCURVE",
"472 14 OFFCURVE",
"504 101 CURVE",
"447 101 LINE",
"421 49 OFFCURVE",
"386 32 OFFCURVE",
"300 32 CURVE SMOOTH",
"161 32 OFFCURVE",
"117 89 OFFCURVE",
"117 269 CURVE SMOOTH",
"117 349 LINE SMOOTH",
"117 529 OFFCURVE",
"161 586 OFFCURVE",
"300 586 CURVE SMOOTH",
"387 586 OFFCURVE",
"423 569 OFFCURVE",
"449 517 CURVE",
"504 517 LINE",
"472 604 OFFCURVE",
"423 632 OFFCURVE",
"300 632 CURVE SMOOTH",
"123 632 OFFCURVE",
"67 564 OFFCURVE",
"67 349 CURVE SMOOTH",
"67 269 LINE SMOOTH",
"67 54 OFFCURVE",
"123 -14 OFFCURVE",
"300 -14 CURVE SMOOTH"
);
},
{
closed = 1;
nodes = (
"362 332 LINE",
"92 332 LINE",
"92 286 LINE",
"362 286 LINE"
);
}
);
width = 600;
},
{
anchors = (
{
name = top;
position = "{300, 618}";
}
);
layerId = "291433DC-531A-45CC-B814-57D397372F12";
paths = (
{
closed = 1;
nodes = (
"448 -14 OFFCURVE",
"505 25 OFFCURVE",
"537 147 CURVE",
"430 147 LINE",
"409 95 OFFCURVE",
"378 78 OFFCURVE",
"300 78 CURVE SMOOTH",
"180 78 OFFCURVE",
"142 124 OFFCURVE",
"142 269 CURVE SMOOTH",
"142 349 LINE SMOOTH",
"142 494 OFFCURVE",
"180 540 OFFCURVE",
"300 540 CURVE SMOOTH",
"379 540 OFFCURVE",
"411 523 OFFCURVE",
"432 471 CURVE",
"537 471 LINE",
"505 593 OFFCURVE",
"448 632 OFFCURVE",
"300 632 CURVE SMOOTH",
"104 632 OFFCURVE",
"42 564 OFFCURVE",
"42 349 CURVE SMOOTH",
"42 269 LINE SMOOTH",
"42 54 OFFCURVE",
"104 -14 OFFCURVE",
"300 -14 CURVE SMOOTH"
);
},
{
closed = 1;
nodes = (
"387 355 LINE",
"67 355 LINE",
"67 263 LINE",
"387 263 LINE"
);
}
);
width = 600;
}
);
unicode = 0454;
},
{
color = 4;
glyphname = "ereversed-cy";
lastChange = "2020-01-07 07:10:03 +0000";
layers = (
{
anchors = (
{
name = top;
position = "{300, 618}";
}
);
layerId = "7C079D0C-96CD-4BD8-8800-0621C7635A78";
paths = (
{
closed = 1;
nodes = (
"477 -14 OFFCURVE",
"533 54 OFFCURVE",
"533 269 CURVE SMOOTH",
"533 349 LINE SMOOTH",
"533 564 OFFCURVE",
"477 632 OFFCURVE",
"300 632 CURVE SMOOTH",
"177 632 OFFCURVE",
"128 604 OFFCURVE",
"96 517 CURVE",
"151 517 LINE",
"177 569 OFFCURVE",
"213 586 OFFCURVE",
"300 586 CURVE SMOOTH",
"439 586 OFFCURVE",
"483 529 OFFCURVE",
"483 349 CURVE SMOOTH",
"483 269 LINE SMOOTH",
"483 89 OFFCURVE",
"439 32 OFFCURVE",
"300 32 CURVE SMOOTH",
"214 32 OFFCURVE",
"179 49 OFFCURVE",
"153 101 CURVE",
"96 101 LINE",
"128 14 OFFCURVE",
"177 -14 OFFCURVE",
"300 -14 CURVE SMOOTH"
);
},
{
closed = 1;
nodes = (
"508 286 LINE",
"508 332 LINE",
"238 332 LINE",
"238 286 LINE"
);
}
);
width = 600;
},
{
anchors = (
{
name = top;
position = "{300, 618}";
}
);
layerId = "291433DC-531A-45CC-B814-57D397372F12";
paths = (
{
closed = 1;
nodes = (
"496 -14 OFFCURVE",
"558 54 OFFCURVE",
"558 269 CURVE SMOOTH",
"558 349 LINE SMOOTH",
"558 564 OFFCURVE",
"496 632 OFFCURVE",
"300 632 CURVE SMOOTH",
"152 632 OFFCURVE",
"95 593 OFFCURVE",
"63 471 CURVE",
"168 471 LINE",
"189 523 OFFCURVE",
"221 540 OFFCURVE",
"300 540 CURVE SMOOTH",
"420 540 OFFCURVE",
"458 494 OFFCURVE",
"458 349 CURVE SMOOTH",
"458 269 LINE SMOOTH",
"458 124 OFFCURVE",
"420 78 OFFCURVE",
"300 78 CURVE SMOOTH",
"222 78 OFFCURVE",
"191 95 OFFCURVE",
"170 147 CURVE",
"63 147 LINE",
"95 25 OFFCURVE",
"152 -14 OFFCURVE",
"300 -14 CURVE SMOOTH"
);
},
{
closed = 1;
nodes = (
"533 263 LINE",
"533 355 LINE",
"213 355 LINE",
"213 263 LINE"
);
}
);
width = 600;
}
);
unicode = 044D;
},
{
color = 4;
glyphname = "iu-cy";
lastChange = "2020-01-07 07:10:03 +0000";
layers = (
{
anchors = (
{
name = top;
position = "{300, 800}";
},
{
name = topleft;
position = "{595, 803}";
}
);
layerId = "7C079D0C-96CD-4BD8-8800-0621C7635A78";
paths = (
{
closed = 1;
nodes = (
"534 -14 OFFCURVE",
"580 54 OFFCURVE",
"580 269 CURVE SMOOTH",
"580 349 LINE SMOOTH",
"580 564 OFFCURVE",
"534 632 OFFCURVE",
"387 632 CURVE SMOOTH",
"240 632 OFFCURVE",
"194 564 OFFCURVE",
"194 349 CURVE SMOOTH",
"194 269 LINE SMOOTH",
"194 54 OFFCURVE",
"240 -14 OFFCURVE",
"387 -14 CURVE SMOOTH"
);
},
{
closed = 1;
nodes = (
"85 0 LINE",
"85 618 LINE",
"35 618 LINE",
"35 0 LINE"
);
},
{
closed = 1;
nodes = (
"225 286 LINE",
"225 332 LINE",
"58 332 LINE",
"58 286 LINE"
);
},
{
closed = 1;
nodes = (
"278 32 OFFCURVE",
"244 89 OFFCURVE",
"244 269 CURVE SMOOTH",
"244 349 LINE SMOOTH",
"244 529 OFFCURVE",
"278 586 OFFCURVE",
"387 586 CURVE SMOOTH",
"496 586 OFFCURVE",
"530 529 OFFCURVE",
"530 349 CURVE SMOOTH",
"530 269 LINE SMOOTH",
"530 89 OFFCURVE",
"496 32 OFFCURVE",
"387 32 CURVE SMOOTH"
);
}
);
width = 600;
},
{
anchors = (
{
name = top;
position = "{300, 800}";
},
{
name = topleft;
position = "{595, 803}";
}
);
layerId = "291433DC-531A-45CC-B814-57D397372F12";
paths = (
{
closed = 1;
nodes = (
"545 -14 OFFCURVE",
"595 54 OFFCURVE",
"595 269 CURVE SMOOTH",
"595 349 LINE SMOOTH",
"595 564 OFFCURVE",
"545 632 OFFCURVE",
"387 632 CURVE SMOOTH",
"229 632 OFFCURVE",
"179 564 OFFCURVE",
"179 349 CURVE SMOOTH",
"179 269 LINE SMOOTH",
"179 54 OFFCURVE",
"229 -14 OFFCURVE",
"387 -14 CURVE SMOOTH"
);
},
{
closed = 1;
nodes = (
"110 0 LINE",
"110 618 LINE",
"10 618 LINE",
"10 0 LINE"
);
},
{
closed = 1;
nodes = (
"235 263 LINE",
"235 355 LINE",
"56 355 LINE",
"56 263 LINE"
);
},
{
closed = 1;
nodes = (
"305 78 OFFCURVE",
"279 124 OFFCURVE",
"279 269 CURVE SMOOTH",
"279 349 LINE SMOOTH",
"279 494 OFFCURVE",
"305 540 OFFCURVE",
"387 540 CURVE SMOOTH",
"469 540 OFFCURVE",
"495 494 OFFCURVE",
"495 349 CURVE SMOOTH",
"495 269 LINE SMOOTH",
"495 124 OFFCURVE",
"469 78 OFFCURVE",
"387 78 CURVE SMOOTH"
);
}
);
width = 600;
}
);
unicode = 044E;
},
{
color = 4;
glyphname = "ia-cy";
lastChange = "2020-01-07 07:10:03 +0000";
layers = (
{
layerId = "7C079D0C-96CD-4BD8-8800-0621C7635A78";
paths = (
{
closed = 1;
nodes = (
"502 0 LINE",
"502 618 LINE",
"288 618 LINE SMOOTH",
"125 618 OFFCURVE",
"73 576 OFFCURVE",
"73 445 CURVE SMOOTH",
"73 314 OFFCURVE",
"125 272 OFFCURVE",
"288 272 CURVE SMOOTH",
"484 272 LINE",
"484 318 LINE",
"288 318 LINE SMOOTH",
"163 318 OFFCURVE",
"123 348 OFFCURVE",
"123 445 CURVE SMOOTH",
"123 542 OFFCURVE",
"163 572 OFFCURVE",
"288 572 CURVE SMOOTH",
"452 572 LINE",
"452 0 LINE"
);
},
{
closed = 1;
nodes = (
"116 0 LINE",
"361 296 LINE",
"299 296 LINE",
"54 0 LINE"
);
}
);
width = 600;
},
{
layerId = "291433DC-531A-45CC-B814-57D397372F12";
paths = (
{
closed = 1;
nodes = (
"527 0 LINE",
"527 618 LINE",
"288 618 LINE SMOOTH",
"106 618 OFFCURVE",
"48 572 OFFCURVE",
"48 425 CURVE SMOOTH",
"48 278 OFFCURVE",
"106 232 OFFCURVE",
"288 232 CURVE SMOOTH",
"499 232 LINE",
"499 324 LINE",
"288 324 LINE SMOOTH",
"182 324 OFFCURVE",
"148 348 OFFCURVE",
"148 425 CURVE SMOOTH",
"148 502 OFFCURVE",
"182 526 OFFCURVE",
"288 526 CURVE SMOOTH",
"427 526 LINE",
"427 0 LINE"
);
},
{
closed = 1;
nodes = (
"137 0 LINE",
"408 298 LINE",
"281 298 LINE",
"10 0 LINE"
);
}
);
width = 600;
}
);
unicode = 044F;
},
{
color = 4;
glyphname = "dje-cy";
lastChange = "2020-01-07 07:10:03 +0000";
layers = (
{
components = (
{
name = hbar;
}
);
layerId = "7C079D0C-96CD-4BD8-8800-0621C7635A78";
paths = (
{
closed = 1;
nodes = (
"483 -155 OFFCURVE",
"517 -118 OFFCURVE",
"517 0 CURVE",
"467 0 LINE",
"467 -102 OFFCURVE",
"445 -109 OFFCURVE",
"375 -109 CURVE",
"375 -155 LINE"
);
}
);
width = 600;
},
{
components = (
{
name = hbar;
}
);
layerId = "291433DC-531A-45CC-B814-57D397372F12";
paths = (
{
closed = 1;
nodes = (
"499 -177 OFFCURVE",
"542 -157 OFFCURVE",
"542 0 CURVE",
"442 0 LINE",
"442 -79 OFFCURVE",
"428 -85 OFFCURVE",
"350 -85 CURVE",
"350 -177 LINE"
);
}
);
width = 600;
}
);
unicode = 0452;
},
{
color = 4;
glyphname = "yat-cy";
lastChange = "2020-01-07 07:10:03 +0000";
layers = (
{
layerId = "7C079D0C-96CD-4BD8-8800-0621C7635A78";
paths = (
{
closed = 1;
nodes = (
"320 0 LINE SMOOTH",
"483 0 OFFCURVE",
"535 46 OFFCURVE",
"535 193 CURVE SMOOTH",
"535 340 OFFCURVE",
"483 386 OFFCURVE",
"320 386 CURVE SMOOTH",
"134 386 LINE",
"134 340 LINE",
"320 340 LINE SMOOTH",
"445 340 OFFCURVE",
"485 305 OFFCURVE",
"485 193 CURVE SMOOTH",
"485 81 OFFCURVE",
"445 46 OFFCURVE",
"320 46 CURVE SMOOTH",
"125 46 LINE",
"156 15 LINE",
"156 800 LINE",
"106 800 LINE",
"106 0 LINE"
);
},
{
closed = 1;
nodes = (
"359 552 LINE",
"359 598 LINE",
"20 598 LINE",
"20 552 LINE"
);
}
);
width = 600;
},
{
layerId = "291433DC-531A-45CC-B814-57D397372F12";
paths = (
{
closed = 1;
nodes = (
"320 0 LINE SMOOTH",
"502 0 OFFCURVE",
"560 49 OFFCURVE",
"560 206 CURVE SMOOTH",
"560 363 OFFCURVE",
"502 412 OFFCURVE",
"320 412 CURVE SMOOTH",
"109 412 LINE",
"109 320 LINE",
"320 320 LINE SMOOTH",
"426 320 OFFCURVE",
"460 293 OFFCURVE",
"460 206 CURVE SMOOTH",
"460 119 OFFCURVE",
"426 92 OFFCURVE",
"320 92 CURVE SMOOTH",
"108 92 LINE",
"181 19 LINE",
"181 800 LINE",
"81 800 LINE",
"81 0 LINE"
);
},
{
closed = 1;
nodes = (
"349 526 LINE",
"349 618 LINE",
"10 618 LINE",
"10 526 LINE"
);
}
);
width = 600;
}
);
unicode = 0463;
},
{
color = 4;
glyphname = "yusbig-cy";
lastChange = "2020-01-07 07:10:03 +0000";
layers = (
{
layerId = "7C079D0C-96CD-4BD8-8800-0621C7635A78";
paths = (
{
closed = 1;
nodes = (
"380 320 LINE",
"572 572 LINE",
"514 572 LINE",
"322 320 LINE"
);
},
{
closed = 1;
nodes = (
"325 0 LINE",
"325 320 LINE",
"275 320 LINE",
"275 0 LINE"
);
},
{
closed = 1;
nodes = (
"278 320 LINE",
"86 572 LINE",
"28 572 LINE",
"220 320 LINE"
);
},
{
closed = 1;
nodes = (
"397 306 OFFCURVE",
"452 242 OFFCURVE",
"488 109 CURVE SMOOTH",
"505 45 OFFCURVE",
"514 28 OFFCURVE",
"541 0 CURVE",
"591 0 LINE",
"564 26 OFFCURVE",
"554 43 OFFCURVE",
"538 109 CURVE SMOOTH",
"497 277 OFFCURVE",
"430 352 OFFCURVE",
"300 352 CURVE",
"300 306 LINE"
);
},
{
closed = 1;
nodes = (
"28 618 LINE",
"28 572 LINE",
"572 572 LINE",
"572 618 LINE"
);
},
{
closed = 1;
nodes = (
"300 352 LINE",
"170 352 OFFCURVE",
"103 277 OFFCURVE",
"62 109 CURVE SMOOTH",
"46 43 OFFCURVE",
"36 26 OFFCURVE",
"9 0 CURVE",
"59 0 LINE",
"86 28 OFFCURVE",
"95 46 OFFCURVE",
"112 109 CURVE SMOOTH",
"147 242 OFFCURVE",
"203 306 OFFCURVE",
"300 306 CURVE"
);
}
);
width = 600;
},
{
layerId = "291433DC-531A-45CC-B814-57D397372F12";
paths = (
{
closed = 1;
nodes = (
"395 297 LINE",
"597 526 LINE",
"480 526 LINE",
"278 297 LINE"
);
},
{
closed = 1;
nodes = (
"350 0 LINE",
"350 343 LINE",
"250 343 LINE",
"250 0 LINE"
);
},
{
closed = 1;
nodes = (
"322 297 LINE",
"120 526 LINE",
"3 526 LINE",
"205 297 LINE"
);
},
{
closed = 1;
nodes = (
"378 282 OFFCURVE",
"397 267 OFFCURVE",
"434 124 CURVE SMOOTH",
"453 51 OFFCURVE",
"462 34 OFFCURVE",
"480 0 CURVE",
"589 0 LINE",
"551 61 OFFCURVE",
"548 70 OFFCURVE",
"532 134 CURVE SMOOTH",
"484 325 OFFCURVE",
"443 374 OFFCURVE",
"300 374 CURVE",
"300 282 LINE"
);
},
{
closed = 1;
nodes = (
"3 618 LINE",
"3 526 LINE",
"597 526 LINE",
"597 618 LINE"
);
},
{
closed = 1;
nodes = (
"300 374 LINE",
"157 374 OFFCURVE",
"116 325 OFFCURVE",
"68 134 CURVE SMOOTH",
"52 70 OFFCURVE",
"49 61 OFFCURVE",
"11 0 CURVE",
"120 0 LINE",
"138 34 OFFCURVE",
"147 51 OFFCURVE",
"166 124 CURVE SMOOTH",
"203 267 OFFCURVE",
"222 282 OFFCURVE",
"300 282 CURVE"
);
}
);
width = 600;
}
);
unicode = 046B;
},
{
color = 4;
glyphname = "ve-cy.loclBGR";
lastChange = "2020-01-07 07:10:03 +0000";
layers = (
{
layerId = "7C079D0C-96CD-4BD8-8800-0621C7635A78";
paths = (
{
closed = 1;
nodes = (
"131 582 LINE SMOOTH",
"131 693 OFFCURVE",
"167 768 OFFCURVE",
"280 768 CURVE SMOOTH",
"393 768 OFFCURVE",
"429 733 OFFCURVE",
"429 622 CURVE SMOOTH",
"429 519 OFFCURVE",
"398 484 OFFCURVE",
"300 476 CURVE",
"110 476 LINE",
"110 430 LINE",
"300 430 LINE",
"451 420 OFFCURVE",
"499 373 OFFCURVE",
"499 236 CURVE SMOOTH",
"499 81 OFFCURVE",
"458 32 OFFCURVE",
"330 32 CURVE SMOOTH",
"179 32 OFFCURVE",
"131 82 OFFCURVE",
"131 242 CURVE SMOOTH"
);
},
{
closed = 1;
nodes = (
"81 67 OFFCURVE",
"121 -14 OFFCURVE",
"330 -14 CURVE SMOOTH",
"496 -14 OFFCURVE",
"549 46 OFFCURVE",
"549 236 CURVE SMOOTH",
"549 373 OFFCURVE",
"509 425 OFFCURVE",
"384 454 CURVE",
"456 489 OFFCURVE",
"479 529 OFFCURVE",
"479 622 CURVE SMOOTH",
"479 768 OFFCURVE",
"431 814 OFFCURVE",
"280 814 CURVE SMOOTH",
"129 814 OFFCURVE",
"81 728 OFFCURVE",
"81 582 CURVE SMOOTH",
"81 292 LINE SMOOTH"
);
}
);
width = 600;
},
{
layerId = "291433DC-531A-45CC-B814-57D397372F12";
paths = (
{
closed = 1;
nodes = (
"156 572 LINE SMOOTH",
"156 670 OFFCURVE",
"181 745 OFFCURVE",
"280 745 CURVE SMOOTH",
"379 745 OFFCURVE",
"404 720 OFFCURVE",
"404 622 CURVE SMOOTH",
"404 531 OFFCURVE",
"382 506 OFFCURVE",
"299 499 CURVE",
"105 499 LINE",
"105 407 LINE",
"299 407 LINE",
"436 398 OFFCURVE",
"474 360 OFFCURVE",
"474 236 CURVE SMOOTH",
"474 93 OFFCURVE",
"442 55 OFFCURVE",
"330 55 CURVE SMOOTH",
"192 55 OFFCURVE",
"156 116 OFFCURVE",
"156 267 CURVE SMOOTH"
);
},
{
closed = 1;
nodes = (
"56 83 OFFCURVE",
"97 -37 OFFCURVE",
"330 -37 CURVE SMOOTH",
"511 -37 OFFCURVE",
"574 34 OFFCURVE",
"574 236 CURVE SMOOTH",
"574 363 OFFCURVE",
"539 426 OFFCURVE",
"441 461 CURVE",
"487 497 OFFCURVE",
"504 543 OFFCURVE",
"504 622 CURVE SMOOTH",
"504 781 OFFCURVE",
"445 837 OFFCURVE",
"280 837 CURVE SMOOTH",
"115 837 OFFCURVE",
"56 731 OFFCURVE",
"56 572 CURVE SMOOTH",
"56 372 LINE SMOOTH"
);
}
);
width = 600;
}
);
},
{
color = 4;
glyphname = "ge-cy.loclBGR";
lastChange = "2020-01-11 13:51:11 +0000";
layers = (
{
anchors = (
{
name = bottomright;
position = "{580, 0}";
},
{
name = top;
position = "{300, 618}";
}
);
layerId = "7C079D0C-96CD-4BD8-8800-0621C7635A78";
paths = (
{
closed = 1;
nodes = (
"402 -14 OFFCURVE",
"486 60 OFFCURVE",
"493 171 CURVE",
"443 175 LINE",
"436 89 OFFCURVE",
"372 32 OFFCURVE",
"282 32 CURVE SMOOTH",
"194 32 OFFCURVE",
"134 78 OFFCURVE",
"131 148 CURVE SMOOTH",
"130 303 OFFCURVE",
"483 274 OFFCURVE",
"486 452 CURVE SMOOTH",
"489 560 OFFCURVE",
"407 632 OFFCURVE",
"281 632 CURVE SMOOTH",
"179 632 OFFCURVE",
"108 563 OFFCURVE",
"103 459 CURVE",
"151 451 LINE",
"156 532 OFFCURVE",
"208 586 OFFCURVE",
"282 586 CURVE SMOOTH",
"376 586 OFFCURVE",
"439 533 OFFCURVE",
"439 454 CURVE SMOOTH",
"437 326 OFFCURVE",
"83 340 OFFCURVE",
"85 150 CURVE SMOOTH",
"84 52 OFFCURVE",
"163 -14 OFFCURVE",
"283 -14 CURVE SMOOTH"
);
}
);
width = 600;
},
{
anchors = (
{
name = bottomright;
position = "{580, 0}";
},
{
name = top;
position = "{300, 618}";
}
);
layerId = "291433DC-531A-45CC-B814-57D397372F12";
paths = (
{
closed = 1;
nodes = (
"421 -14 OFFCURVE",
"516 76 OFFCURVE",
"515 205 CURVE",
"417 212 LINE",
"414 129 OFFCURVE",
"358 78 OFFCURVE",
"276 78 CURVE SMOOTH",
"204 78 OFFCURVE",
"152 116 OFFCURVE",
"150 170 CURVE SMOOTH",
"149 304 OFFCURVE",
"511 228 OFFCURVE",
"514 427 CURVE SMOOTH",
"519 551 OFFCURVE",
"429 632 OFFCURVE",
"285 632 CURVE SMOOTH",
"163 632 OFFCURVE",
"81 548 OFFCURVE",
"81 428 CURVE",
"178 411 LINE",
"178 491 OFFCURVE",
"223 540 OFFCURVE",
"288 540 CURVE SMOOTH",
"365 540 OFFCURVE",
"419 496 OFFCURVE",
"421 432 CURVE SMOOTH",
"419 324 OFFCURVE",
"55 384 OFFCURVE",
"56 174 CURVE SMOOTH",
"55 60 OFFCURVE",
"142 -14 OFFCURVE",
"279 -14 CURVE SMOOTH"
);
}
);
width = 600;
}
);
},
{
color = 4;
glyphname = "zhe-cy.loclBGR";
lastChange = "2020-01-07 07:10:03 +0000";
layers = (
{
components = (
{
name = "zhe-cy";
}
);
layerId = "7C079D0C-96CD-4BD8-8800-0621C7635A78";
paths = (
{
closed = 1;
nodes = (
"325 800 LINE",
"275 800 LINE",
"275 618 LINE",
"325 618 LINE"
);
}
);
width = 600;
},
{
components = (
{
name = "zhe-cy";
}
);
layerId = "291433DC-531A-45CC-B814-57D397372F12";
paths = (
{
closed = 1;
nodes = (
"350 800 LINE",
"250 800 LINE",
"250 618 LINE",
"350 618 LINE"
);
}
);
width = 600;
}
);
},
{
color = 4;
glyphname = "ze-cy.loclBGR";
lastChange = "2020-01-07 07:10:03 +0000";
layers = (
{
anchors = (
{
name = bottom;
position = "{300, -182}";
},
{
name = top;
position = "{300, 618}";
}
);
layerId = "7C079D0C-96CD-4BD8-8800-0621C7635A78";
paths = (
{
closed = 1;
nodes = (
"459 -196 OFFCURVE",
"509 -143 OFFCURVE",
"509 26 CURVE SMOOTH",
"509 153 OFFCURVE",
"485 205 OFFCURVE",
"411 241 CURVE",
"485 277 OFFCURVE",
"509 321 OFFCURVE",
"509 425 CURVE SMOOTH",
"509 582 OFFCURVE",
"459 632 OFFCURVE",
"300 632 CURVE SMOOTH",
"141 632 OFFCURVE",
"91 589 OFFCURVE",
"91 451 CURVE",
"141 451 LINE",
"141 554 OFFCURVE",
"179 586 OFFCURVE",
"300 586 CURVE SMOOTH",
"421 586 OFFCURVE",
"459 547 OFFCURVE",
"459 425 CURVE SMOOTH",
"459 311 OFFCURVE",
"426 272 OFFCURVE",
"320 264 CURVE",
"250 264 LINE",
"250 218 LINE",
"320 218 LINE",
"426 210 OFFCURVE",
"459 164 OFFCURVE",
"459 26 CURVE SMOOTH",
"459 -108 OFFCURVE",
"421 -150 OFFCURVE",
"300 -150 CURVE SMOOTH",
"179 -150 OFFCURVE",
"141 -114 OFFCURVE",
"141 0 CURVE",
"91 0 LINE",
"91 -149 OFFCURVE",
"141 -196 OFFCURVE",
"300 -196 CURVE SMOOTH"
);
}
);
width = 600;
},
{
anchors = (
{
name = bottom;
position = "{300, -182}";
},
{
name = top;
position = "{300, 618}";
}
);
layerId = "291433DC-531A-45CC-B814-57D397372F12";
paths = (
{
closed = 1;
nodes = (
"478 -196 OFFCURVE",
"534 -140 OFFCURVE",
"534 38 CURVE SMOOTH",
"534 150 OFFCURVE",
"516 199 OFFCURVE",
"458 241 CURVE",
"516 280 OFFCURVE",
"534 321 OFFCURVE",
"534 412 CURVE SMOOTH",
"534 579 OFFCURVE",
"478 632 OFFCURVE",
"300 632 CURVE SMOOTH",
"122 632 OFFCURVE",
"66 578 OFFCURVE",
"66 405 CURVE",
"167 405 LINE",
"167 508 OFFCURVE",
"199 540 OFFCURVE",
"300 540 CURVE SMOOTH",
"402 540 OFFCURVE",
"434 509 OFFCURVE",
"434 412 CURVE SMOOTH",
"434 324 OFFCURVE",
"406 294 OFFCURVE",
"319 287 CURVE",
"225 287 LINE",
"225 195 LINE",
"319 195 LINE",
"406 188 OFFCURVE",
"434 151 OFFCURVE",
"434 38 CURVE SMOOTH",
"434 -70 OFFCURVE",
"402 -104 OFFCURVE",
"300 -104 CURVE SMOOTH",
"198 -104 OFFCURVE",
"166 -71 OFFCURVE",
"166 35 CURVE",
"66 35 LINE",
"66 -141 OFFCURVE",
"122 -196 OFFCURVE",
"300 -196 CURVE SMOOTH"
);
}
);
width = 600;
}
);
},
{
color = 4;
glyphname = "el-cy.loclBGR";
lastChange = "2020-01-07 07:10:03 +0000";
layers = (
{
layerId = "7C079D0C-96CD-4BD8-8800-0621C7635A78";
paths = (
{
closed = 1;
nodes = (
"103 0 LINE",
"300 558 LINE",
"497 0 LINE",
"548 0 LINE",
"330 618 LINE",
"270 618 LINE",
"52 0 LINE"
);
}
);
width = 600;
},
{
layerId = "291433DC-531A-45CC-B814-57D397372F12";
paths = (
{
closed = 1;
nodes = (
"121 0 LINE",
"300 479 LINE",
"479 0 LINE",
"580 0 LINE",
"350 618 LINE",
"250 618 LINE",
"20 0 LINE"
);
}
);
width = 600;
}
);
},
{
color = 4;
glyphname = "tse-cy.loclBGR";
lastChange = "2020-01-07 07:10:03 +0000";
layers = (
{
components = (
{
name = u;
transform = "{1, 0, 0, 1, -10, 0}";
}
);
layerId = "7C079D0C-96CD-4BD8-8800-0621C7635A78";
paths = (
{
closed = 1;
nodes = (
"539 45 LINE",
"489 45 LINE",
"489 -118 LINE",
"539 -118 LINE"
);
}
);
width = 600;
},
{
components = (
{
name = u;
transform = "{1, 0, 0, 1, -20, 0}";
}
);
layerId = "291433DC-531A-45CC-B814-57D397372F12";
paths = (
{
closed = 1;
nodes = (
"588 88 LINE",
"488 88 LINE",
"488 -118 LINE",
"588 -118 LINE"
);
}
);
width = 600;
}
);
},
{
color = 4;
glyphname = "shcha-cy.loclBGR";
lastChange = "2020-01-07 07:10:03 +0000";
layers = (
{
components = (
{
name = "sha-cy.loclBGR";
transform = "{1, 0, 0, 1, -10, 0}";
}
);
layerId = "7C079D0C-96CD-4BD8-8800-0621C7635A78";
paths = (
{
closed = 1;
nodes = (
"567 45 LINE",
"517 45 LINE",
"517 -118 LINE",
"567 -118 LINE"
);
}
);
width = 600;
},
{
components = (
{
name = "sha-cy.loclBGR";
transform = "{1, 0, 0, 1, -32, 0}";
}
);
layerId = "291433DC-531A-45CC-B814-57D397372F12";
paths = (
{
closed = 1;
nodes = (
"600 88 LINE",
"500 88 LINE",
"500 -118 LINE",
"600 -118 LINE"
);
}
);
width = 600;
}
);
},
